<svg width="601" height="325" viewBox="0 0 601 325" fill="none" xmlns="http://www.w3.org/2000/svg">
<path d="M535.522 110.774C511.709 90.4611 483.001 -32.0391 384.657 31.7625C333.847 64.726 248.171 3.4636 177.255 24.6236C112.129 44.0566 105.851 108.082 112.153 128.944C124.881 171.087 85.2697 177.358 48.5229 195.465C-9.1179 223.866 33.268 323.682 87.7219 324.159C142.176 324.636 472.068 323.209 472.068 323.209C472.068 323.209 551.174 323.408 584.07 279.749C619.47 232.766 597.03 163.24 535.522 110.774Z" fill="#454A51"/>
<path d="M435.174 263.187H570.745V35.4059L435.174 35.4059V263.187Z" fill="#C3BB2F"/>
<path d="M566.496 35.4058H430.925V263.186H566.496V35.4058Z" fill="#F8EC20"/>
<path d="M557.585 48.1304H440.157V127.47H557.585V48.1304Z" fill="#292B2D"/>
<path d="M555.56 201.923H492.538V244.285H555.56V201.923Z" fill="#292B2D"/>
<path d="M444.999 88.6248C444.999 88.6248 465.049 86.1268 477.3 97.4135C489.552 108.7 512.376 98.4134 521.565 97.4135C537.543 95.6746 550.068 100.902 553.784 106.648V123.886H444.999V88.6248Z" fill="#FFFAA8"/>
<path d="M461.38 60.8828H460.54V87.8001H461.38V60.8828Z" fill="white"/>
<path d="M494.351 72.4336H493.511V99.3509H494.351V72.4336Z" fill="white"/>
<path d="M528.372 66.3433H527.532V93.2606H528.372V66.3433Z" fill="white"/>
<path d="M470.76 65.0131H464.32C463.935 65.0131 463.62 64.6979 463.62 64.3128C463.62 63.9279 463.935 63.6128 464.32 63.6128H470.76C471.145 63.6128 471.46 63.9279 471.46 64.3128C471.46 64.6979 471.145 65.0131 470.76 65.0131Z" fill="white"/>
<path d="M470.76 67.5336H464.32C463.935 67.5336 463.62 67.2184 463.62 66.8333C463.62 66.4484 463.935 66.1333 464.32 66.1333H470.76C471.145 66.1333 471.46 66.4484 471.46 66.8333C471.46 67.2184 471.145 67.5336 470.76 67.5336Z" fill="white"/>
<path d="M503.241 78.7335H496.801C496.416 78.7335 496.101 78.4186 496.101 78.0335C496.101 77.6484 496.416 77.3335 496.801 77.3335H503.241C503.626 77.3335 503.942 77.6484 503.942 78.0335C503.942 78.4186 503.626 78.7335 503.241 78.7335Z" fill="white"/>
<path d="M503.241 81.2023H496.801C496.416 81.2023 496.101 80.8874 496.101 80.5023C496.101 80.1171 496.416 79.8022 496.801 79.8022H503.241C503.626 79.8022 503.942 80.1171 503.942 80.5023C503.942 80.8871 503.626 81.2023 503.241 81.2023Z" fill="white"/>
<path d="M537.823 68.5831H531.382C530.998 68.5831 530.682 68.268 530.682 67.8831C530.682 67.4982 530.998 67.1831 531.382 67.1831H537.823C538.208 67.1831 538.523 67.4982 538.523 67.8831C538.523 68.2682 538.208 68.5831 537.823 68.5831Z" fill="white"/>
<path d="M537.823 71.0514H531.382C530.998 71.0514 530.682 70.7365 530.682 70.3514C530.682 69.9665 530.998 69.6514 531.382 69.6514H537.823C538.208 69.6514 538.523 69.9662 538.523 70.3514C538.523 70.7365 538.208 71.0514 537.823 71.0514Z" fill="white"/>
<path d="M557.456 149.616C558.482 143.295 554.189 137.34 547.869 136.314C541.548 135.288 535.592 139.58 534.566 145.901C533.54 152.222 537.833 158.178 544.154 159.204C550.475 160.229 556.43 155.937 557.456 149.616Z" fill="#292B2D"/>
<path d="M556.602 147.765C556.602 153.625 551.851 158.377 545.99 158.377C543.224 158.377 540.705 157.319 538.817 155.585L545.99 147.765V137.153C551.851 137.153 556.602 141.904 556.602 147.765Z" fill="#4F4E43"/>
<path d="M541.949 145.895H538.138C537.963 145.895 537.819 145.751 537.819 145.576C537.819 145.4 537.963 145.257 538.138 145.257H541.949C542.125 145.257 542.268 145.4 542.268 145.576C542.268 145.751 542.124 145.895 541.949 145.895Z" fill="white"/>
<path d="M505.609 147.765C505.609 141.361 510.8 136.17 517.204 136.17C523.607 136.17 528.798 141.362 528.798 147.765C528.798 154.168 523.607 159.359 517.204 159.359C510.8 159.359 505.609 154.168 505.609 147.765Z" fill="#292B2D"/>
<path d="M517.204 147.765L523.724 156.137C521.926 157.541 519.663 158.376 517.204 158.376C511.342 158.376 506.591 153.625 506.591 147.764C506.591 141.904 511.342 137.153 517.204 137.153C522.737 137.153 527.282 141.388 527.771 146.795L517.204 147.765Z" fill="#4F4E43"/>
<path d="M525.375 150.388H522.723C522.547 150.388 522.404 150.244 522.404 150.069C522.404 149.893 522.548 149.75 522.723 149.75H525.375C525.551 149.75 525.694 149.894 525.694 150.069C525.694 150.244 525.551 150.388 525.375 150.388Z" fill="white"/>
<path d="M534.396 179.699C534.396 173.296 539.587 168.105 545.99 168.105C552.394 168.105 557.585 173.296 557.585 179.699C557.585 186.103 552.394 191.294 545.99 191.294C539.587 191.294 534.396 186.103 534.396 179.699Z" fill="#292B2D"/>
<path d="M556.602 179.699C556.602 185.559 551.851 190.311 545.99 190.311C543.224 190.311 540.705 189.253 538.817 187.519L545.99 179.699V169.087C551.851 169.087 556.602 173.838 556.602 179.699Z" fill="#4F4E43"/>
<path d="M541.949 177.829H538.138C537.963 177.829 537.819 177.686 537.819 177.51C537.819 177.335 537.963 177.191 538.138 177.191H541.949C542.125 177.191 542.268 177.335 542.268 177.51C542.268 177.686 542.124 177.829 541.949 177.829Z" fill="white"/>
<path d="M505.609 179.699C505.609 173.296 510.8 168.105 517.204 168.105C523.607 168.105 528.798 173.296 528.798 179.699C528.798 186.103 523.607 191.294 517.204 191.294C510.8 191.294 505.609 186.103 505.609 179.699Z" fill="#292B2D"/>
<path d="M527.771 178.73C527.282 173.323 522.737 169.087 517.204 169.087C511.342 169.087 506.591 173.839 506.591 179.699C506.591 185.56 511.342 190.311 517.204 190.311C519.663 190.311 521.925 189.476 523.724 188.072L517.204 179.699L527.771 178.73Z" fill="#4F4E43"/>
<path d="M525.375 182.323H522.723C522.547 182.323 522.404 182.179 522.404 182.004C522.404 181.828 522.548 181.685 522.723 181.685H525.375C525.551 181.685 525.694 181.829 525.694 182.004C525.694 182.179 525.551 182.323 525.375 182.323Z" fill="white"/>
<path d="M552.844 241.325H494.996V207.144H495.715V240.605H552.844V241.325Z" fill="#FFFAA8"/>
<path d="M513.08 228.964C505.998 223.327 498.468 228.964 498.468 228.964V238.601H551.408V213.69C537.021 214.054 520.161 234.601 513.08 228.964Z" fill="#FFFAA8"/>
<path d="M499.074 209.75H523.742C524.076 209.75 524.348 209.478 524.348 209.144C524.348 208.811 524.076 208.538 523.742 208.538H499.074C498.74 208.538 498.468 208.811 498.468 209.144C498.468 209.478 498.74 209.75 499.074 209.75Z" fill="#FFFAA8"/>
<path d="M499.074 212.712H523.742C524.076 212.712 524.348 212.44 524.348 212.106C524.348 211.773 524.076 211.5 523.742 211.5H499.074C498.74 211.5 498.468 211.773 498.468 212.106C498.468 212.44 498.74 212.712 499.074 212.712Z" fill="#FFFAA8"/>
<path d="M498.964 215.509H515.298C515.57 215.509 515.793 215.285 515.793 215.013V214.792C515.793 214.52 515.57 214.296 515.298 214.296H498.964C498.691 214.296 498.468 214.52 498.468 214.792V215.013C498.468 215.285 498.691 215.509 498.964 215.509Z" fill="#FFFAA8"/>
<path d="M408.493 0H222.998V279.749H408.493V0Z" fill="#F8EC20"/>
<path d="M390.267 15.6479H240.921V182.112H390.267V15.6479Z" fill="#292B2D"/>
<path d="M244.095 235.296C244.095 220.462 256.12 208.437 270.954 208.437C285.788 208.437 297.813 220.462 297.813 235.296C297.813 250.13 285.788 262.155 270.954 262.155C256.12 262.155 244.095 250.13 244.095 235.296Z" fill="#292B2D"/>
<path d="M293.658 235.296C293.658 222.757 283.494 212.591 270.955 212.591C258.414 212.591 248.25 222.757 248.25 235.296C248.25 247.835 258.414 258.001 270.955 258.001C276.135 258.001 280.907 256.268 284.725 253.348L270.955 235.296L292.171 243.394C293.131 240.879 293.658 238.149 293.658 235.296Z" fill="#4F4E43"/>
<path d="M335.608 235.296C335.608 220.462 347.633 208.437 362.467 208.437C377.301 208.437 389.326 220.462 389.326 235.296C389.326 250.13 377.301 262.155 362.467 262.155C347.633 262.155 335.608 250.13 335.608 235.296Z" fill="#292B2D"/>
<path d="M362.468 212.591C349.927 212.591 339.763 222.757 339.763 235.296C339.763 241.502 342.25 247.124 346.286 251.222L362.468 235.296L383.684 243.394C384.644 240.879 385.17 238.149 385.17 235.296C385.17 222.757 375.006 212.591 362.468 212.591Z" fill="#4F4E43"/>
<path d="M359.149 223.77H349.485C349.105 223.77 348.794 224.08 348.794 224.46C348.794 224.84 349.105 225.15 349.485 225.15H359.149C359.529 225.15 359.84 224.84 359.84 224.46C359.84 224.08 359.529 223.77 359.149 223.77Z" fill="white"/>
<path d="M359.149 225.956H349.485C349.105 225.956 348.794 226.267 348.794 226.647C348.794 227.026 349.105 227.337 349.485 227.337H359.149C359.529 227.337 359.84 227.026 359.84 226.647C359.84 226.267 359.529 225.956 359.149 225.956Z" fill="white"/>
<path d="M353.476 228.142H349.485C349.105 228.142 348.794 228.453 348.794 228.832C348.794 229.212 349.105 229.523 349.485 229.523H353.476C353.855 229.523 354.166 229.212 354.166 228.832C354.166 228.453 353.855 228.142 353.476 228.142Z" fill="white"/>
<path d="M267.45 223.77H257.786C257.406 223.77 257.096 224.08 257.096 224.46C257.096 224.84 257.406 225.15 257.786 225.15H267.45C267.83 225.15 268.141 224.84 268.141 224.46C268.141 224.08 267.83 223.77 267.45 223.77Z" fill="white"/>
<path d="M267.45 225.956H257.786C257.406 225.956 257.096 226.267 257.096 226.647C257.096 227.026 257.406 227.337 257.786 227.337H267.45C267.83 227.337 268.141 227.026 268.141 226.647C268.141 226.267 267.83 225.956 267.45 225.956Z" fill="white"/>
<path d="M261.777 228.142H257.786C257.406 228.142 257.095 228.453 257.095 228.832C257.095 229.212 257.406 229.523 257.786 229.523H261.777C262.157 229.523 262.467 229.212 262.467 228.832C262.467 228.453 262.157 228.142 261.777 228.142Z" fill="white"/>
<path d="M269.979 75.1387H254.219V173.311H269.979V75.1387Z" fill="#FFFAA8"/>
<path d="M295.797 47.7744H280.038V173.311H295.797V47.7744Z" fill="#FFFAA8"/>
<path d="M323.97 98.8799H308.21V173.311H323.97V98.8799Z" fill="#FFFAA8"/>
<path d="M351.383 64.5342H335.623V173.311H351.383V64.5342Z" fill="#FFFAA8"/>
<path d="M378.938 113.448H363.179V173.311H378.938V113.448Z" fill="#FFFAA8"/>
<path d="M350.635 50.3823H337.289C336.529 50.3823 335.908 51.0036 335.908 51.763C335.908 52.5223 336.529 53.1436 337.289 53.1436H350.635C351.394 53.1436 352.016 52.5223 352.016 51.763C352.016 51.0036 351.394 50.3823 350.635 50.3823Z" fill="white"/>
<path d="M340.328 55.4062H337.289C336.529 55.4062 335.908 56.0275 335.908 56.7869C335.908 57.5463 336.529 58.1676 337.289 58.1676H340.328C341.088 58.1676 341.709 57.5463 341.709 56.7869C341.709 56.0275 341.088 55.4062 340.328 55.4062Z" fill="#A6C7F9"/>
<path d="M295.639 29.001H282.293C281.533 29.001 280.912 29.6223 280.912 30.3816C280.912 31.141 281.533 31.7623 282.293 31.7623H295.639C296.398 31.7623 297.019 31.141 297.019 30.3816C297.019 29.6223 296.398 29.001 295.639 29.001Z" fill="white"/>
<path d="M285.332 34.0254H282.293C281.533 34.0254 280.912 34.6467 280.912 35.406C280.912 36.1654 281.533 36.7867 282.293 36.7867H285.332C286.092 36.7867 286.713 36.1654 286.713 35.406C286.713 34.6467 286.092 34.0254 285.332 34.0254Z" fill="white"/>
<path d="M322.763 84.2275H309.417C308.657 84.2275 308.036 84.8486 308.036 85.6082C308.036 86.3678 308.657 86.9888 309.417 86.9888H322.763C323.523 86.9888 324.144 86.3676 324.144 85.6082C324.144 84.8488 323.522 84.2275 322.763 84.2275Z" fill="white"/>
<path d="M312.456 89.2515H309.417C308.657 89.2515 308.036 89.8727 308.036 90.6321C308.036 91.3915 308.657 92.0128 309.417 92.0128H312.456C313.216 92.0128 313.837 91.3915 313.837 90.6321C313.837 89.8727 313.216 89.2515 312.456 89.2515Z" fill="white"/>
<path d="M377.732 98.8799H364.385C363.626 98.8799 363.005 99.5012 363.005 100.261C363.005 101.02 363.626 101.641 364.385 101.641H377.732C378.492 101.641 379.113 101.02 379.113 100.261C379.113 99.5012 378.492 98.8799 377.732 98.8799Z" fill="white"/>
<path d="M367.425 103.904H364.385C363.626 103.904 363.005 104.526 363.005 105.285C363.005 106.045 363.626 106.666 364.385 106.666H367.425C368.185 106.666 368.806 106.045 368.806 105.285C368.806 104.526 368.185 103.904 367.425 103.904Z" fill="white"/>
<path d="M197.966 106.041H62.3948V182.363H197.966V106.041Z" fill="#C3BB2F"/>
<path d="M202.374 106.041H66.803V182.363H202.374V106.041Z" fill="#F8EC20"/>
<path d="M121.208 159.812C130.781 150.239 130.781 134.719 121.208 125.146C111.635 115.573 96.1149 115.573 86.5421 125.146C76.9694 134.719 76.9694 150.239 86.5421 159.812C96.1149 169.385 111.635 169.385 121.208 159.812Z" fill="#292B2D"/>
<path d="M187.134 128.784H146.526C145.054 128.784 143.851 129.988 143.851 131.46C143.851 132.931 145.055 134.136 146.526 134.136H187.134C188.606 134.136 189.81 132.931 189.81 131.46C189.81 129.988 188.606 128.784 187.134 128.784Z" fill="#292B2D"/>
<path d="M187.134 139.802H146.526C145.054 139.802 143.851 141.006 143.851 142.478C143.851 143.95 145.055 145.154 146.526 145.154H187.134C188.606 145.154 189.81 143.95 189.81 142.478C189.81 141.006 188.606 139.802 187.134 139.802Z" fill="#292B2D"/>
<path d="M187.134 150.82H146.526C145.054 150.82 143.851 152.024 143.851 153.496C143.851 154.967 145.055 156.171 146.526 156.171H187.134C188.606 156.171 189.81 154.967 189.81 153.496C189.81 152.024 188.606 150.82 187.134 150.82Z" fill="#292B2D"/>
<path d="M81.4373 142.122H103.881V119.678C91.4864 119.678 81.4373 129.727 81.4373 142.122Z" fill="#4F4E43"/>
<path d="M126.324 142.844H103.881H103.881H81.4373C81.4373 155.238 91.486 165.287 103.881 165.287C116.275 165.287 126.324 155.238 126.324 142.844Z" fill="#4F4E43"/>
<path d="M100.004 130.583H87.8236C87.1306 130.583 86.5636 131.15 86.5636 131.843C86.5636 132.536 87.1306 133.103 87.8236 133.103H100.004C100.697 133.103 101.264 132.536 101.264 131.843C101.264 131.15 100.697 130.583 100.004 130.583Z" fill="white"/>
<path d="M90.598 135.168H87.8239C87.1309 135.168 86.5638 135.735 86.5638 136.428C86.5638 137.121 87.1309 137.688 87.8239 137.688H90.598C91.291 137.688 91.858 137.121 91.858 136.428C91.858 135.735 91.291 135.168 90.598 135.168Z" fill="white"/>
<path d="M118.088 148.331H105.907C105.214 148.331 104.647 148.898 104.647 149.591C104.647 150.284 105.214 150.851 105.907 150.851H118.088C118.781 150.851 119.348 150.284 119.348 149.591C119.348 148.898 118.781 148.331 118.088 148.331Z" fill="white"/>
<path d="M108.681 152.916H105.907C105.214 152.916 104.647 153.483 104.647 154.176C104.647 154.869 105.214 155.436 105.907 155.436H108.681C109.374 155.436 109.941 154.869 109.941 154.176C109.941 153.483 109.374 152.916 108.681 152.916Z" fill="white"/>
<path d="M52.8463 196.031V274.085H188.417V196.031H52.8463Z" fill="#C3BB2F"/>
<path d="M57.2544 196.031V274.085H192.825V196.031H57.2544Z" fill="#F8EC20"/>
<path d="M116.305 243.48C122.306 231.345 117.333 216.642 105.198 210.641C93.0623 204.639 78.3594 209.612 72.358 221.747C66.3566 233.883 71.3292 248.586 83.4647 254.587C95.6002 260.589 110.303 255.616 116.305 243.48Z" fill="#292B2D"/>
<path d="M136.976 224.306H177.584C179.056 224.306 180.26 223.102 180.26 221.63C180.26 220.159 179.056 218.955 177.584 218.955H136.976C135.504 218.955 134.3 220.159 134.3 221.63C134.3 223.102 135.504 224.306 136.976 224.306Z" fill="#292B2D"/>
<path d="M177.584 229.972H136.976C135.504 229.972 134.3 231.176 134.3 232.648C134.3 234.12 135.504 235.324 136.976 235.324H177.584C179.056 235.324 180.26 234.12 180.26 232.648C180.26 231.176 179.056 229.972 177.584 229.972Z" fill="#292B2D"/>
<path d="M177.584 240.99H136.976C135.504 240.99 134.3 242.194 134.3 243.666C134.3 245.137 135.504 246.341 136.976 246.341H177.584C179.056 246.341 180.26 245.137 180.26 243.666C180.26 242.194 179.056 240.99 177.584 240.99Z" fill="#292B2D"/>
<path d="M94.3308 233.046L71.8895 232.761C71.8873 232.855 71.8873 232.952 71.8873 233.046C71.8873 245.441 81.9362 255.49 94.3308 255.49C98.762 255.49 102.893 254.204 106.372 251.987L94.3308 233.046Z" fill="#4F4E43"/>
<path d="M95.1575 240.113H82.9768C82.2838 240.113 81.7168 240.68 81.7168 241.373C81.7168 242.066 82.2838 242.633 82.9768 242.633H95.1575C95.8505 242.633 96.4175 242.066 96.4175 241.373C96.4173 240.68 95.8505 240.113 95.1575 240.113Z" fill="white"/>
<path d="M85.7509 244.698H82.9768C82.2838 244.698 81.7168 245.265 81.7168 245.958C81.7168 246.651 82.2838 247.218 82.9768 247.218H85.7509C86.4439 247.218 87.011 246.651 87.011 245.958C87.011 245.265 86.4442 244.698 85.7509 244.698Z" fill="white"/>
<path d="M188.419 22.8027H52.8463V93.5338H188.419V22.8027Z" fill="#C3BB2F"/>
<path d="M192.825 22.8027H57.2544V93.5338H192.825V22.8027Z" fill="#F8EC20"/>
<path d="M101.819 82.5407C114.712 78.4089 121.813 64.6082 117.682 51.7159C113.55 38.8236 99.7491 31.7219 86.8568 35.8537C73.9645 39.9855 66.8628 53.7862 70.9946 66.6785C75.1264 79.5708 88.9271 86.6725 101.819 82.5407Z" fill="#292B2D"/>
<path d="M94.3313 36.7661C81.9368 36.7661 71.8878 46.8129 71.8878 59.2074C71.8878 67.6982 76.6046 75.0885 83.5601 78.8998C87.1554 72.2405 94.3313 59.2074 94.3313 59.2074L104.958 78.9776C111.993 75.189 116.773 67.7568 116.773 59.2074C116.773 46.8129 106.726 36.7661 94.3313 36.7661Z" fill="#4F4E43"/>
<path d="M177.584 45.5142H136.976C135.505 45.5142 134.301 46.7182 134.301 48.1897C134.301 49.6612 135.505 50.8655 136.976 50.8655H177.584C179.056 50.8655 180.26 49.6614 180.26 48.19C180.26 46.7185 179.056 45.5142 177.584 45.5142Z" fill="#292B2D"/>
<path d="M177.584 56.5312H136.976C135.505 56.5312 134.301 57.7353 134.301 59.2068C134.301 60.6785 135.505 61.8826 136.976 61.8826H177.584C179.056 61.8826 180.26 60.6785 180.26 59.2068C180.26 57.7353 179.056 56.5312 177.584 56.5312Z" fill="#292B2D"/>
<path d="M177.584 67.5493H136.976C135.505 67.5493 134.301 68.7536 134.301 70.2251C134.301 71.6968 135.505 72.9007 136.976 72.9007H177.584C179.056 72.9007 180.26 71.6966 180.26 70.2251C180.26 68.7536 179.056 67.5493 177.584 67.5493Z" fill="#292B2D"/>
<path d="M95.1578 48.4888H82.9773C82.2843 48.4888 81.7173 49.0558 81.7173 49.7488C81.7173 50.4418 82.2843 51.0088 82.9773 51.0088H95.1578C95.8508 51.0088 96.4178 50.4418 96.4178 49.7488C96.4178 49.0558 95.8505 48.4888 95.1578 48.4888Z" fill="white"/>
<path d="M85.7514 53.0737H82.9773C82.2843 53.0737 81.7173 53.6408 81.7173 54.3338C81.7173 55.0267 82.2843 55.5938 82.9773 55.5938H85.7514C86.4444 55.5938 87.0115 55.0267 87.0115 54.3338C87.0112 53.6408 86.4444 53.0737 85.7514 53.0737Z" fill="white"/>
<path d="M224.271 144.954C224.271 144.954 240.085 161.279 240.844 167.435C241.603 173.591 233.32 183.221 233.32 183.221L224.271 144.954Z" fill="#292B2D"/>
<path d="M217.51 314.309C217.51 314.309 216.972 322.988 215.293 323.112C215.07 323.129 206.777 323.129 206.777 323.129L196.191 323.068C196.191 323.068 196.26 320.517 199.355 319.978C202.449 319.438 207.628 317.263 209.503 313.174C211.475 308.871 217.51 314.309 217.51 314.309Z" fill="#202020"/>
<path d="M241.089 314.309C241.089 314.309 240.551 322.988 238.872 323.112C238.648 323.129 230.356 323.129 230.356 323.129L219.738 323.091C219.738 323.091 219.839 320.517 222.933 319.978C226.027 319.439 231.207 317.264 233.081 313.174C235.053 308.871 241.089 314.309 241.089 314.309Z" fill="#202020"/>
<path d="M205.786 221.241C205.786 221.241 208.555 238.949 218.883 270.383C229.212 301.817 230.619 315.429 230.619 315.429C230.619 315.429 233.413 315.835 236.364 315.835C238.231 315.835 241.699 315.119 241.699 315.119C241.699 315.119 241.794 280.765 237.034 264.958C232.274 249.151 236.006 207.972 236.006 207.972L205.786 221.241Z" fill="#FFFAA8"/>
<path d="M200.394 208.942C200.394 208.942 200.002 235.626 204.619 268.39C209.236 301.154 207.671 315.062 207.671 315.062C207.671 315.062 211.472 315.743 212.807 315.787C214.236 315.835 218.729 315.43 218.729 315.43C218.729 315.43 225.337 282.653 223.442 266.254C221.548 249.855 232.491 209.982 232.491 209.982L200.394 208.942Z" fill="#FFFAA8"/>
<path d="M221.8 146.496L216.585 150.359L209.047 148.772C209.152 148.085 209.649 145.236 210.102 142.656C210.13 142.503 210.157 142.351 210.183 142.202C210.571 140.007 210.906 138.12 210.906 138.12L217.946 134.612L220.571 133.304C220.564 133.35 220.367 135.74 220.34 136.089C219.848 142.286 221.8 146.496 221.8 146.496Z" fill="#FFDBD9"/>
<path d="M209.575 144.548C209.74 144.478 219.828 141.501 220.924 141.863C222.02 142.225 222.669 144.345 222.669 144.345L206.168 148.076C206.168 148.076 207.467 145.435 209.575 144.548Z" fill="#161414"/>
<path d="M236.74 212.236C235.03 220.037 206.571 220.962 199.236 213.881C198.401 213.074 198.36 209.319 198.675 204.256C199.29 194.364 201.267 179.484 201.344 171.881C201.382 168.21 201.886 164.455 202.558 161.045C203.988 153.778 206.168 148.075 206.168 148.075C206.168 148.075 220.068 143.581 222.669 144.346C235.2 148.027 238.45 204.436 236.74 212.236Z" fill="#292B2D"/>
<path d="M198.675 204.256C199.29 194.364 201.267 179.484 201.344 171.881C201.382 168.21 201.886 164.455 202.558 161.045L210.92 159.569C210.92 159.569 219.095 192.962 198.675 204.256Z" fill="#292B2D"/>
<path d="M203.203 190.468C203.203 190.468 203.773 191.83 202.576 192.744C201.379 193.659 200.603 195.141 200.877 196.224C201.151 197.307 203.776 199.074 204.686 198.789C205.597 198.504 207.449 197.078 207.25 196.506C207.05 195.935 208.496 191.493 206.277 189.783C204.057 188.073 203.203 190.468 203.203 190.468Z" fill="#FFDBD9"/>
<path d="M212.553 146.073C212.553 146.073 204.398 147.599 197.9 157.175C191.402 166.751 187.127 173.87 188.324 177.321C189.521 180.773 200.432 192.742 202.313 192.742C204.194 192.742 207.23 191.375 207.4 188.297C207.4 188.297 199.719 176.783 201.232 175.059C201.879 174.322 211.205 166.751 212.536 170.171C214.739 175.83 212.553 146.073 212.553 146.073Z" fill="#292B2D"/>
<path d="M219.812 136.199C218.266 139.158 212.505 141.716 210.102 142.656C210.13 142.504 210.157 142.352 210.183 142.203C210.571 140.008 210.906 138.121 210.906 138.121L217.946 134.612C219.502 134.588 220.449 134.982 219.812 136.199Z" fill="#FFDBD9"/>
<path d="M208.638 138.281C208.638 138.281 219.059 141.532 220.984 135.011C222.908 128.49 225.55 124.518 218.977 122.167C212.405 119.815 210.372 121.921 209.2 123.941C208.028 125.961 205.976 137.268 208.638 138.281Z" fill="#FFDBD9"/>
<path d="M209.609 123.312C209.609 123.312 210.274 130.901 211.843 130.571C213.412 130.242 214.836 129.998 214.606 132.285C214.376 134.573 212.2 137.214 217.036 137.619C221.873 138.024 228.825 125.551 227.497 123.189C223.663 116.375 204.069 115 209.609 123.312Z" fill="#163560"/>
<path d="M420.126 212.99C420.126 212.99 415.514 214.174 412.582 213.291C409.65 212.408 404.605 213.858 403.792 214.927C402.98 215.996 403.278 216.421 404.728 216.79C406.178 217.159 411.315 219.35 414.691 218.082C418.067 216.814 422.47 216.767 422.47 216.767L420.126 212.99Z" fill="#FFDBD9"/>
<path d="M459.983 172.928C459.983 172.928 454.802 209.75 446.224 213.048C441.991 214.675 423.284 218.364 417.75 218.735C417.75 218.735 416.394 217.635 416.725 213.158C416.725 213.158 436.324 205.963 439.108 202.05C443.252 196.226 436.536 178.257 441.736 172.788C446.936 167.318 455.694 164.967 459.983 172.928Z" fill="#292B2D"/>
<path d="M459.322 314.805V306.776H471.961C472.302 306.776 472.581 306.498 472.581 306.156V304.87C472.581 304.529 472.303 304.249 471.961 304.249H459.322V258.549C459.322 257.267 458.272 256.217 456.99 256.217H454.489C453.207 256.217 452.157 257.267 452.157 258.549V304.249H439.518C439.177 304.249 438.897 304.529 438.897 304.87V306.156C438.897 306.497 439.177 306.776 439.518 306.776H452.157V314.805C443.012 315.496 435.685 318.788 433.63 323.042H477.849C475.794 318.788 468.467 315.496 459.322 314.805Z" fill="#1B1D2B"/>
<path d="M458.237 250.504C456.726 253.067 454.978 255.47 453.176 257.745C447.608 264.774 441.547 270.57 440.491 276.048C440.281 277.14 439.948 278.316 439.512 279.555C439.071 280.81 438.526 282.13 437.897 283.494C435.534 288.626 432.001 294.378 428.473 299.605C422.374 308.642 416.639 316.183 416.639 316.183L406.122 315.735C406.543 314.681 411.13 302.203 417.266 286.954C419.758 280.763 422.408 274.179 424.964 267.829C425.305 266.981 425.646 266.137 425.983 265.3C426.764 263.356 427.533 261.443 428.284 259.581C434.046 245.262 438.636 233.86 438.636 233.86C438.636 233.86 461.665 225.136 464.056 230.79C466.028 235.45 464.422 240.016 458.237 250.504Z" fill="#FFFAA8"/>
<path d="M416.31 314.271C416.31 314.271 415.772 322.95 414.093 323.074C413.87 323.091 405.577 323.091 405.577 323.091L394.991 323.029C394.991 323.029 395.06 320.479 398.155 319.939C401.249 319.4 406.429 317.225 408.303 313.136C410.275 308.833 416.31 314.271 416.31 314.271Z" fill="#202020"/>
<path d="M440.664 289.477C440.664 289.477 447.979 294.178 447.27 295.704C447.175 295.907 443.132 303.148 443.132 303.148L437.918 312.361C437.918 312.361 435.725 311.057 436.763 308.092C437.8 305.128 438.426 299.545 435.769 295.915C432.974 292.096 440.664 289.477 440.664 289.477Z" fill="#202020"/>
<path d="M430.766 229.72C430.766 229.72 401.86 247.726 398.633 259.826C395.407 271.926 437.085 297.74 437.085 297.74C437.085 297.74 441.657 293.706 442.463 290.749C442.463 290.749 423.624 268.178 419.537 263.118C417.028 260.011 456.647 252.362 461.487 244.833C466.327 237.304 464.594 230.969 464.594 230.969L430.766 229.72Z" fill="#FFFAA8"/>
<path d="M485.319 252.841H426.159C424.976 252.841 424.008 253.809 424.008 254.992V266.824C424.008 268.007 424.976 268.976 426.159 268.976H485.319C486.503 268.976 487.471 268.007 487.471 266.824V254.992C487.471 253.809 486.503 252.841 485.319 252.841Z" fill="#292B2D"/>
<path d="M444.133 166.616C441.294 168.375 439.729 170.607 439.729 170.607C446.654 172.398 458.134 165.981 458.134 165.981C458.134 165.981 453.677 162.986 452.025 156.405C451.941 156.073 451.865 155.733 451.798 155.384C451.582 154.276 451.448 153.076 451.423 151.781L448.242 154.631L442.952 159.37C442.952 159.37 443.072 161.336 443.734 164.718C443.849 165.309 443.981 165.942 444.133 166.616Z" fill="#FFDBD9"/>
<path d="M465.434 199.286C464.443 212.627 466.111 232.909 464.986 236.423C464.014 239.455 452.586 237.661 448.169 236.648C446.534 236.274 444.554 235.739 442.509 235.106C436.804 233.34 430.589 230.818 429.922 228.945C429.896 228.871 429.874 228.799 429.86 228.729C429.799 228.458 429.813 228.203 429.872 227.945C430.095 226.991 430.951 225.958 431.052 223.594C431.165 220.956 431.148 217.849 431.247 214.508C431.252 214.131 431.257 213.721 431.298 213.347L431.3 213.21C431.302 213.138 431.304 213.068 431.305 212.996C431.401 209.27 431.596 205.352 431.822 201.468C431.966 199.027 432.131 196.611 432.323 194.296C432.82 188.32 433.491 183.005 434.378 179.645C435.828 174.168 439.026 170.596 441.936 167.978L444.041 166.172C446.39 166.685 449.168 166.345 451.679 165.155C454.398 163.864 455.337 162.939 455.811 163.288C462.09 168.132 466.606 182.976 465.434 199.286Z" fill="#292B2D"/>
<path d="M442.542 235.133C436.837 233.367 430.621 230.845 429.955 228.972C429.929 228.898 429.907 228.826 429.893 228.756C429.896 228.495 429.9 228.233 429.905 227.972C430.127 227.017 430.984 225.984 431.085 223.621C431.198 220.983 431.181 217.876 431.28 214.535C431.285 214.158 431.29 213.748 431.331 213.374L431.333 213.237C431.335 213.165 431.336 213.095 431.338 213.023L452.885 203.25C452.885 203.25 454.127 220.617 442.542 235.133Z" fill="#292B2D"/>
<path d="M442.953 159.37C442.953 159.37 443.073 161.336 443.735 164.718C448.9 163.049 451.243 158.384 452.025 156.405C452.248 155.846 452.344 155.5 452.344 155.5C452.344 155.5 452.144 155.457 451.799 155.384C451.072 155.23 449.705 154.94 448.242 154.631L442.953 159.37Z" fill="#FFDBD9"/>
<path d="M440.862 159.318C440.862 159.318 452.21 160.598 452.898 153.519C453.586 146.439 455.515 141.837 448.298 140.72C441.082 139.604 439.409 142.168 438.605 144.475C437.8 146.782 437.927 158.802 440.862 159.318Z" fill="#FFDBD9"/>
<path d="M452.849 154.007C452.849 154.007 452.13 144.609 441.8 143.636C434.724 142.97 438.669 136.88 439.423 135.909C439.423 135.909 444.844 136.652 450.401 137.57C462.064 139.497 453.995 152.544 452.849 154.007Z" fill="#163560"/>
<path d="M389.468 196.245L388.475 196.568L396.923 222.58L397.917 222.257L389.468 196.245Z" fill="#4A75CB"/>
<path d="M425.622 220.185L396.928 220.799L396.965 222.515L425.659 221.901L425.622 220.185Z" fill="#4A75CB"/>
<path d="M422.499 218.651C422.499 218.651 418.046 220.336 415.035 219.782C412.023 219.227 407.168 221.225 406.479 222.377C405.789 223.529 406.132 223.919 407.614 224.125C409.096 224.332 414.443 225.944 417.659 224.311C420.875 222.679 425.246 222.147 425.246 222.147L422.499 218.651Z" fill="#FFDBD9"/>
<path d="M457.697 174.439C457.697 174.439 456.607 211.607 448.445 215.831C444.417 217.915 426.23 223.644 420.772 224.622C420.772 224.622 419.303 223.678 419.138 219.193C419.138 219.193 437.824 209.881 440.16 205.684C443.637 199.439 434.98 182.321 439.546 176.311C444.111 170.301 452.556 166.999 457.697 174.439Z" fill="#292B2D"/>
<path d="M583.275 324.226H1.4695C1.15728 324.226 0.901978 323.97 0.901978 323.658C0.901978 323.346 1.15752 323.09 1.4695 323.09H583.275C583.587 323.09 583.842 323.346 583.842 323.658C583.842 323.97 583.587 324.226 583.275 324.226Z" fill="#454A51"/>
</svg>
