<svg width="848" height="837" viewBox="0 0 848 837" fill="none" xmlns="http://www.w3.org/2000/svg">
<g filter="url(#filter0_d_25_4)">
<path d="M808.341 559.314C728.767 746.678 516.801 851.64 332.984 823.327C303.073 818.72 221.072 804.996 148.471 740.251C8.70977 615.612 -21.1791 368.812 91.562 194.885C173.618 68.2975 320.711 -3.46094 460.479 0.128526C490.585 0.901563 605.963 5.66657 707.361 89.2772C722.254 101.558 755.103 130.74 784.708 177.036C854.224 285.748 860.2 437.206 808.341 559.314Z" fill="#454A51"/>
<path d="M313.054 273.212C312.504 273.171 311.983 272.866 311.69 272.349C310.581 270.392 309.412 268.44 308.215 266.547C307.71 265.748 307.948 264.691 308.748 264.185C309.547 263.682 310.604 263.92 311.11 264.717C312.336 266.657 313.534 268.656 314.67 270.66C315.136 271.483 314.847 272.528 314.025 272.995C313.718 273.168 313.381 273.237 313.054 273.212Z" fill="white"/>
<path d="M177.022 488.067C174.433 487.906 171.776 487.607 169.191 487.275C168.252 487.153 167.591 486.295 167.712 485.357C167.833 484.419 168.696 483.781 169.629 483.877C172.152 484.205 174.769 484.457 177.276 484.653C179.134 484.791 181.035 484.893 182.93 484.957C183.898 484.921 184.616 485.781 184.584 486.726C184.553 487.671 183.76 488.411 182.816 488.379C180.874 488.315 178.925 488.21 177.022 488.067ZM204.661 487.431C203.86 487.371 203.189 486.753 203.09 485.927C202.978 484.988 203.648 484.136 204.587 484.024C208.853 483.514 213.16 482.799 217.39 481.903L217.758 481.825C218.68 481.628 219.591 482.22 219.787 483.143C219.984 484.068 219.393 484.978 218.468 485.174L218.1 485.252C213.77 486.171 209.361 486.901 204.993 487.424C204.881 487.437 204.769 487.439 204.661 487.431ZM239.019 478.999C238.378 478.951 237.789 478.542 237.546 477.9C237.21 477.016 237.655 476.027 238.538 475.692C242.694 474.112 246.811 472.322 250.777 470.371C251.624 469.957 252.652 470.303 253.068 471.153C253.486 472.001 253.136 473.027 252.288 473.445C248.226 475.443 244.009 477.275 239.755 478.891C239.512 478.984 239.262 479.017 239.019 478.999ZM270.28 462.46C269.785 462.423 269.31 462.173 269.003 461.734C268.461 460.959 268.65 459.892 269.424 459.349C273.052 456.81 276.603 454.067 279.981 451.194C280.701 450.582 281.78 450.671 282.394 451.389C283.007 452.111 282.92 453.191 282.199 453.804C278.741 456.745 275.103 459.554 271.388 462.155C271.052 462.39 270.66 462.488 270.28 462.46ZM296.538 438.769C296.184 438.742 295.836 438.606 295.547 438.356C294.831 437.736 294.755 436.655 295.374 435.941C298.273 432.594 301.051 429.068 303.632 425.457C304.18 424.689 305.249 424.509 306.02 425.061C306.789 425.611 306.967 426.681 306.417 427.449C303.776 431.145 300.931 434.756 297.961 438.183C297.593 438.607 297.06 438.808 296.538 438.769ZM316.265 409.4C316.047 409.384 315.828 409.326 315.62 409.22C314.776 408.793 314.439 407.762 314.866 406.919C316.872 402.962 318.713 398.866 320.338 394.745C320.685 393.864 321.681 393.437 322.559 393.781C323.439 394.128 323.87 395.123 323.524 396.002C321.86 400.221 319.975 404.416 317.921 408.467C317.599 409.103 316.934 409.45 316.265 409.4ZM328.276 376.125C328.192 376.119 328.107 376.106 328.022 376.088C327.101 375.878 326.522 374.962 326.731 374.04C327.712 369.708 328.498 365.285 329.066 360.896C329.187 359.958 330.049 359.268 330.984 359.418C331.921 359.538 332.583 360.398 332.462 361.334C331.88 365.831 331.075 370.36 330.071 374.795C329.881 375.633 329.107 376.187 328.276 376.125ZM331.771 340.908C330.904 340.843 330.211 340.131 330.188 339.244C330.078 334.814 329.755 330.335 329.229 325.93C329.117 324.991 329.787 324.139 330.726 324.026C331.669 323.912 332.518 324.586 332.63 325.523C333.168 330.035 333.499 334.622 333.612 339.158C333.636 340.103 332.889 340.889 331.943 340.912C331.885 340.913 331.828 340.912 331.771 340.908ZM326.574 305.905C325.873 305.853 325.249 305.371 325.051 304.653C323.868 300.365 322.472 296.097 320.906 291.967C320.571 291.083 321.015 290.095 321.9 289.759C322.781 289.427 323.773 289.867 324.108 290.754C325.712 294.981 327.139 299.351 328.351 303.743C328.603 304.653 328.068 305.596 327.156 305.848C326.961 305.902 326.765 305.919 326.574 305.905Z" fill="white"/>
<path d="M147.729 482.799C147.612 482.791 147.495 482.77 147.377 482.736C145.177 482.097 142.955 481.397 140.775 480.652C139.88 480.347 139.402 479.374 139.707 478.478C140.012 477.582 140.987 477.095 141.88 477.412C144.011 478.139 146.181 478.824 148.332 479.448C149.239 479.711 149.762 480.661 149.499 481.568C149.27 482.359 148.519 482.858 147.729 482.799Z" fill="white"/>
<path d="M59.8005 410.767C59.2278 410.724 58.6904 410.396 58.4063 409.848C57.3561 407.823 56.333 405.73 55.3641 403.624C54.9688 402.764 55.3456 401.748 56.2041 401.353C57.0663 400.958 58.08 401.335 58.4754 402.193C59.4207 404.25 60.4201 406.295 61.4461 408.271C61.8815 409.11 61.5538 410.144 60.715 410.579C60.4228 410.731 60.1064 410.79 59.8005 410.767Z" fill="white"/>
<path d="M49.2824 384.381C48.5889 384.329 47.9687 383.855 47.765 383.148C46.7958 379.782 45.9337 376.334 45.2049 372.903C45.0048 371.958 44.8143 371.015 44.6322 370.072C44.4534 369.143 45.0619 368.246 45.9899 368.068C46.9238 367.886 47.8165 368.497 47.9953 369.424C48.172 370.346 48.3589 371.269 48.5542 372.192C49.2662 375.543 50.1084 378.911 51.0548 382.199C51.3165 383.107 50.792 384.057 49.8841 384.318C49.6825 384.377 49.4801 384.395 49.2824 384.381ZM43.698 350.018C42.8427 349.954 42.1528 349.257 42.1175 348.381C41.936 343.918 41.962 339.393 42.1953 334.932C42.244 333.988 43.0493 333.262 43.9937 333.31C44.9031 333.37 45.6645 334.165 45.6143 335.11C45.387 339.467 45.3616 343.885 45.5386 348.241C45.5769 349.186 44.8427 349.983 43.8974 350.021C43.8302 350.025 43.7641 350.023 43.698 350.018ZM46.5309 315.315C46.4576 315.309 46.3837 315.299 46.3101 315.285C45.3837 315.093 44.7883 314.187 44.9791 313.261C45.8807 308.886 46.9986 304.501 48.3015 300.231C48.5769 299.326 49.5396 298.82 50.4388 299.093C51.3428 299.368 51.8533 300.325 51.577 301.23C50.3048 305.401 49.2133 309.68 48.3326 313.954C48.1568 314.806 47.3763 315.378 46.5309 315.315ZM57.6348 282.322C57.4278 282.307 57.2215 282.254 57.0241 282.159C56.1709 281.752 55.8094 280.731 56.2167 279.877C58.1422 275.846 60.2775 271.859 62.5634 268.024C63.0466 267.212 64.0963 266.941 64.9106 267.43C65.7228 267.913 65.9889 268.964 65.5042 269.776C63.2721 273.521 61.1874 277.416 59.3076 281.352C58.9936 282.008 58.3175 282.373 57.6348 282.322ZM76.301 252.942C75.9625 252.916 75.6281 252.791 75.3452 252.559C74.6138 251.959 74.5064 250.881 75.106 250.15C77.9323 246.699 80.9563 243.337 84.0939 240.154C84.7569 239.483 85.8406 239.473 86.5146 240.137C87.1887 240.801 87.1956 241.885 86.5317 242.559C83.4689 245.667 80.5149 248.951 77.7544 252.32C77.3868 252.768 76.8387 252.982 76.301 252.942ZM101.445 228.879C100.968 228.844 100.509 228.61 100.2 228.198C99.6338 227.44 99.7887 226.366 100.546 225.801C104.115 223.13 107.858 220.592 111.669 218.258C112.476 217.765 113.529 218.018 114.023 218.824C114.517 219.629 114.264 220.684 113.458 221.178C109.736 223.458 106.082 225.936 102.596 228.543C102.252 228.8 101.842 228.909 101.445 228.879ZM131.637 211.578C131.016 211.532 130.442 211.149 130.185 210.534C129.818 209.663 130.227 208.66 131.098 208.292C135.212 206.56 139.457 205.001 143.716 203.654C144.62 203.368 145.579 203.87 145.864 204.772C146.15 205.673 145.65 206.635 144.748 206.92C140.589 208.234 136.444 209.757 132.427 211.449C132.168 211.557 131.899 211.598 131.637 211.578ZM165.107 202.03C164.334 201.972 163.673 201.391 163.545 200.592C163.396 199.659 164.032 198.781 164.966 198.632C169.378 197.927 173.874 197.419 178.328 197.121C179.264 197.064 180.087 197.772 180.151 198.716C180.214 199.66 179.5 200.475 178.556 200.539C174.206 200.83 169.815 201.325 165.506 202.013C165.371 202.034 165.238 202.04 165.107 202.03ZM213.073 202.467C213.014 202.462 212.955 202.455 212.896 202.445C208.597 201.673 204.217 201.096 199.879 200.731C198.937 200.651 198.237 199.823 198.317 198.88C198.396 197.944 199.215 197.247 200.15 197.317C200.155 197.317 200.161 197.318 200.167 197.318C204.611 197.694 209.097 198.285 213.5 199.073C214.431 199.241 215.05 200.131 214.883 201.061C214.727 201.933 213.937 202.531 213.073 202.467Z" fill="white"/>
<path d="M240.468 210.246C240.3 210.234 240.131 210.196 239.965 210.132C237.886 209.309 235.75 208.524 233.62 207.798C232.724 207.494 232.246 206.521 232.551 205.626C232.855 204.732 233.831 204.243 234.724 204.558C236.906 205.301 239.093 206.104 241.225 206.946C242.104 207.293 242.535 208.288 242.188 209.167C241.905 209.882 241.196 210.3 240.468 210.246Z" fill="white"/>
<path d="M241.022 245.56C240.417 245.138 239.61 245.147 239.014 245.583L222.014 257.993C212.879 254.365 203.099 252.167 192.997 251.633L182.741 233.268C182.382 232.624 181.653 232.279 180.926 232.409L156.075 236.86C155.349 236.991 154.785 237.567 154.671 238.295L151.428 259.079C142.14 263.086 133.732 268.542 126.424 275.116L106.173 269.378C105.463 269.177 104.704 269.449 104.282 270.054L89.8573 290.774C89.4353 291.38 89.4446 292.186 89.8797 292.782L102.29 309.782C98.6618 318.917 96.4644 328.697 95.93 338.799L77.5649 349.055C76.9208 349.414 76.5757 350.143 76.7058 350.869L81.1574 375.721C81.2875 376.447 81.864 377.011 82.5931 377.125L103.376 380.368C107.384 389.656 112.839 398.064 119.414 405.372L113.676 425.623C113.475 426.333 113.746 427.092 114.352 427.514L135.072 441.938C135.677 442.36 136.484 442.351 137.08 441.916L154.08 429.506C163.215 433.134 172.995 435.332 183.096 435.866L193.352 454.231C193.712 454.875 194.441 455.22 195.167 455.09L220.019 450.639C220.745 450.508 221.308 449.932 221.422 449.203L224.665 428.42C233.953 424.412 242.362 418.956 249.67 412.382L269.921 418.12C270.63 418.321 271.39 418.05 271.812 417.444L286.236 396.724C286.657 396.118 286.649 395.312 286.214 394.716L273.804 377.716C277.432 368.581 279.63 358.801 280.164 348.699L298.529 338.443C299.173 338.084 299.518 337.355 299.388 336.629L294.936 311.778C294.806 311.051 294.23 310.487 293.501 310.374L272.718 307.13C268.71 297.843 263.254 289.434 256.681 282.126L262.418 261.875C262.619 261.165 262.348 260.406 261.742 259.984L241.022 245.56Z" fill="#333539"/>
<path d="M186.219 368.68C183.856 368.504 181.503 367.986 179.224 367.127C172.98 364.769 168.027 360.123 165.279 354.041C162.53 347.959 162.313 341.171 164.67 334.927C167.026 328.683 171.673 323.731 177.755 320.981C183.836 318.233 190.625 318.019 196.869 320.373C203.113 322.73 208.066 327.377 210.815 333.459C213.564 339.541 213.78 346.329 211.423 352.573C209.067 358.817 204.42 363.768 198.338 366.518C194.477 368.264 190.33 368.987 186.219 368.68ZM189.498 323.943C186.232 323.7 182.938 324.275 179.87 325.662C169.897 330.169 165.451 341.951 169.959 351.925C172.143 356.756 176.078 360.448 181.038 362.321C186 364.194 191.392 364.023 196.223 361.836C201.054 359.653 204.746 355.719 206.619 350.758C208.49 345.798 208.319 340.405 206.135 335.574C203.95 330.743 200.016 327.051 195.055 325.178C193.244 324.495 191.375 324.084 189.498 323.943Z" fill="white"/>
<path d="M182.941 407.543C171.754 406.709 160.952 402.897 151.504 396.319C137.587 386.63 128.275 372.101 125.285 355.409C124.324 350.046 124.053 344.666 124.449 339.372C125.284 328.187 129.097 317.387 135.673 307.941C145.361 294.023 159.891 284.711 176.584 281.72C177.019 281.643 177.456 281.569 177.893 281.501C181.483 280.934 185.113 280.673 188.717 280.723C189.167 280.728 189.616 280.739 190.064 280.755L189.884 285.888C185.763 285.743 181.593 286.042 177.489 286.777C162.963 289.378 150.22 297.189 141.348 308.869C140.849 309.526 140.362 310.195 139.888 310.876C133.844 319.557 130.341 329.483 129.572 339.762C129.208 344.629 129.458 349.574 130.341 354.502C133.089 369.844 141.647 383.199 154.439 392.103C167.23 401.01 182.725 404.4 198.067 401.65C224.805 396.861 244.045 374.46 245.975 348.542C246.332 343.76 246.099 338.859 245.215 333.925C243.35 323.513 238.708 313.819 231.793 305.89L235.664 302.514C243.191 311.142 248.242 321.692 250.271 333.018C251.233 338.386 251.486 343.718 251.099 348.922C248.997 377.123 228.064 401.495 198.973 406.707C193.612 407.668 188.233 407.938 182.941 407.543Z" fill="white"/>
<path d="M499.175 206.788C498.407 206.731 497.685 206.286 497.311 205.548C495.966 202.906 494.485 200.302 492.907 197.806C492.234 196.742 492.551 195.334 493.616 194.661C494.68 193.991 496.089 194.308 496.762 195.37C498.414 197.983 499.967 200.713 501.375 203.48C501.947 204.603 501.499 205.974 500.377 206.547C499.991 206.742 499.577 206.818 499.175 206.788Z" fill="white"/>
<path d="M418.228 349.876C417.119 349.793 416.208 348.908 416.127 347.765C416.037 346.509 416.982 345.418 418.238 345.328C422.651 345.012 427.106 344.383 431.481 343.452C433.025 343.125 434.55 342.761 436.059 342.367C437.278 342.045 438.524 342.774 438.844 343.993C439.164 345.211 438.435 346.456 437.217 346.776C435.64 347.192 434.044 347.569 432.428 347.913C427.85 348.886 423.185 349.547 418.564 349.877C418.45 349.886 418.338 349.884 418.228 349.876ZM463.95 334.912C463.255 334.86 462.591 334.492 462.191 333.856C461.518 332.79 461.836 331.383 462.901 330.71C467.98 327.503 472.787 323.791 477.186 319.678C478.105 318.818 479.546 318.865 480.408 319.787C481.269 320.706 481.22 322.15 480.3 323.01C475.692 327.317 470.658 331.204 465.335 334.567C464.906 334.838 464.42 334.947 463.95 334.912ZM497.11 300.076C496.785 300.052 496.46 299.958 496.157 299.786C495.061 299.166 494.676 297.775 495.297 296.678C498.265 291.436 500.752 285.892 502.689 280.2C503.096 279.009 504.385 278.364 505.583 278.777C506.775 279.183 507.412 280.477 507.007 281.67C504.978 287.63 502.373 293.435 499.265 298.926C498.816 299.719 497.963 300.14 497.11 300.076ZM509.886 253.699C508.686 253.609 507.752 252.595 507.778 251.378C507.905 245.379 507.46 239.319 506.459 233.367C506.25 232.123 507.088 230.949 508.33 230.74C509.569 230.52 510.748 231.367 510.957 232.609C512.005 238.843 512.469 245.19 512.337 251.473C512.311 252.732 511.269 253.731 510.011 253.706C509.968 253.705 509.927 253.702 509.886 253.699Z" fill="white"/>
<path d="M388.263 347.394C388.141 347.385 388.018 347.367 387.895 347.337C384.878 346.61 381.865 345.733 378.94 344.731C377.748 344.322 377.114 343.027 377.521 341.834C377.929 340.645 379.224 340.011 380.417 340.415C383.209 341.372 386.084 342.209 388.965 342.902C390.189 343.199 390.943 344.43 390.647 345.653C390.381 346.755 389.357 347.475 388.263 347.394Z" fill="white"/>
<path d="M323.826 296.981C323.063 296.924 322.347 296.487 321.969 295.757C320.547 293.014 319.233 290.163 318.064 287.28C317.591 286.115 318.154 284.784 319.32 284.31C320.486 283.837 321.816 284.401 322.29 285.568C323.405 288.317 324.66 291.039 326.018 293.657C326.598 294.774 326.161 296.151 325.044 296.731C324.655 296.934 324.233 297.012 323.826 296.981Z" fill="white"/>
<path d="M313.105 260.032C312.011 259.951 311.105 259.086 311.006 257.958C310.534 252.568 310.497 247.101 310.9 241.71C310.959 240.921 311.026 240.134 311.105 239.349C311.229 238.097 312.377 237.258 313.599 237.304C314.852 237.429 315.767 238.547 315.642 239.799C315.568 240.548 315.503 241.296 315.447 242.049C315.063 247.196 315.098 252.415 315.549 257.559C315.66 258.814 314.732 259.919 313.476 260.031C313.351 260.042 313.226 260.041 313.105 260.032ZM320.465 213.291C320.224 213.273 319.983 213.217 319.748 213.117C318.588 212.629 318.044 211.291 318.534 210.13C320.942 204.427 323.893 198.913 327.305 193.737C327.999 192.688 329.411 192.398 330.464 193.091C331.515 193.783 331.806 195.198 331.112 196.249C327.853 201.189 325.035 206.458 322.736 211.904C322.345 212.829 321.415 213.362 320.465 213.291ZM348.74 175.357C348.142 175.312 347.561 175.032 347.149 174.532C346.349 173.559 346.488 172.123 347.461 171.323C352.243 167.388 357.422 163.876 362.855 160.885C363.957 160.279 365.344 160.682 365.952 161.784C366.558 162.888 366.157 164.273 365.053 164.881C359.867 167.736 354.924 171.087 350.358 174.843C349.887 175.233 349.305 175.399 348.74 175.357ZM391.438 154.994C390.448 154.92 389.586 154.201 389.375 153.181C389.121 151.947 389.915 150.74 391.149 150.486C397.243 149.231 403.46 148.534 409.628 148.414C410.914 148.338 411.928 149.387 411.954 150.648C411.978 151.907 410.978 152.947 409.719 152.971C403.828 153.087 397.89 153.754 392.068 154.953C391.856 154.998 391.644 155.009 391.438 154.994Z" fill="white"/>
<path d="M447.42 159.805C447.196 159.788 446.971 159.738 446.751 159.653C444 158.565 441.166 157.594 438.328 156.771C437.119 156.419 436.424 155.152 436.775 153.944C437.126 152.735 438.389 152.037 439.602 152.391C442.574 153.256 445.544 154.27 448.427 155.41C449.598 155.873 450.173 157.197 449.709 158.368C449.333 159.32 448.389 159.877 447.42 159.805Z" fill="white"/>
<path d="M447.879 182.857C447.465 182.568 446.914 182.574 446.506 182.872L434.876 191.362C428.627 188.88 421.936 187.376 415.026 187.011L408.01 174.447C407.764 174.007 407.265 173.771 406.768 173.86L389.768 176.905C389.271 176.994 388.885 177.389 388.807 177.887L386.589 192.105C380.235 194.847 374.482 198.579 369.483 203.076L355.629 199.151C355.144 199.014 354.625 199.199 354.336 199.613L344.468 213.788C344.18 214.202 344.186 214.754 344.484 215.162L352.974 226.791C350.492 233.04 348.989 239.731 348.623 246.641L336.06 253.658C335.619 253.904 335.383 254.402 335.472 254.899L338.517 271.9C338.606 272.397 339.001 272.782 339.499 272.86L353.717 275.079C356.459 281.433 360.191 287.185 364.688 292.184L360.763 306.038C360.625 306.523 360.811 307.043 361.225 307.331L375.4 317.199C375.814 317.488 376.366 317.481 376.774 317.184L388.403 308.694C394.652 311.176 401.343 312.679 408.253 313.045L415.269 325.608C415.515 326.048 416.014 326.285 416.511 326.196L433.512 323.15C434.009 323.062 434.394 322.667 434.471 322.168L436.69 307.951C443.044 305.209 448.797 301.477 453.796 296.979L467.649 300.905C468.135 301.042 468.655 300.856 468.943 300.442L478.811 286.267C479.099 285.853 479.093 285.302 478.795 284.894L470.305 273.264C472.787 267.015 474.291 260.325 474.656 253.414L487.22 246.398C487.66 246.152 487.896 245.653 487.807 245.157L484.762 228.156C484.673 227.659 484.278 227.274 483.78 227.195L469.562 224.977C466.82 218.623 463.088 212.871 458.591 207.871L462.516 194.017C462.654 193.532 462.468 193.013 462.054 192.724L447.879 182.857Z" fill="#333539"/>
<path d="M410.275 268.73C403.643 268.236 397.474 264.227 394.549 257.754C390.288 248.33 394.49 237.198 403.913 232.935H403.914C413.338 228.677 424.472 232.88 428.73 242.302C432.99 251.725 428.789 262.858 419.366 267.12C416.415 268.452 413.297 268.956 410.275 268.73ZM406.732 239.17C400.745 241.876 398.075 248.949 400.781 254.937C403.488 260.922 410.559 263.594 416.548 260.886C422.534 258.18 425.204 251.106 422.498 245.119C419.791 239.136 412.72 236.462 406.732 239.17Z" fill="white"/>
<path d="M408.02 295.328C400.074 294.737 392.402 292.027 385.69 287.355C375.804 280.473 369.19 270.154 367.067 258.297C366.384 254.488 366.191 250.667 366.472 246.905C367.066 238.962 369.774 231.292 374.445 224.582C381.327 214.695 391.648 208.081 403.505 205.956C406.671 205.389 409.892 205.158 413.079 205.271L412.837 212.108C410.136 212.011 407.401 212.207 404.711 212.689C395.091 214.414 386.663 219.622 380.839 227.408C380.752 227.525 380.666 227.641 380.58 227.76C380.403 228.001 380.23 228.243 380.058 228.489C376.096 234.182 373.799 240.689 373.295 247.429C373.056 250.617 373.221 253.86 373.799 257.09C375.601 267.15 381.212 275.904 389.599 281.742C397.986 287.584 408.143 289.811 418.2 288.001C428.259 286.2 437.013 280.59 442.852 272.204C446.814 266.511 449.111 260.004 449.615 253.264C449.854 250.076 449.689 246.833 449.111 243.603C447.887 236.775 444.846 230.419 440.313 225.224L445.467 220.727C450.814 226.856 454.401 234.347 455.844 242.395C456.526 246.204 456.719 250.026 456.438 253.787C455.844 261.73 453.137 269.401 448.465 276.11C441.583 285.998 431.263 292.611 419.406 294.736C415.6 295.416 411.778 295.609 408.02 295.328Z" fill="white"/>
<path d="M349.765 664.459C290.489 651.387 335.144 563.454 337.248 560.049L231.02 597.351C231.02 597.351 221.534 648.472 287.638 695.517C304.363 707.419 321.284 712.55 337.237 713.597C336.147 693.078 342.225 676.673 349.765 664.459Z" fill="#4E4D56"/>
<path d="M470.422 668.506C453.005 647.22 424.104 655.324 424.104 655.324C389.664 666.05 365.884 668.013 349.765 664.459C342.225 676.672 336.148 693.077 337.238 713.597C371.756 715.863 401.727 698.944 415.277 689.743C420.155 686.431 426.817 687.509 430.269 692.29C433.775 697.147 436.774 703.286 434.514 708.206C430.055 717.907 440.913 724.484 442.848 721.057C444.783 717.629 446.077 694.412 446.077 694.412C446.077 694.412 462.888 724.798 469.492 736.514C476.095 748.232 490.246 742.421 490.246 742.421C490.246 742.421 487.839 689.792 470.422 668.506Z" fill="url(#paint0_linear_25_4)"/>
<path d="M113.321 441.086C113.321 441.086 187.909 382.328 383.532 465.903C383.532 465.903 404.689 489.24 397.481 517.679C390.273 546.119 288.394 704.353 288.887 775.32C288.887 775.32 215.278 825.74 112.629 787.811C112.629 787.811 66.4245 603.506 113.321 441.086Z" fill="#FFFAA8"/>
<path d="M271.585 361.645L244.82 424.365C242.163 430.592 243.304 437.83 247.881 442.82C257.129 452.905 275.89 466.025 305.596 454.699C314.432 451.33 320.834 443.514 322.38 434.184L333.766 365.445L271.585 361.645Z" fill="url(#paint1_linear_25_4)"/>
<path d="M111.502 676.486C89.9131 639.399 163.094 520.992 163.094 520.992L113.322 441.086C113.322 441.086 -59.2857 647.241 29.2759 746.065C41.972 760.232 55.7882 768.706 70.1389 772.868C73.7227 721.241 94.9888 691.786 111.502 676.486Z" fill="#FFFAA8"/>
<path d="M109.718 676.44C108.663 676.751 107.492 676.318 106.913 675.322C84.8376 637.404 155.522 522.197 158.54 517.31C159.249 516.164 160.755 515.803 161.911 516.513C163.061 517.224 163.417 518.735 162.708 519.885C161.983 521.056 90.5381 637.46 111.147 672.858C111.827 674.027 111.43 675.527 110.261 676.207C110.088 676.308 109.905 676.385 109.718 676.44Z" fill="#4E4D56"/>
<path d="M285.04 672.401C271.797 676.073 259.475 682.659 246.169 686.046C231.393 689.807 216.786 694.226 201.907 697.576C178.759 702.788 148.303 708.762 127.974 692.852C126.259 691.51 112.474 675.925 111.502 676.486C74.5903 697.811 67.4123 747.646 67.4123 771.823C134.71 808.622 240.549 736.966 269.06 716.025C273.75 712.58 279.557 711.088 285.323 711.878C296.981 713.476 317.077 715.625 327.674 713.243C343.177 709.76 369.456 763.488 393.685 744.707C393.685 744.707 365.377 650.128 285.04 672.401Z" fill="url(#paint2_linear_25_4)"/>
<path d="M358.321 272.995C358.321 272.995 375.223 327.732 373.693 355.301C372.163 382.871 376.084 401.308 343.788 403.292C311.492 405.276 286.564 386.517 275.149 357.611C275.149 357.611 257.186 313.029 264.189 296.373C271.192 279.717 358.321 272.995 358.321 272.995Z" fill="url(#paint3_linear_25_4)"/>
<path d="M288.164 339.196L292.169 339.642C292.169 339.642 279.442 303.954 294.605 299.624C309.768 295.295 368.509 289.989 383.174 270.991C397.312 252.677 389.488 226.11 374.34 217.23C373.382 216.668 372.14 217.01 371.515 217.929L369.916 220.28C368.821 221.89 366.323 221.349 365.992 219.43C365.679 217.61 363.344 216.96 362.201 218.41C357.728 224.081 346.351 232.846 318.235 234.858C278.34 237.712 250.734 250.65 247.085 277.594C246.854 279.301 244.919 280.04 243.557 278.987C240.867 276.906 236.341 275.565 229.59 280.067C217.85 287.895 219.631 311.797 241.012 333.679C242.028 334.719 241.824 336.464 240.526 337.117C235.95 339.418 228.856 345.316 244.35 355.961C260.199 366.851 270.283 366.981 274.155 366.437C275.197 366.291 275.981 365.444 276.033 364.393L277.224 340.288C277.286 339.041 278.386 338.104 279.627 338.243L288.164 339.196Z" fill="url(#paint4_linear_25_4)"/>
<path d="M288.589 344.314C288.589 344.314 283.64 310.001 267.646 317.683C251.653 325.365 271.237 355.911 283.117 358.5L288.589 344.314Z" fill="url(#paint5_linear_25_4)"/>
<path d="M236.096 776.372C236.303 776.379 236.511 776.381 236.72 776.377L508.306 772.174C515.02 772.072 520.356 766.821 520.224 760.448C520.093 754.072 514.521 748.884 507.828 749.095L236.241 753.297C229.528 753.399 224.193 758.65 224.324 765.024C224.452 771.199 229.666 776.163 236.096 776.372Z" fill="#292B2D"/>
<path d="M341.806 378.76C293.418 382.864 253.829 344.975 253.55 344.406V335.867C253.818 336.41 295.532 378.519 341.527 374.618L341.806 378.76Z" fill="url(#paint6_linear_25_4)"/>
<path d="M361.532 376.661C361.532 379.881 359.207 382.492 356.34 382.492H342.493C339.626 382.492 337.301 379.881 337.301 376.661C337.301 373.441 339.626 370.831 342.493 370.831H356.34C359.207 370.831 361.532 373.441 361.532 376.661Z" fill="url(#paint7_linear_25_4)"/>
<path d="M278.273 292.898C278.273 292.898 267.222 233.937 335.386 233.605C336.329 233.601 336.486 232.248 335.567 232.036C316.894 227.733 262.695 221.362 261.878 292.117C272.264 295.857 278.273 292.898 278.273 292.898Z" fill="url(#paint8_linear_25_4)"/>
<path d="M265.782 285.706C239.182 291.104 242.452 324.743 242.452 324.743C240.535 349.155 247.66 361.257 256.791 367.023C263.028 370.963 270.881 371.328 277.466 368.005C284.052 364.681 288.413 358.147 288.957 350.79C289.448 344.147 290.01 337.832 290.504 335.589C291.698 330.154 292.383 280.306 265.782 285.706Z" fill="url(#paint9_linear_25_4)"/>
<path d="M268.226 294.212C262.704 293.252 257.258 296.186 255.037 301.332C239.139 338.161 258.659 362.118 268.241 362.617C278.341 363.143 278.136 314.553 275.992 302.096C275.093 296.877 271.776 294.829 268.226 294.212Z" fill="url(#paint10_linear_25_4)"/>
<path d="M18.2087 785.658C17.7554 782.303 18.3726 778.834 19.8909 776.199C21.4091 773.563 23.6705 772.037 26.0563 772.037H834.288C837.425 772.037 840.346 774.327 842.037 778.113C843.728 781.898 843.954 786.656 842.638 790.735L833.88 817.879C831.874 824.096 827.528 828.076 822.747 828.076H31.6024C27.1541 828.076 23.3305 823.559 22.486 817.304L18.2087 785.658Z" fill="#2C3035"/>
<path d="M445.596 463.601C441.031 500.904 420.493 652.467 414.615 695.772C413.788 701.863 418.625 707.219 424.769 707.043L773.164 697.073C777.723 696.943 781.611 693.731 782.6 689.279L836.796 445.209C838.228 438.756 833.092 432.724 826.493 433.11L454.897 454.876C450.092 455.157 446.181 458.824 445.596 463.601Z" fill="#FFFAA8"/>
<path d="M585.639 616.659L534.148 762.805L653.877 765.344L663.846 617.536C664.314 610.6 658.562 604.842 651.625 605.303L595.711 609.015C591.127 609.32 587.165 612.326 585.639 616.659Z" fill="#292B2D"/>
<path d="M654.812 766.364L653.855 766.345L532.744 763.778L584.694 616.326C586.356 611.61 590.654 608.348 595.645 608.016L651.558 604.303C655.162 604.072 658.674 605.389 661.22 607.937C663.767 610.487 665.088 614.01 664.846 617.604L654.812 766.364ZM535.552 761.834L652.942 764.322L662.847 617.469C663.051 614.452 661.941 611.493 659.804 609.353C657.666 607.213 654.712 606.105 651.691 606.302L595.778 610.014C591.587 610.293 587.978 613.032 586.583 616.991L535.552 761.834Z" fill="#91B3FA" fill-opacity="0.37"/>
<path d="M485.608 764.887C484.288 768.908 487.284 773.044 491.516 773.044H679.018C682.453 773.044 685.237 770.26 685.237 766.826V758.784C685.237 755.245 682.288 752.42 678.752 752.571L491.249 760.613C488.663 760.724 486.415 762.427 485.608 764.887Z" fill="#292B2D"/>
<path d="M440.333 617.788L437.862 617.477L454.98 482.48C456.041 474.105 462.925 467.661 471.349 467.152L792.468 447.76L792.619 450.246L471.5 469.639C464.27 470.074 458.361 475.606 457.452 482.792L440.333 617.788Z" fill="#4E4D56"/>
<path d="M432.959 655.989L429.274 685.216L431.745 685.528L435.431 656.301L432.959 655.989Z" fill="#4E4D56"/>
<path d="M551.521 105.055V180.215C551.521 189.145 558.538 196.499 567.458 196.918L661.448 201.335C670.981 201.782 678.955 194.174 678.955 184.631V105.055C678.955 95.8196 671.468 88.333 662.233 88.333H568.243C559.008 88.3333 551.521 95.8196 551.521 105.055Z" fill="#FFFAA8"/>
<path d="M587.396 125.283L583.725 111.72L573.02 105.887L571.593 108.498L581.174 113.67L592.593 155.535L592.946 156.779H639.531C644.069 156.779 648.246 154.552 650.708 150.739L652.797 147.983C655.044 144.5 656.527 140.496 656.527 136.35V125.283H587.396ZM653.153 136.35C653.153 139.917 652.028 143.388 650.091 146.384L648.244 149.488C646.338 152.442 643.049 154.529 639.532 154.529H595.232L592.808 145.581L588.213 128.658H653.153V136.35Z" fill="black"/>
<path d="M650.247 171.966C650.247 172.791 649.575 173.652 648.747 173.652H594.087C593.259 173.652 592.409 172.358 592.409 171.533V145.759C592.409 145.475 592.577 145.534 592.715 145.308L595.23 154.529H595.784V170.277H648.747C649.575 170.277 650.247 171.138 650.247 171.966Z" fill="black"/>
<path d="M621.896 126.782H619.901V154.839H621.896V126.782Z" fill="black"/>
<path d="M604.272 126.782H602.277V154.839H604.272V126.782Z" fill="black"/>
<path d="M639.105 126.782H637.11V154.839H639.105V126.782Z" fill="black"/>
<path d="M653.865 135.035H588.969V136.819H653.865V135.035Z" fill="black"/>
<path d="M652.239 144.802H591.801V146.586H652.239V144.802Z" fill="black"/>
<path d="M601.088 175.577C597.528 175.577 594.643 178.463 594.643 182.022C594.643 185.581 597.528 188.467 601.088 188.467C604.647 188.467 607.532 185.581 607.532 182.022C607.532 178.463 604.647 175.577 601.088 175.577ZM601.088 185.912C598.939 185.912 597.198 184.17 597.198 182.022C597.198 179.874 598.939 178.132 601.088 178.132C603.236 178.132 604.977 179.874 604.977 182.022C604.978 184.17 603.236 185.912 601.088 185.912Z" fill="black"/>
<path d="M641.137 175.577C637.577 175.577 634.692 178.463 634.692 182.022C634.692 185.581 637.578 188.467 641.137 188.467C644.696 188.467 647.582 185.581 647.582 182.022C647.582 178.463 644.696 175.577 641.137 175.577ZM641.137 185.912C638.989 185.912 637.247 184.17 637.247 182.022C637.247 179.874 638.989 178.132 641.137 178.132C643.285 178.132 645.027 179.874 645.027 182.022C645.027 184.17 643.285 185.912 641.137 185.912Z" fill="black"/>
<path d="M579.657 108.488C579.657 110.161 578.302 111.516 576.63 111.516H566.554C564.882 111.516 563.526 110.161 563.526 108.488C563.526 106.816 564.882 105.46 566.554 105.46H576.63C578.302 105.46 579.657 106.816 579.657 108.488Z" fill="black"/>
<path d="M347.774 18.1627V98.7858C347.774 108.365 355.301 116.254 364.869 116.703L465.69 121.44C475.916 121.92 484.47 113.759 484.47 103.522V18.1627C484.47 8.25619 476.439 0.225586 466.533 0.225586H365.711C355.805 0.225586 347.774 8.25619 347.774 18.1627Z" fill="#FFFAA8"/>
<path d="M451.023 97.3227H381.544C376.337 97.3227 372.101 93.0864 372.101 87.8797V37.0695C372.101 31.8628 376.337 27.6265 381.544 27.6265H451.023C456.23 27.6265 460.466 31.8628 460.466 37.0695V87.8797C460.466 93.0864 456.23 97.3227 451.023 97.3227ZM381.544 33.849C379.768 33.849 378.324 35.2934 378.324 37.0692V87.8794C378.324 89.6551 379.768 91.0995 381.544 91.0995H451.023C452.799 91.0995 454.243 89.6548 454.243 87.8794V37.0695C454.243 35.2937 452.798 33.8493 451.023 33.8493L381.544 33.849Z" fill="black"/>
<path d="M416.344 63.5954C415.714 63.5954 415.083 63.4046 414.544 63.0215L375.611 35.4117C374.209 34.4183 373.879 32.476 374.873 31.074C375.868 29.6727 377.811 29.3425 379.211 30.3363L416.343 56.6686L452.991 30.6383C454.392 29.6428 456.334 29.9705 457.33 31.3731C458.326 32.7744 457.996 34.7167 456.595 35.7116L418.146 63.0206C417.607 63.404 416.976 63.5954 416.344 63.5954Z" fill="black"/>
<path d="M377.89 95.1496L376.989 88.9923L377.41 92.0751L374.803 90.3801C375.524 89.2213 389.566 64.6621 398.829 48.437C399.679 46.945 401.577 46.4223 403.073 47.2773C404.565 48.1287 405.084 50.0297 404.233 51.5217C404.233 51.5217 398.226 62.0427 392.208 72.5659C389.198 77.8285 386.185 83.092 383.919 87.0401C379.399 94.9137 379.399 94.9137 377.89 95.1496Z" fill="black"/>
<path d="M454.56 95.148C453.055 94.909 453.055 94.909 448.538 87.0402C446.272 83.0913 443.259 77.8286 440.249 72.566C434.231 62.0431 428.225 51.5218 428.225 51.5218C427.373 50.0298 427.892 48.1288 429.385 47.2768C430.876 46.4248 432.777 46.9451 433.63 48.4371C442.89 64.6604 456.931 89.2187 457.654 90.3796L455.047 92.0752L454.56 95.148Z" fill="black"/>
<path d="M668.224 268.369V339.284C668.224 347.71 674.845 354.648 683.261 355.044L771.942 359.211C780.936 359.633 788.46 352.455 788.46 343.451V268.369C788.46 259.656 781.396 252.592 772.682 252.592H684.002C675.288 252.592 668.224 259.655 668.224 268.369Z" fill="#FFFAA8"/>
<path d="M690.916 353.584C689.626 353.584 688.451 353.193 687.557 352.373L684.991 350.019C683.748 348.879 683.232 347.128 683.538 345.089C683.827 343.164 684.826 341.188 686.351 339.525L688.062 337.66C688.183 337.528 688.306 337.399 688.432 337.273L720.417 305.289C720.725 304.981 721.223 304.981 721.531 305.289C721.839 305.596 721.839 306.095 721.531 306.402L689.547 338.386C689.437 338.496 689.329 338.609 689.223 338.725L687.512 340.59C686.196 342.024 685.338 343.705 685.095 345.323C684.869 346.828 685.21 348.083 686.055 348.858L688.621 351.212C690.425 352.866 694.14 351.876 696.733 349.049L698.444 347.183C698.55 347.068 698.653 346.95 698.754 346.831L724.296 316.451C724.575 316.118 725.073 316.074 725.406 316.355C725.739 316.635 725.781 317.132 725.502 317.464L699.959 347.844C699.845 347.981 699.726 348.116 699.605 348.248L697.894 350.113C695.834 352.359 693.197 353.584 690.916 353.584ZM691.692 348.566C690.818 348.566 690.034 348.303 689.433 347.752C687.654 346.119 688.252 342.669 690.795 339.897C691.958 338.628 693.359 337.701 694.738 337.286C696.261 336.826 697.598 337.032 698.504 337.863C699.409 338.694 699.729 340.008 699.403 341.565C699.108 342.975 698.305 344.45 697.141 345.718C695.458 347.554 693.404 348.566 691.692 348.566ZM696.255 338.622C695.854 338.622 695.466 338.711 695.192 338.794C694.08 339.129 692.93 339.898 691.955 340.961C690.107 342.977 689.426 345.607 690.498 346.591C691.451 347.465 693.936 346.883 695.981 344.653V344.653C696.956 343.59 697.624 342.379 697.861 341.242C697.981 340.668 698.086 339.617 697.439 339.024C697.108 338.72 696.674 338.622 696.255 338.622ZM736.081 304.445C735.903 304.445 735.722 304.384 735.575 304.26C735.242 303.98 735.199 303.483 735.479 303.15L744.692 292.192L745.27 292.543C752.446 296.912 761.054 295.719 766.69 289.574C770.338 285.597 772.111 280.305 771.555 275.053C771.48 274.347 771.028 273.791 770.345 273.566C769.804 273.387 769.016 273.423 768.432 274.06L758.503 284.884C757.638 285.829 756.359 286.326 755.082 286.217L749.74 285.756C747.862 285.595 746.324 284.184 746 282.326L745.081 277.044C744.862 275.782 745.248 274.465 746.114 273.521L756.042 262.696C756.626 262.059 756.594 261.272 756.37 260.747C756.087 260.087 755.494 259.684 754.784 259.67C749.515 259.572 744.384 261.791 740.736 265.768C735.1 271.913 734.653 280.592 739.624 287.364L740.024 287.91L728.086 299.847C727.779 300.155 727.28 300.155 726.973 299.847C726.665 299.539 726.665 299.041 726.973 298.734L737.962 287.744C732.952 280.433 733.568 271.253 739.575 264.704C743.528 260.394 749.072 257.977 754.814 258.095C756.141 258.121 757.292 258.9 757.818 260.127C758.352 261.373 758.116 262.766 757.203 263.761L747.275 274.585C746.737 275.172 746.497 275.99 746.633 276.774L747.552 282.056C747.753 283.21 748.709 284.086 749.875 284.187L755.217 284.647C756.012 284.717 756.804 284.406 757.342 283.82L767.271 272.995C768.184 272.001 769.55 271.646 770.838 272.07C772.107 272.488 772.982 273.568 773.122 274.887C773.725 280.588 771.804 286.329 767.851 290.639C761.843 297.188 752.751 298.592 745.035 294.232L736.684 304.164C736.529 304.349 736.306 304.445 736.081 304.445Z" fill="black"/>
<path d="M760.057 353.993C759.848 353.993 759.637 353.984 759.426 353.966C757.432 353.798 755.638 352.851 754.372 351.302L724.692 314.964C723.409 313.393 723.602 311.118 725.13 309.785L730.983 304.678C732.511 303.346 734.791 303.464 736.173 304.947L768.151 339.281C769.514 340.744 770.208 342.651 770.105 344.649C770.001 346.646 769.114 348.471 767.607 349.786L764.854 352.187C763.506 353.363 761.823 353.993 760.057 353.993ZM732.364 306.261L726.511 311.368C725.841 311.952 725.757 312.947 726.319 313.635L755.999 349.973C756.901 351.078 758.181 351.753 759.603 351.873C761.026 351.991 762.399 351.543 763.473 350.605L766.226 348.203C767.301 347.265 767.934 345.965 768.008 344.54C768.082 343.115 767.587 341.756 766.615 340.712L734.637 306.379C734.032 305.73 733.034 305.677 732.364 306.261Z" fill="black"/>
<path d="M726.56 310.435L700.8 280.305C700.394 280.294 700.016 280.165 699.704 279.926L691.978 273.999C691.765 273.836 691.596 273.632 691.476 273.393L688.052 266.617C687.632 265.787 687.888 264.729 688.675 264.043L690.604 262.359C691.39 261.673 692.473 261.563 693.239 262.092L699.498 266.409C699.705 266.552 699.878 266.734 700.009 266.951L705.007 275.241C705.272 275.679 705.336 276.205 705.203 276.721L731.742 306.533L726.56 310.435ZM701.438 278.627L726.795 308.286L729.429 306.303L703.336 276.993L703.606 276.504C703.7 276.334 703.721 276.158 703.659 276.055L698.66 267.765C698.646 267.742 698.628 267.722 698.605 267.707L692.345 263.388C692.204 263.291 691.895 263.324 691.64 263.546L689.71 265.23C689.455 265.453 689.381 265.755 689.458 265.907L692.881 272.683C692.895 272.709 692.913 272.732 692.937 272.75L700.663 278.676C700.731 278.729 700.852 278.745 700.987 278.717L701.438 278.627Z" fill="black"/>
<path d="M131.205 69.249V154.045C131.205 164.12 139.122 172.417 149.186 172.89L255.225 177.872C265.981 178.377 274.976 169.794 274.976 159.027V69.249C274.976 58.8296 266.53 50.3833 256.111 50.3833H150.071C139.652 50.3836 131.205 58.8299 131.205 69.249Z" fill="#FFFAA8"/>
<path d="M207.017 121.594C207.006 129.129 206.492 136.68 205.169 144.108C204.834 145.964 204.446 147.811 203.983 149.64C203.519 151.469 202.983 153.281 202.327 155.053C201.666 156.821 200.898 158.563 199.857 160.155C199.333 160.946 198.738 161.703 198.003 162.326C197.636 162.635 197.233 162.909 196.79 163.111C196.348 163.31 195.864 163.437 195.374 163.446C194.884 163.46 194.393 163.364 193.942 163.182C193.489 163.001 193.076 162.739 192.7 162.439C191.948 161.836 191.34 161.087 190.806 160.303C189.747 158.722 188.969 156.983 188.3 155.219C187.636 153.449 187.095 151.638 186.627 149.811C186.16 147.983 185.768 146.137 185.43 144.282C184.756 140.571 184.296 136.825 183.987 133.068C183.679 129.31 183.524 125.541 183.505 121.771C183.496 119.886 183.547 118.002 183.614 116.118C183.684 114.235 183.788 112.353 183.926 110.473C184.204 106.715 184.619 102.965 185.235 99.2453C185.545 97.3859 185.906 95.5348 186.339 93.6998C186.775 91.8658 187.28 90.0454 187.907 88.2652C188.222 87.3758 188.566 86.496 188.96 85.6369C189.352 84.7777 189.792 83.9377 190.307 83.1431C190.825 82.3522 191.419 81.5974 192.16 80.993C192.53 80.6933 192.938 80.4326 193.385 80.2564C193.83 80.0773 194.313 79.987 194.794 80.0052C195.274 80.019 195.748 80.1392 196.185 80.3324C196.623 80.5265 197.025 80.7908 197.395 81.0902C198.133 81.6928 198.745 82.4296 199.287 83.2032C200.365 84.7616 201.178 86.4796 201.882 88.2281C202.582 89.9812 203.159 91.7799 203.662 93.5969C204.162 95.4151 204.587 97.2534 204.954 99.1024C206.405 106.506 206.996 114.057 207.017 121.594ZM206.461 121.594C206.468 117.839 206.326 114.084 206.015 110.342C205.709 106.601 205.245 102.87 204.553 99.1804C204.208 97.3362 203.805 95.5022 203.327 93.6884C202.847 91.8759 202.292 90.0816 201.617 88.3337C200.937 86.5908 200.149 84.8785 199.103 83.3315C198.577 82.5633 197.984 81.8339 197.272 81.2406C196.916 80.9457 196.53 80.6865 196.112 80.4957C195.695 80.307 195.245 80.1835 194.788 80.1712C194.331 80.1566 193.874 80.249 193.451 80.4236C193.026 80.5965 192.637 80.8509 192.282 81.1449C191.572 81.7376 190.996 82.4828 190.496 83.2666C189.996 84.0537 189.572 84.8887 189.192 85.7434C188.813 86.598 188.48 87.4745 188.177 88.3606C187.574 90.1349 187.09 91.9498 186.677 93.7794C186.266 95.6098 185.926 97.4567 185.638 99.3117C185.065 103.022 184.692 106.763 184.456 110.511C184.218 114.259 184.136 118.016 184.142 121.771C184.132 125.525 184.257 129.28 184.535 133.025C184.815 136.769 185.245 140.503 185.887 144.2C186.209 146.049 186.585 147.888 187.035 149.708C187.486 151.527 188.01 153.33 188.654 155.087C189.302 156.839 190.059 158.563 191.083 160.116C191.598 160.886 192.185 161.616 192.895 162.195C193.25 162.482 193.637 162.731 194.054 162.901C194.471 163.072 194.917 163.166 195.365 163.151C195.813 163.14 196.254 163.021 196.663 162.833C197.073 162.643 197.451 162.382 197.798 162.084C198.494 161.485 199.067 160.746 199.573 159.97C200.579 158.404 201.326 156.676 201.966 154.921C202.602 153.161 203.12 151.357 203.566 149.536C204.012 147.715 204.383 145.875 204.702 144.026C205.34 140.328 205.763 136.594 206.045 132.85C206.331 129.105 206.463 125.35 206.461 121.594Z" fill="black"/>
<path d="M195.266 164.547C194.694 164.547 194.094 164.427 193.533 164.201C193.018 163.995 192.521 163.7 192.02 163.3C191.268 162.697 190.597 161.942 189.902 160.922C188.939 159.485 188.106 157.799 187.277 155.609C186.651 153.941 186.092 152.135 185.567 150.084C185.116 148.321 184.72 146.487 184.353 144.479C183.708 140.921 183.231 137.219 182.896 133.158C182.593 129.468 182.43 125.639 182.411 121.776C182.401 119.758 182.46 117.764 182.52 116.08C182.593 114.165 182.698 112.252 182.835 110.393C183.136 106.31 183.568 102.605 184.156 99.0657C184.492 97.0486 184.857 95.2106 185.275 93.4454C185.764 91.3834 186.287 89.5688 186.875 87.9001C187.232 86.8923 187.588 86.0021 187.965 85.1797C188.423 84.1782 188.889 83.316 189.39 82.5436C190.068 81.5089 190.728 80.7463 191.47 80.1419C191.965 79.7409 192.473 79.4371 192.983 79.2358C193.571 78.9987 194.212 78.8868 194.835 78.9084C195.428 78.9257 196.034 79.0663 196.625 79.3276C197.122 79.5474 197.598 79.8444 198.081 80.2359C198.82 80.8387 199.486 81.5795 200.182 82.5717C201.165 83.9925 202.027 85.6576 202.896 87.8164C203.56 89.4785 204.154 91.2725 204.715 93.3036C205.203 95.0719 205.631 96.8982 206.026 98.8886C207.406 105.92 208.088 113.345 208.112 121.59V121.594C208.1 129.891 207.489 137.319 206.246 144.301C205.883 146.308 205.49 148.142 205.043 149.911C204.525 151.959 203.972 153.766 203.354 155.436C202.531 157.631 201.712 159.322 200.772 160.758C200.091 161.786 199.437 162.548 198.711 163.165C198.223 163.575 197.744 163.883 197.242 164.112C196.628 164.388 196.007 164.533 195.393 164.544C195.35 164.545 195.308 164.547 195.266 164.547ZM194.696 81.2682C194.421 81.2682 194.138 81.3262 193.867 81.4386C193.576 81.5576 193.278 81.743 192.979 81.9921C192.44 82.4401 191.943 83.0343 191.416 83.8588C190.988 84.5347 190.587 85.2981 190.191 86.1905C189.854 86.9498 189.533 87.7763 189.211 88.7177C188.671 90.3051 188.191 92.0413 187.744 94.0216C187.358 95.7364 187.023 97.522 186.72 99.481C186.182 102.953 185.799 106.584 185.549 110.579C185.331 113.994 185.229 117.654 185.236 121.768C185.226 125.565 185.358 129.323 185.626 132.943C185.924 136.916 186.361 140.537 186.965 144.012C187.303 145.955 187.674 147.732 188.097 149.443C188.585 151.409 189.103 153.13 189.681 154.707C190.423 156.713 191.158 158.24 191.995 159.51C192.535 160.315 193.041 160.899 193.585 161.342C193.885 161.586 194.181 161.768 194.464 161.883C194.766 162.006 195.049 162.05 195.329 162.055C195.614 162.047 195.906 161.973 196.206 161.835C196.493 161.702 196.79 161.504 197.088 161.249C197.623 160.788 198.122 160.191 198.658 159.368C199.479 158.092 200.205 156.557 200.94 154.544C201.511 152.962 202.023 151.237 202.504 149.273C202.921 147.571 203.287 145.793 203.624 143.838C204.218 140.395 204.653 136.774 204.955 132.767C205.23 129.155 205.369 125.397 205.367 121.594V121.592C205.374 117.805 205.226 114.051 204.925 110.433C204.599 106.452 204.126 102.838 203.478 99.3835C203.118 97.4589 202.722 95.6882 202.269 93.9693C201.753 92.0219 201.206 90.3084 200.597 88.7309C199.823 86.7449 199.06 85.2234 198.198 83.9479C197.644 83.1393 197.127 82.5466 196.574 82.0855C196.266 81.8304 195.957 81.6306 195.659 81.4945C195.346 81.3528 195.042 81.2759 194.759 81.2694C194.738 81.2682 194.717 81.2682 194.696 81.2682Z" fill="black"/>
<path d="M225.951 121.594C225.925 126.447 225.304 131.301 224.01 135.981C222.693 140.65 220.709 145.141 218.014 149.174C216.667 151.187 215.14 153.083 213.434 154.804C211.729 156.523 209.844 158.066 207.797 159.359C205.748 160.648 203.536 161.679 201.22 162.378C198.904 163.08 196.488 163.445 194.069 163.448C191.65 163.447 189.233 163.084 186.917 162.384C184.6 161.686 182.385 160.657 180.334 159.37C178.286 158.078 176.397 156.536 174.69 154.818C172.981 153.098 171.452 151.203 170.101 149.189C167.401 145.156 165.412 140.663 164.09 135.991C163.439 133.651 162.955 131.265 162.634 128.858C162.315 126.451 162.155 124.023 162.144 121.594C162.157 119.165 162.318 116.737 162.639 114.33C162.961 111.923 163.446 109.538 164.099 107.199C165.425 102.53 167.417 98.039 170.119 94.0106C171.47 91.9983 172.999 90.105 174.708 88.3882C176.416 86.6717 178.302 85.1316 180.351 83.8439C182.401 82.5604 184.615 81.5385 186.929 80.8408C189.241 80.1405 191.654 79.7753 194.069 79.7729C196.485 79.7774 198.898 80.1447 201.209 80.8468C203.521 81.5457 205.733 82.5699 207.781 83.8549C209.827 85.1441 211.712 86.6857 213.417 88.4028C215.122 90.1203 216.649 92.0141 217.997 94.0264C220.693 98.0546 222.681 102.543 224.001 107.21C225.297 111.888 225.922 116.742 225.951 121.594ZM225.314 121.594C225.308 116.796 224.712 111.994 223.451 107.363C222.183 102.739 220.274 98.2753 217.646 94.2606C216.333 92.2555 214.841 90.3655 213.17 88.6475C211.499 86.9321 209.653 85.3801 207.633 84.0903C205.612 82.8077 203.429 81.7751 201.14 81.0768C198.851 80.3782 196.463 80.0107 194.07 80.0026C191.677 80.0128 189.288 80.3821 187.002 81.0828C184.714 81.7828 182.532 82.8172 180.513 84.1014C178.496 85.3929 176.653 86.9459 174.984 88.6621C173.316 90.381 171.828 92.2713 170.517 94.2767C167.894 98.2905 165.989 102.753 164.727 107.374C164.099 109.688 163.644 112.047 163.335 114.423C163.026 116.8 162.874 119.197 162.869 121.594C162.876 123.992 163.029 126.388 163.34 128.765C163.65 131.141 164.107 133.499 164.737 135.812C166.002 140.432 167.91 144.891 170.535 148.901C171.845 150.904 173.334 152.792 175.002 154.509C176.671 156.222 178.513 157.774 180.53 159.061C182.549 160.342 184.729 161.369 187.013 162.069C189.296 162.77 191.68 163.141 194.07 163.154C196.46 163.143 198.845 162.775 201.129 162.075C203.414 161.377 205.596 160.352 207.617 159.072C209.636 157.786 211.481 156.236 213.152 154.523C214.823 152.807 216.315 150.92 217.629 148.917C220.259 144.906 222.171 140.445 223.442 135.823C224.706 131.193 225.305 126.392 225.314 121.594Z" fill="black"/>
<path d="M194.072 164.547C191.556 164.547 189.044 164.173 186.603 163.436C184.243 162.727 181.939 161.672 179.755 160.301C177.691 159 175.727 157.417 173.916 155.593C172.208 153.874 170.619 151.926 169.195 149.803C166.514 145.799 164.443 141.253 163.038 136.292C162.38 133.925 161.88 131.475 161.551 129.005C161.23 126.586 161.063 124.095 161.051 121.6C161.065 119.091 161.234 116.599 161.555 114.185C161.886 111.713 162.388 109.264 163.047 106.903C164.456 101.94 166.53 97.3979 169.213 93.3982C170.634 91.2791 172.223 89.3329 173.935 87.6128C175.749 85.7889 177.713 84.2081 179.772 82.9136C181.941 81.5547 184.244 80.505 186.616 79.7897C189.049 79.0532 191.557 78.6779 194.07 78.6758C196.587 78.68 199.095 79.0574 201.527 79.7966C203.895 80.5128 206.195 81.5646 208.362 82.9246C210.42 84.2219 212.381 85.8039 214.192 87.6278C215.901 89.3491 217.487 91.2956 218.906 93.4143C221.584 97.4165 223.653 101.957 225.054 106.911C226.346 111.569 227.016 116.505 227.047 121.588V121.601C227.02 126.683 226.353 131.62 225.065 136.276C223.667 141.236 221.601 145.78 218.924 149.786C217.504 151.909 215.918 153.859 214.211 155.579C212.402 157.403 210.441 158.988 208.381 160.29C206.199 161.661 203.897 162.718 201.536 163.431C199.101 164.167 196.59 164.543 194.072 164.547ZM194.067 81.101C191.8 81.1106 189.527 81.4572 187.322 82.1328C185.19 82.7859 183.096 83.7605 181.099 85.0293C179.25 86.2133 177.454 87.6941 175.767 89.4292C174.196 91.0483 172.737 92.8832 171.432 94.8799C168.972 98.6452 167.071 102.946 165.783 107.665C165.191 109.846 164.732 112.168 164.42 114.566C164.122 116.863 163.968 119.228 163.962 121.597C163.97 123.965 164.125 126.33 164.425 128.623C164.737 131.016 165.197 133.337 165.792 135.523C167.084 140.238 168.987 144.536 171.449 148.298C172.754 150.292 174.212 152.124 175.786 153.742C177.475 155.476 179.268 156.955 181.117 158.136C183.099 159.392 185.191 160.363 187.332 161.019C189.534 161.695 191.802 162.045 194.076 162.056C196.34 162.047 198.608 161.7 200.81 161.025C202.955 160.369 205.049 159.4 207.034 158.144C208.881 156.967 210.678 155.49 212.371 153.755C213.945 152.138 215.408 150.306 216.716 148.312C219.182 144.552 221.09 140.252 222.388 135.531C223.594 131.114 224.211 126.425 224.221 121.594C224.214 116.765 223.6 112.075 222.397 107.653C221.103 102.932 219.196 98.6291 216.733 94.8644C215.426 92.8697 213.964 91.036 212.388 89.4158C210.701 87.6849 208.904 86.2052 207.046 85.0183C205.052 83.7527 202.957 82.7802 200.822 82.1289C198.615 81.4536 196.342 81.1082 194.067 81.101Z" fill="black"/>
<path d="M156.868 105.033L166.442 104.955L176.017 104.912L195.165 104.876L214.315 104.915L223.889 104.963L233.464 105.047C233.48 105.047 233.492 105.06 233.492 105.075C233.492 105.075 233.479 105.103 233.464 105.104L223.889 105.187L214.315 105.235L195.165 105.274L176.017 105.239L166.442 105.195L156.868 105.117C156.845 105.117 156.826 105.098 156.826 105.098C156.826 105.052 156.845 105.033 156.868 105.033Z" fill="black"/>
<path d="M195.169 106.372L166.438 106.293L156.405 106.21L155.735 105.54L155.734 105.049L155.759 103.977L156.86 103.935L176.012 103.812L195.165 103.777L223.896 103.865L234.559 103.959L234.587 106.173L233.465 106.201L214.322 106.332L195.169 106.372Z" fill="black"/>
<path d="M167.975 88.9342C170.241 88.898 172.507 88.8827 174.773 88.8561L181.57 88.8124C183.836 88.7936 186.102 88.7957 188.368 88.79L195.165 88.7769L208.761 88.8157L215.559 88.8639C217.824 88.8926 220.09 88.9093 222.356 88.9479C222.372 88.9482 222.384 88.9608 222.384 88.9608C222.384 88.9916 222.371 89.0038 222.356 89.0041C220.09 89.043 217.824 89.0595 215.559 89.0882L208.761 89.1363L195.165 89.1752L188.368 89.1623C186.102 89.1566 183.836 89.1588 181.57 89.1399L174.773 89.0959C172.507 89.0696 170.241 89.0544 167.975 89.0182C167.952 89.0179 167.934 88.9987 167.934 88.9754C167.934 88.9527 167.953 88.9345 167.975 88.9342Z" fill="black"/>
<path d="M195.169 90.2736L186.604 90.2566C184.923 90.2545 183.243 90.2515 181.562 90.2375L172.497 90.1696C170.984 90.1543 169.471 90.1409 167.958 90.116L166.882 90.099L166.84 87.8768L167.958 87.8361C169.422 87.8125 170.886 87.7987 172.351 87.7832L181.564 87.7138C183.159 87.7009 184.756 87.6974 186.352 87.6956L195.164 87.6782L218.042 87.793C219.486 87.8089 220.931 87.8238 222.375 87.8487L223.489 87.8678L223.439 90.0736L222.356 90.1014C220.862 90.1271 219.349 90.1433 217.835 90.1594L208.768 90.2336L195.169 90.2736Z" fill="black"/>
<path d="M153.541 121.131L163.948 121.054L174.354 121.01L195.166 120.974L215.979 121.013L226.386 121.062L236.792 121.145C236.807 121.145 236.82 121.158 236.82 121.174C236.82 121.174 236.807 121.202 236.792 121.202L226.386 121.286L215.979 121.334L195.166 121.373L174.354 121.338L163.948 121.293L153.541 121.216C153.518 121.216 153.499 121.197 153.499 121.174C153.5 121.15 153.518 121.131 153.541 121.131Z" fill="black"/>
<path d="M195.17 122.47L163.943 122.391L152.448 122.305L152.406 120.075L153.534 120.033L174.35 119.912L195.166 119.876L226.391 119.963L237.26 120.05L237.921 120.725L237.878 122.272L236.792 122.3L215.984 122.432L195.17 122.47Z" fill="black"/>
<path d="M156.867 137.229L166.442 137.152L176.017 137.108L195.165 137.072L214.314 137.112L223.889 137.16L233.464 137.243C233.479 137.244 233.492 137.256 233.492 137.256C233.491 137.287 233.479 137.3 233.464 137.3L223.889 137.383L214.315 137.432L195.165 137.471L176.017 137.435L166.442 137.391L156.868 137.314C156.845 137.313 156.826 137.294 156.826 137.271C156.826 137.248 156.845 137.23 156.867 137.229Z" fill="black"/>
<path d="M195.169 138.568L166.438 138.489L156.405 138.409L155.735 137.738L155.734 137.246L155.758 136.173L156.86 136.132L176.013 136.01L195.165 135.975L223.896 136.061L234.559 136.155L234.587 138.37L233.465 138.398L214.322 138.53L195.169 138.568Z" fill="black"/>
<path d="M223.725 153.518H169.344C169.263 153.518 169.197 153.452 169.197 153.371C169.197 153.289 169.263 153.223 169.344 153.223H223.725C223.806 153.223 223.872 153.289 223.872 153.371C223.872 153.452 223.806 153.518 223.725 153.518Z" fill="black"/>
<path d="M223.725 154.615H169.345C168.661 154.615 168.104 154.057 168.104 153.37C168.104 152.684 168.661 152.125 169.345 152.125H223.725C224.409 152.125 224.966 152.684 224.966 153.37C224.966 154.057 224.409 154.615 223.725 154.615Z" fill="black"/>
<path d="M195.161 165.409C170.502 165.409 150.441 145.567 150.441 121.178C150.441 96.7886 170.502 76.9468 195.161 76.9468C219.819 76.9468 239.88 96.7889 239.88 121.178C239.88 145.567 219.819 165.409 195.161 165.409ZM195.161 80.8721C172.666 80.8721 154.366 98.9531 154.366 121.178C154.366 143.403 172.666 161.484 195.161 161.484C217.655 161.484 235.955 143.403 235.955 121.178C235.955 98.9531 217.655 80.8721 195.161 80.8721Z" fill="black"/>
<path d="M238.154 85.3897H225.313V82.0649L229.571 76.0373C230.739 74.3776 231.542 73.1464 231.979 72.3438C232.415 71.5411 232.738 70.7714 232.945 70.0342C233.152 69.2971 233.256 68.5357 233.256 67.7492C233.256 66.8321 233.051 66.1442 232.642 65.6855C232.233 65.2268 231.7 64.9977 231.045 64.9977C230.466 64.9977 229.926 65.1508 229.424 65.4564C228.921 65.7621 228.31 66.3138 227.589 67.1108L225.1 64.4902C226.246 63.1908 227.311 62.3012 228.294 61.8203C229.276 61.3398 230.341 61.0996 231.487 61.0996C233.42 61.0996 234.929 61.6675 236.016 62.803C237.103 63.9388 237.646 65.5165 237.646 67.5366C237.646 68.4538 237.548 69.3219 237.351 70.1407C237.155 70.9595 236.857 71.7813 236.458 72.6058C236.06 73.4305 235.56 74.2873 234.96 75.1773C234.359 76.0675 232.809 78.1067 230.308 81.2949V81.4259H238.154V85.3897Z" fill="black"/>
<path d="M254.664 80.3611H252.24V85.3896H248.047V80.3611H240.234V76.7414L247.474 61.4434H252.24V76.6759H254.664V80.3611ZM248.047 76.6759V71.6313L248.129 69.4037L248.243 67.2745H248.112C247.73 68.4647 247.315 69.5404 246.868 70.5012L243.985 76.6759H248.047Z" fill="black"/>
</g>
<defs>
<filter id="filter0_d_25_4" x="0" y="0" width="847.486" height="836.075" filterUnits="userSpaceOnUse" color-interpolation-filters="sRGB">
<feFlood flood-opacity="0" result="BackgroundImageFix"/>
<feColorMatrix in="SourceAlpha" type="matrix" values="0 0 0 0 0 0 0 0 0 0 0 0 0 0 0 0 0 0 127 0" result="hardAlpha"/>
<feOffset dy="4"/>
<feGaussianBlur stdDeviation="2"/>
<feComposite in2="hardAlpha" operator="out"/>
<feColorMatrix type="matrix" values="0 0 0 0 0 0 0 0 0 0 0 0 0 0 0 0 0 0 0.25 0"/>
<feBlend mode="normal" in2="BackgroundImageFix" result="effect1_dropShadow_25_4"/>
<feBlend mode="normal" in="SourceGraphic" in2="effect1_dropShadow_25_4" result="shape"/>
</filter>
<linearGradient id="paint0_linear_25_4" x1="344.63" y1="670.576" x2="498.251" y2="714.292" gradientUnits="userSpaceOnUse">
<stop stop-color="#FEBBBA"/>
<stop offset="1" stop-color="#FF928E"/>
</linearGradient>
<linearGradient id="paint1_linear_25_4" x1="179.647" y1="556.257" x2="307.817" y2="386.031" gradientUnits="userSpaceOnUse">
<stop stop-color="#FEBBBA"/>
<stop offset="1" stop-color="#FF928E"/>
</linearGradient>
<linearGradient id="paint2_linear_25_4" x1="247.844" y1="705.98" x2="-108.837" y2="1437" gradientUnits="userSpaceOnUse">
<stop stop-color="#FEBBBA"/>
<stop offset="1" stop-color="#FF928E"/>
</linearGradient>
<linearGradient id="paint3_linear_25_4" x1="357.96" y1="319.478" x2="216.961" y2="404.38" gradientUnits="userSpaceOnUse">
<stop stop-color="#FEBBBA"/>
<stop offset="1" stop-color="#FF928E"/>
</linearGradient>
<linearGradient id="paint4_linear_25_4" x1="275.448" y1="230.828" x2="376.185" y2="395.414" gradientUnits="userSpaceOnUse">
<stop stop-color="#09005D"/>
<stop offset="1" stop-color="#1A0F91"/>
</linearGradient>
<linearGradient id="paint5_linear_25_4" x1="344.196" y1="296.623" x2="203.197" y2="381.525" gradientUnits="userSpaceOnUse">
<stop stop-color="#FEBBBA"/>
<stop offset="1" stop-color="#FF928E"/>
</linearGradient>
<linearGradient id="paint6_linear_25_4" x1="337.047" y1="304.306" x2="234.912" y2="441.822" gradientUnits="userSpaceOnUse">
<stop stop-color="#4F52FF"/>
<stop offset="1" stop-color="#4042E2"/>
</linearGradient>
<linearGradient id="paint7_linear_25_4" x1="376.981" y1="340.615" x2="316.234" y2="420.054" gradientUnits="userSpaceOnUse">
<stop stop-color="#4F52FF"/>
<stop offset="1" stop-color="#4042E2"/>
</linearGradient>
<linearGradient id="paint8_linear_25_4" x1="444.927" y1="207.997" x2="11.4211" y2="358.256" gradientUnits="userSpaceOnUse">
<stop stop-color="#4F52FF"/>
<stop offset="1" stop-color="#4042E2"/>
</linearGradient>
<linearGradient id="paint9_linear_25_4" x1="314.95" y1="253.64" x2="264.884" y2="332.411" gradientUnits="userSpaceOnUse">
<stop stop-color="#4F52FF"/>
<stop offset="1" stop-color="#4042E2"/>
</linearGradient>
<linearGradient id="paint10_linear_25_4" x1="267.957" y1="331.348" x2="178.505" y2="151.777" gradientUnits="userSpaceOnUse">
<stop stop-color="#4F52FF"/>
<stop offset="1" stop-color="#4042E2"/>
</linearGradient>
</defs>
</svg>
