<svg width="150" height="150" viewBox="0 0 150 150" fill="none" xmlns="http://www.w3.org/2000/svg">
<circle cx="75" cy="75" r="75" fill="url(#paint0_linear_77_16)"/>
<path d="M39.41 106.99C33.65 106.99 28.97 104.92 25.37 100.78C21.77 96.64 19.97 90.43 19.97 82.15C19.97 77.17 20.99 72.61 23.03 68.47C25.13 64.27 28.19 60.94 32.21 58.48C36.29 55.96 41.21 54.7 46.97 54.7C48.71 54.7 50.51 54.91 52.37 55.33V41.02L43.73 39.76V34L63.62 32.2H64.07L66.77 34.36V99.97H71.45V105.73C66.83 106.63 62.99 107.08 59.93 107.08C57.83 107.08 56.3 106.72 55.34 106C54.44 105.34 53.99 104.02 53.99 102.04V99.79C52.55 101.89 50.48 103.63 47.78 105.01C45.08 106.33 42.29 106.99 39.41 106.99ZM44.81 98.89C46.49 98.89 47.96 98.56 49.22 97.9C50.54 97.18 51.59 96.34 52.37 95.38V62.8C51.95 62.26 51.17 61.81 50.03 61.45C48.95 61.09 47.78 60.91 46.52 60.91C43.16 60.91 40.49 62.53 38.51 65.77C36.53 68.95 35.54 74.17 35.54 81.43C35.54 87.37 36.38 91.78 38.06 94.66C39.74 97.48 41.99 98.89 44.81 98.89ZM88.8116 48.22C86.4716 48.22 84.5816 47.53 83.1416 46.15C81.7016 44.77 80.9816 43 80.9816 40.84C80.9816 38.32 81.7616 36.25 83.3216 34.63C84.9416 33.01 87.1016 32.2 89.8016 32.2C92.4416 32.2 94.4516 32.89 95.8316 34.27C97.2716 35.65 97.9916 37.42 97.9916 39.58C97.9916 42.16 97.2116 44.26 95.6516 45.88C94.0916 47.44 91.8416 48.22 88.9016 48.22H88.8116ZM76.8416 56.95L94.5716 54.79H94.7516L97.4516 56.68V105.1C97.4516 109.78 96.4316 113.83 94.3916 117.25C92.4116 120.67 89.9516 123.28 87.0116 125.08C84.1316 126.88 81.3416 127.81 78.6416 127.87C75.6416 127.87 73.7816 127.75 73.0616 127.51L72.3416 121.84C74.0216 121.84 75.5216 121.48 76.8416 120.76C79.0016 119.74 80.5616 117.7 81.5216 114.64C82.4816 111.64 82.9616 107.5 82.9616 102.22V65.59L76.8416 63.88V56.95ZM117.152 106.72C115.112 106.72 113.312 106 111.752 104.56C110.252 103.12 109.502 101.35 109.502 99.25C109.502 96.85 110.372 94.9 112.112 93.4C113.852 91.84 116.012 91.06 118.592 91.06C120.932 91.06 122.822 91.81 124.262 93.31C125.702 94.81 126.422 96.58 126.422 98.62C126.422 101.14 125.582 103.12 123.902 104.56C122.222 106 119.972 106.72 117.152 106.72Z" fill="#212529"/>
<defs>
<linearGradient id="paint0_linear_77_16" x1="75.0003" y1="0" x2="75.0003" y2="150" gradientUnits="userSpaceOnUse">
<stop stop-color="#F8EC20"/>
<stop offset="1" stop-color="#A79F1E"/>
</linearGradient>
</defs>
</svg>
