<svg width="20" height="20" viewBox="0 0 20 20" fill="none" xmlns="http://www.w3.org/2000/svg">
<path d="M18.5214 0H1.47739C0.661609 0 0 0.641763 0 1.43271V18.5677C0 19.3582 0.661609 20 1.47739 20H18.5214C19.3384 20 20 19.3578 20 18.5677V1.43271C20 0.641361 19.338 0 18.5214 0ZM6.06211 16.7425H3.04138V7.71161H6.06211V16.7425ZM4.55195 6.47794H4.53171C3.51846 6.47794 2.86292 5.78431 2.86292 4.91777C2.86292 4.03193 3.5387 3.35759 4.57178 3.35759C5.60526 3.35759 6.24097 4.03193 6.2612 4.91777C6.2612 5.78431 5.60486 6.47794 4.55195 6.47794ZM16.955 16.7425H13.9342V11.91C13.9342 10.6964 13.4972 9.86811 12.4042 9.86811C11.5699 9.86811 11.0729 10.4266 10.854 10.9663C10.7743 11.1589 10.7549 11.4283 10.7549 11.6985V16.7421H7.73414C7.73414 16.7421 7.7738 8.55764 7.73414 7.71121H10.7549V8.98951C11.1563 8.37428 11.8742 7.49809 13.4778 7.49809C15.465 7.49809 16.9554 8.78926 16.9554 11.5634L16.955 16.7425Z" fill="url(#paint0_linear_12_1827)"/>
<defs>
<linearGradient id="paint0_linear_12_1827" x1="9.99985" y1="0" x2="9.99985" y2="20" gradientUnits="userSpaceOnUse">
<stop stop-color="#F8EC20"/>
<stop offset="1" stop-color="#A79F1E"/>
</linearGradient>
</defs>
</svg>
