<svg width="20" height="20" viewBox="0 0 20 20" fill="none" xmlns="http://www.w3.org/2000/svg">
<path d="M9.9998 13.2C11.7671 13.2 13.1998 11.7674 13.1998 10C13.1998 8.23274 11.7671 6.80005 9.9998 6.80005C8.23249 6.80005 6.7998 8.23274 6.7998 10C6.7998 11.7674 8.23249 13.2 9.9998 13.2Z" fill="url(#paint0_linear_12_1833)"/>
<path d="M14.4 0H5.6C4.11479 0 2.69041 0.589998 1.6402 1.6402C0.589998 2.69041 0 4.11479 0 5.6V14.4C0 15.8852 0.589998 17.3096 1.6402 18.3598C2.69041 19.41 4.11479 20 5.6 20H14.4C15.8852 20 17.3096 19.41 18.3598 18.3598C19.41 17.3096 20 15.8852 20 14.4V5.6C20 4.11479 19.41 2.69041 18.3598 1.6402C17.3096 0.589998 15.8852 0 14.4 0ZM10 14.8C9.05065 14.8 8.12262 14.5185 7.33326 13.9911C6.54391 13.4636 5.92868 12.714 5.56538 11.8369C5.20208 10.9598 5.10702 9.99468 5.29223 9.06357C5.47744 8.13246 5.9346 7.27718 6.60589 6.60589C7.27718 5.9346 8.13246 5.47744 9.06357 5.29223C9.99468 5.10702 10.9598 5.20208 11.8369 5.56538C12.714 5.92868 13.4636 6.54391 13.9911 7.33326C14.5185 8.12262 14.8 9.05065 14.8 10C14.8 11.273 14.2943 12.4939 13.3941 13.3941C12.4939 14.2943 11.273 14.8 10 14.8ZM15.2 6C14.9627 6 14.7307 5.92962 14.5333 5.79776C14.336 5.66591 14.1822 5.47849 14.0913 5.25922C14.0005 5.03995 13.9768 4.79867 14.0231 4.56589C14.0694 4.33311 14.1836 4.11929 14.3515 3.95147C14.5193 3.78365 14.7331 3.66936 14.9659 3.62306C15.1987 3.57676 15.4399 3.60052 15.6592 3.69134C15.8785 3.78217 16.0659 3.93598 16.1978 4.13332C16.3296 4.33066 16.4 4.56266 16.4 4.8C16.4 5.11826 16.2736 5.42348 16.0485 5.64853C15.8235 5.87357 15.5183 6 15.2 6Z" fill="url(#paint1_linear_12_1833)"/>
<defs>
<linearGradient id="paint0_linear_12_1833" x1="9.99976" y1="6.80005" x2="9.99976" y2="13.2" gradientUnits="userSpaceOnUse">
<stop stop-color="#F8EC20"/>
<stop offset="1" stop-color="#A79F1E"/>
</linearGradient>
<linearGradient id="paint1_linear_12_1833" x1="9.99985" y1="0" x2="9.99985" y2="20" gradientUnits="userSpaceOnUse">
<stop stop-color="#F8EC20"/>
<stop offset="1" stop-color="#A79F1E"/>
</linearGradient>
</defs>
</svg>
