<svg width="444" height="516" viewBox="0 0 444 516" fill="none" xmlns="http://www.w3.org/2000/svg">
<g clip-path="url(#clip0_142_56)">
<path d="M183.422 235.176C183.422 235.176 196.392 215.506 207.221 205.54C217.169 196.41 221.501 194.163 222.143 193.853C222.81 194.163 227.117 196.41 237.065 205.54C247.894 215.506 260.865 235.176 260.865 235.176C260.865 235.176 291.042 220.692 291.042 179.25C291.042 137.807 264.387 116.417 264.387 116.417C295.802 170.693 265.791 204.369 265.791 204.369C265.791 204.369 259.841 203.413 249.132 190.53C241.114 181.532 232.072 173.511 222.191 166.631V166.511V166.631C212.284 173.469 203.21 181.45 195.155 190.411C184.469 203.293 178.495 204.249 178.495 204.249C178.495 204.249 148.46 170.574 179.876 116.297C179.876 116.297 153.244 137.568 153.244 179.13C153.244 220.692 183.422 235.176 183.422 235.176Z" fill="url(#paint0_linear_142_56)"/>
<path d="M191.989 254.176C189.895 270.906 199.319 277.717 199.319 277.717C199.426 273.778 199.944 269.861 200.866 266.03C202.104 262.398 209.03 254.08 216.193 254.08H228.093C235.233 254.08 242.182 262.302 243.443 266.03C244.349 269.863 244.86 273.78 244.966 277.717C244.966 277.717 254.486 270.906 252.32 254.176C250.345 238.426 225.165 216.988 222.286 214.574V214.335H222.143H222V214.574C219.12 216.988 193.941 238.426 191.989 254.176Z" fill="url(#paint1_linear_142_56)"/>
<path d="M266.815 282.019C262.198 291.814 254.331 299.69 244.562 304.294C244.562 304.294 223.286 274.658 222.238 273.75V273.607V273.75C221.191 274.658 199.938 304.294 199.938 304.294C190.09 299.731 182.142 291.851 177.472 282.019C170.713 266.341 177.472 246.17 177.472 246.17C171.57 251.571 159.242 282.019 172.712 305.776C176.638 312.738 182.069 318.727 188.606 323.302C195.143 327.877 202.618 330.921 210.482 332.209C210.482 332.209 205.936 325.422 209.744 314.261C211.86 307.802 216.275 302.356 222.143 298.965C228.011 302.356 232.426 307.802 234.543 314.261C238.374 325.422 233.805 332.209 233.805 332.209C241.692 330.927 249.192 327.882 255.75 323.298C262.308 318.715 267.757 312.71 271.693 305.728C285.045 281.828 272.717 251.523 266.934 246.122C266.815 246.17 273.693 266.341 266.815 282.019Z" fill="url(#paint2_linear_142_56)"/>
<path d="M115.356 186.826C118.569 191.773 159.218 245.548 159.218 245.548C159.218 245.548 167.143 230.276 159.86 221.146C152.578 212.017 132.896 186.42 129.183 180.373C126.114 175.021 124.337 169.021 123.995 162.854C123.543 157.811 117.64 90.1506 117.64 90.1506C122.695 71.5531 130.734 53.9069 141.44 37.9053C150.121 24.6051 159.728 11.9384 170.189 0C170.189 0 142.082 19.8609 125.994 44.669C116.45 59.2199 108.931 75.0126 103.646 91.6085C103.646 91.6085 107.383 151.191 108.168 162.902C108.416 171.375 110.896 179.63 115.356 186.826Z" fill="url(#paint3_linear_142_56)"/>
<path d="M117.736 364.689C117.736 364.689 117.736 354.221 124.09 336.535C130.444 318.849 152.649 278.984 152.649 278.984L154.339 250.663L149.936 244.544C149.936 244.544 117.759 232.116 104.717 225.114C91.6754 218.111 88.2483 216.199 88.2483 216.199C83.3215 206.758 79.136 196.945 75.7298 186.85C69.0184 168.041 66.3529 159.484 66.3529 159.484C64.8824 141.104 64.5089 122.653 65.2343 104.228C66.3529 72.3691 68.0189 62.1399 68.0189 62.1399C68.0189 62.1399 59.9985 73.7553 56.4286 100.762C52.8587 127.769 52.0971 161.325 52.0971 161.325L72.1837 224.922C72.1837 224.922 88.8433 236.394 110.429 248.297C117.311 252.254 124.596 255.459 132.158 257.857L76.7532 266.437L24.1329 311.847C15.5324 329.302 9.13637 347.769 5.09345 366.816C-1.71316 398.723 0.333583 433.569 0.333583 433.569C0.333583 433.569 8.61575 398.723 18.4449 367.462C28.274 336.201 36.7227 321.669 36.7227 321.669L84.3214 284.625L122.02 281.016L92.9367 355.105C92.9367 355.105 92.6749 364.665 96.8398 386.175C101.005 407.685 118.807 464.83 118.807 464.83L164.216 516L168.595 515.211L134.324 458.353L117.736 364.689Z" fill="url(#paint4_linear_142_56)"/>
<path d="M326.359 90.1506C326.359 90.1506 320.457 157.74 319.981 162.854C319.639 169.021 317.862 175.021 314.793 180.373C311.104 186.444 291.398 211.993 284.116 221.146C276.833 230.3 284.758 245.548 284.758 245.548C284.758 245.548 325.431 191.773 328.644 186.826C333.089 179.635 335.553 171.387 335.784 162.926C336.593 151.215 340.33 91.6324 340.33 91.6324C335.033 75.0411 327.515 59.2499 317.982 44.6929C301.918 19.8609 273.811 0 273.811 0C284.309 11.9321 293.948 24.5992 302.655 37.9053C313.321 53.9171 321.326 71.5618 326.359 90.1506Z" fill="url(#paint5_linear_142_56)"/>
<path d="M438.956 366.745C434.919 347.695 428.523 329.228 419.916 311.775L367.272 266.365L311.772 257.809C319.327 255.41 326.603 252.205 333.477 248.249C355.158 236.299 371.747 224.875 371.747 224.875L391.809 161.277C391.809 161.277 391.048 127.817 387.478 100.738C383.908 73.6597 376.03 62.1399 376.03 62.1399C376.03 62.1399 377.696 72.3452 378.815 104.204C379.526 122.629 379.152 141.08 377.696 159.46C377.696 159.46 374.983 168.017 368.343 186.826C364.937 196.921 360.752 206.734 355.825 216.175C355.825 216.175 352.398 218.063 339.356 225.09C326.314 232.116 294.137 244.52 294.137 244.52L289.734 250.639L291.4 278.96C291.4 278.96 313.676 318.825 319.959 336.511C326.242 354.197 326.314 364.665 326.314 364.665L309.654 458.329L275.359 515.211L279.738 516L325.171 464.878C325.171 464.878 342.949 407.805 347.138 386.223C351.327 364.642 351.041 355.153 351.041 355.153L321.958 281.063L359.633 284.672L407.231 321.717C407.231 321.717 415.704 336.248 425.533 367.51C435.362 398.771 443.644 433.617 443.644 433.617C443.644 433.617 445.786 398.651 438.956 366.745Z" fill="url(#paint6_linear_142_56)"/>
</g>
<defs>
<linearGradient id="paint0_linear_142_56" x1="222.143" y1="116.297" x2="222.143" y2="235.176" gradientUnits="userSpaceOnUse">
<stop stop-color="#F8EC20"/>
<stop offset="1" stop-color="#A79F1E"/>
</linearGradient>
<linearGradient id="paint1_linear_142_56" x1="222.163" y1="214.335" x2="222.163" y2="277.717" gradientUnits="userSpaceOnUse">
<stop stop-color="#F8EC20"/>
<stop offset="1" stop-color="#A79F1E"/>
</linearGradient>
<linearGradient id="paint2_linear_142_56" x1="222.163" y1="246.122" x2="222.163" y2="332.209" gradientUnits="userSpaceOnUse">
<stop stop-color="#F8EC20"/>
<stop offset="1" stop-color="#A79F1E"/>
</linearGradient>
<linearGradient id="paint3_linear_142_56" x1="136.918" y1="0" x2="136.918" y2="245.548" gradientUnits="userSpaceOnUse">
<stop stop-color="#F8EC20"/>
<stop offset="1" stop-color="#A79F1E"/>
</linearGradient>
<linearGradient id="paint4_linear_142_56" x1="84.3199" y1="62.1399" x2="84.3199" y2="516" gradientUnits="userSpaceOnUse">
<stop stop-color="#F8EC20"/>
<stop offset="1" stop-color="#A79F1E"/>
</linearGradient>
<linearGradient id="paint5_linear_142_56" x1="307.07" y1="0" x2="307.07" y2="245.548" gradientUnits="userSpaceOnUse">
<stop stop-color="#F8EC20"/>
<stop offset="1" stop-color="#A79F1E"/>
</linearGradient>
<linearGradient id="paint6_linear_142_56" x1="359.661" y1="62.1399" x2="359.661" y2="516" gradientUnits="userSpaceOnUse">
<stop stop-color="#F8EC20"/>
<stop offset="1" stop-color="#A79F1E"/>
</linearGradient>
<clipPath id="clip0_142_56">
<rect width="444" height="516" fill="white"/>
</clipPath>
</defs>
</svg>
