<svg width="20" height="20" viewBox="0 0 20 20" fill="none" xmlns="http://www.w3.org/2000/svg">
<g clip-path="url(#clip0_12_1811)">
<mask id="mask0_12_1811" style="mask-type:luminance" maskUnits="userSpaceOnUse" x="0" y="0" width="20" height="20">
<path d="M20 0H0V20H20V0Z" fill="white"/>
</mask>
<g mask="url(#mask0_12_1811)">
<path d="M8.2622 9.1154C8.2622 9.1154 8.84644 8.353 9.33423 7.96672C9.78234 7.61285 9.97747 7.52575 10.0064 7.51374C10.0364 7.52575 10.2304 7.61285 10.6786 7.96672C11.1663 8.353 11.7506 9.1154 11.7506 9.1154C11.7506 9.1154 13.1099 8.55401 13.1099 6.94773C13.1099 5.34141 11.9093 4.51234 11.9093 4.51234C13.3244 6.61606 11.9725 7.92133 11.9725 7.92133C11.9725 7.92133 11.7045 7.88428 11.2221 7.38494C10.8609 7.03618 10.4536 6.72529 10.0086 6.45862C9.56229 6.72366 9.15355 7.033 8.79071 7.38033C8.30936 7.87963 8.04026 7.91668 8.04026 7.91668C8.04026 7.91668 6.68734 6.61145 8.10247 4.50769C8.10247 4.50769 6.90283 5.33215 6.90283 6.94308C6.90283 8.55401 8.2622 9.1154 8.2622 9.1154Z" fill="url(#paint0_linear_12_1811)"/>
<path d="M8.64795 9.85184C8.55363 10.5003 8.97813 10.7643 8.97813 10.7643C8.98295 10.6116 9.00629 10.4598 9.04782 10.3113C9.10358 10.1705 9.41557 9.84812 9.73822 9.84812H10.2743C10.5959 9.84812 10.9089 10.1668 10.9657 10.3113C11.0065 10.4599 11.0295 10.6117 11.0343 10.7643C11.0343 10.7643 11.4631 10.5003 11.3656 9.85184C11.2766 9.24138 10.1424 8.41045 10.0127 8.31688V8.30762H10.0062H9.9998V8.31688C9.87007 8.41045 8.73588 9.24138 8.64795 9.85184Z" fill="url(#paint1_linear_12_1811)"/>
<path d="M12.0184 10.9309C11.8105 11.3106 11.4561 11.6158 11.016 11.7943C11.016 11.7943 10.0577 10.6456 10.0105 10.6104C9.9633 10.6456 9.00595 11.7943 9.00595 11.7943C8.56235 11.6174 8.20433 11.312 7.99397 10.9309C7.68951 10.3232 7.99397 9.54141 7.99397 9.54141C7.72811 9.75075 7.1728 10.9309 7.77956 11.8517C7.9564 12.1216 8.20104 12.3537 8.4955 12.531C8.78996 12.7083 9.12667 12.8263 9.48091 12.8763C9.48091 12.8763 9.27613 12.6132 9.44766 12.1806C9.54298 11.9302 9.74185 11.7192 10.0062 11.5877C10.2705 11.7192 10.4694 11.9302 10.5647 12.1806C10.7373 12.6132 10.5315 12.8763 10.5315 12.8763C10.8868 12.8266 11.2246 12.7085 11.52 12.5309C11.8154 12.3532 12.0609 12.1205 12.2382 11.8499C12.8396 10.9235 12.2843 9.74889 12.0238 9.53955C12.0184 9.54141 12.3283 10.3232 12.0184 10.9309Z" fill="url(#paint2_linear_12_1811)"/>
<path d="M5.19593 7.24132C5.34066 7.43306 7.1717 9.51736 7.1717 9.51736C7.1717 9.51736 7.52868 8.92543 7.20062 8.57155C6.8726 8.21771 5.98602 7.22558 5.81877 6.9912C5.68053 6.78376 5.60048 6.5512 5.58508 6.31217C5.56472 6.11671 5.29882 3.49421 5.29882 3.49421C5.52652 2.77338 5.88864 2.08941 6.37089 1.4692C6.76193 0.953686 7.19467 0.462729 7.66589 0C7.66589 0 6.39981 0.769802 5.67512 1.73136C5.24521 2.29534 4.90652 2.90747 4.66846 3.55072C4.66846 3.55072 4.83679 5.86012 4.87215 6.31403C4.88332 6.64244 4.99503 6.9624 5.19593 7.24132Z" fill="url(#paint3_linear_12_1811)"/>
<path d="M5.30335 14.1353C5.30335 14.1353 5.30335 13.7295 5.58957 13.044C5.87579 12.3585 6.87601 10.8134 6.87601 10.8134L6.95214 9.71567L6.7538 9.4785C6.7538 9.4785 5.30439 8.99679 4.71691 8.72539C4.12945 8.45396 3.97508 8.37985 3.97508 8.37985C3.75315 8.01392 3.56461 7.63357 3.41118 7.24229C3.10887 6.51326 2.9888 6.1816 2.9888 6.1816C2.92256 5.46919 2.90574 4.75404 2.93841 4.03989C2.9888 2.80505 3.06384 2.40857 3.06384 2.40857C3.06384 2.40857 2.70256 2.85878 2.54176 3.90555C2.38095 4.95233 2.34665 6.25295 2.34665 6.25295L3.25145 8.71795C3.25145 8.71795 4.00188 9.1626 4.97421 9.62396C5.28421 9.77733 5.61236 9.90156 5.95299 9.9945L3.45728 10.3271L1.087 12.0871C0.699587 12.7637 0.411478 13.4795 0.229364 14.2177C-0.0772397 15.4544 0.0149559 16.805 0.0149559 16.805C0.0149559 16.805 0.388026 15.4544 0.830781 14.2428C1.27353 13.0311 1.65411 12.4678 1.65411 12.4678L3.79819 11.032L5.49633 10.8921L4.18627 13.7638C4.18627 13.7638 4.17447 14.1343 4.36208 14.9681C4.5497 15.8018 5.3516 18.0167 5.3516 18.0167L7.39705 20L7.5943 19.9695L6.05056 17.7657L5.30335 14.1353Z" fill="url(#paint4_linear_12_1811)"/>
<path d="M14.701 3.49421C14.701 3.49421 14.4352 6.11395 14.4137 6.31217C14.3983 6.5512 14.3183 6.78376 14.18 6.9912C14.0138 7.22651 13.1262 8.21678 12.7982 8.57155C12.4701 8.92636 12.8271 9.51736 12.8271 9.51736C12.8271 9.51736 14.6592 7.43306 14.8039 7.24132C15.0042 6.9626 15.1152 6.64291 15.1256 6.31496C15.162 5.86105 15.3303 3.55164 15.3303 3.55164C15.0917 2.90857 14.7531 2.29651 14.3237 1.73228C13.6001 0.769802 12.334 0 12.334 0C12.8069 0.462485 13.2411 0.953457 13.6333 1.4692C14.1137 2.08981 14.4743 2.77371 14.701 3.49421Z" fill="url(#paint5_linear_12_1811)"/>
<path d="M19.7726 14.215C19.5907 13.4766 19.3026 12.7608 18.9149 12.0843L16.5435 10.3243L14.0435 9.99264C14.3839 9.89966 14.7116 9.77543 15.0212 9.6221C15.9979 9.15892 16.7451 8.71613 16.7451 8.71613L17.6488 6.25109C17.6488 6.25109 17.6145 4.95419 17.4537 3.90462C17.2929 2.85507 16.938 2.40857 16.938 2.40857C16.938 2.40857 17.0131 2.80412 17.0635 4.03896C17.0955 4.75311 17.0787 5.46826 17.0131 6.18067C17.0131 6.18067 16.8909 6.51233 16.5918 7.24136C16.4384 7.63264 16.2499 8.01299 16.0279 8.37892C16.0279 8.37892 15.8735 8.4521 15.2861 8.72446C14.6986 8.99679 13.2492 9.47757 13.2492 9.47757L13.0508 9.71474L13.1259 10.8124C13.1259 10.8124 14.1293 12.3576 14.4123 13.0431C14.6953 13.7286 14.6986 14.1343 14.6986 14.1343L13.9481 17.7647L12.4033 19.9695L12.6006 20L14.6471 18.0186C14.6471 18.0186 15.4479 15.8064 15.6366 14.9699C15.8253 14.1335 15.8124 13.7657 15.8124 13.7657L14.5024 10.894L16.1994 11.0338L18.3435 12.4697C18.3435 12.4697 18.7252 13.0329 19.1679 14.2446C19.6107 15.4563 19.9837 16.8069 19.9837 16.8069C19.9837 16.8069 20.0802 15.4516 19.7726 14.215Z" fill="url(#paint6_linear_12_1811)"/>
</g>
</g>
<defs>
<linearGradient id="paint0_linear_12_1811" x1="10.0064" y1="4.50769" x2="10.0064" y2="9.1154" gradientUnits="userSpaceOnUse">
<stop stop-color="#F8EC20"/>
<stop offset="1" stop-color="#A79F1E"/>
</linearGradient>
<linearGradient id="paint1_linear_12_1811" x1="10.0071" y1="8.30762" x2="10.0071" y2="10.7643" gradientUnits="userSpaceOnUse">
<stop stop-color="#F8EC20"/>
<stop offset="1" stop-color="#A79F1E"/>
</linearGradient>
<linearGradient id="paint2_linear_12_1811" x1="10.0071" y1="9.53955" x2="10.0071" y2="12.8763" gradientUnits="userSpaceOnUse">
<stop stop-color="#F8EC20"/>
<stop offset="1" stop-color="#A79F1E"/>
</linearGradient>
<linearGradient id="paint3_linear_12_1811" x1="6.1672" y1="0" x2="6.1672" y2="9.51736" gradientUnits="userSpaceOnUse">
<stop stop-color="#F8EC20"/>
<stop offset="1" stop-color="#A79F1E"/>
</linearGradient>
<linearGradient id="paint4_linear_12_1811" x1="3.79812" y1="2.40857" x2="3.79812" y2="20" gradientUnits="userSpaceOnUse">
<stop stop-color="#F8EC20"/>
<stop offset="1" stop-color="#A79F1E"/>
</linearGradient>
<linearGradient id="paint5_linear_12_1811" x1="13.8321" y1="0" x2="13.8321" y2="9.51736" gradientUnits="userSpaceOnUse">
<stop stop-color="#F8EC20"/>
<stop offset="1" stop-color="#A79F1E"/>
</linearGradient>
<linearGradient id="paint6_linear_12_1811" x1="16.2007" y1="2.40857" x2="16.2007" y2="20" gradientUnits="userSpaceOnUse">
<stop stop-color="#F8EC20"/>
<stop offset="1" stop-color="#A79F1E"/>
</linearGradient>
<clipPath id="clip0_12_1811">
<rect width="20" height="20" fill="white"/>
</clipPath>
</defs>
</svg>
