<svg width="20" height="14" viewBox="0 0 20 14" fill="none" xmlns="http://www.w3.org/2000/svg">
<path d="M15.4878 1.19753C13.3333 1.19753 11.7073 2.54958 11.0569 4.67422C10.0407 3.16765 9.22764 1.46794 8.78049 0H6.50406V5.6786C6.50406 6.79887 5.52846 7.72598 4.34959 7.72598C3.17073 7.72598 2.19512 6.79887 2.19512 5.6786V0.0386297H0V5.71723C0 8.07365 1.99187 9.96652 4.43089 9.96652C6.86992 9.96652 8.86179 8.07365 8.86179 5.71723V4.75148C9.30894 5.60134 9.87805 6.52846 10.4878 7.33968L9.06504 13.6364H11.3821L12.3577 9.0394C13.252 9.58022 14.2683 9.88926 15.4878 9.88926C17.9675 9.88926 20 7.95776 20 5.48545C20 3.12902 17.9675 1.19753 15.4878 1.19753ZM15.4878 7.72598C14.5935 7.72598 13.6585 7.33968 12.9268 6.76024L13.1707 5.91038V5.87175C13.3333 4.94463 13.8618 3.39943 15.5285 3.39943C16.7886 3.39943 17.8049 4.36518 17.8049 5.56271C17.7642 6.76024 16.6667 7.72598 15.4878 7.72598Z" fill="url(#paint0_linear_12_1838)"/>
<defs>
<linearGradient id="paint0_linear_12_1838" x1="9.99985" y1="0" x2="9.99985" y2="13.6364" gradientUnits="userSpaceOnUse">
<stop stop-color="#F8EC20"/>
<stop offset="1" stop-color="#A79F1E"/>
</linearGradient>
</defs>
</svg>
