<svg width="600" height="295" viewBox="0 0 600 295" fill="none" xmlns="http://www.w3.org/2000/svg">
<path opacity="0.3" d="M570.381 293.627C571.344 293.624 572.345 289.615 572.713 288.872C585.428 263.2 592.475 233.622 590.947 204.943C589.259 173.256 575.805 144.48 553.43 122.14C531.365 100.108 503.81 83.5146 472.155 81.1533C454.86 79.8634 437.874 82.8623 421.022 86.4179C413.119 88.0853 405.044 90.0654 396.925 90.132C389.434 90.1935 383.129 87.0912 377.492 82.3345C366.06 72.6884 357.206 60.1876 346.551 49.7139C335.376 38.7293 322.811 29.2677 308.904 22.0074C279.132 6.46457 244.568 0.92625 211.295 0.104169C179.835 -0.672997 145.422 2.65148 117.566 18.484C106.595 24.7199 96.7896 33.2916 90.5924 44.4081C83.2241 57.6253 81.9027 73.0587 84.2616 87.8165C86.7322 103.274 92.773 118.039 100.004 131.839C106.452 144.143 116.004 156.6 115.72 171.181C115.532 180.882 109.744 188.416 102.247 194.025C91.4713 202.087 78.711 207.2 67.0286 213.739C55.0683 220.435 43.5 228.589 35.9045 240.239C28.2722 251.946 25.7755 265.89 26.52 279.682C26.7727 284.361 27.3684 289.018 28.2095 293.627H570.381Z" fill="#454A51"/>
<path d="M137.168 221.414L119.079 223.053L96.1257 225.137L89.5631 225.732L88.6481 225.814C88.6481 224.563 81.4402 194.235 77.8256 179.119C76.8024 174.83 80.0519 170.71 84.4625 170.71H112.485C119.473 170.71 125.568 175.459 127.276 182.233L137.168 221.414Z" fill="#1C1D1E"/>
<path d="M144.747 221.414L118.768 223.77L96.2289 225.814C96.2289 225.727 96.1945 225.494 96.1257 225.137C95.6156 222.414 93.2725 212.316 90.7318 201.544C88.8414 193.518 86.8396 185.121 85.4064 179.119C84.3804 174.83 87.6325 170.71 92.0405 170.71H120.066C127.052 170.71 133.147 175.459 134.857 182.233L144.747 221.414Z" fill="#292B2D"/>
<path d="M125.344 208.617L119.08 223.054L118.768 223.77L96.2291 225.814C96.2291 225.727 96.1947 225.494 96.1259 225.137C95.6158 222.414 93.2727 212.316 90.732 201.543C96.4274 180.528 112.485 170.71 112.485 170.71L125.344 208.617Z" fill="#292B2D"/>
<path d="M179.8 225.813C179.8 224.562 172.59 194.235 168.977 179.117C167.952 174.829 171.204 170.71 175.613 170.71H203.636C210.623 170.71 216.718 175.458 218.428 182.232L228.318 221.415L179.8 225.813Z" fill="#1C1D1E"/>
<path d="M187.379 225.813C187.379 224.562 180.169 194.235 176.557 179.117C175.532 174.829 178.783 170.71 183.192 170.71H211.216C218.203 170.71 224.297 175.458 226.007 182.232L235.898 221.415L187.379 225.813Z" fill="#292B2D"/>
<path d="M267.858 225.813C267.858 224.562 260.648 194.235 257.035 179.117C256.011 174.829 259.262 170.71 263.67 170.71H291.694C298.681 170.71 304.776 175.458 306.485 182.232L316.376 221.415L267.858 225.813Z" fill="#1C1D1E"/>
<path d="M323.956 221.414L275.436 225.814C275.436 225.798 275.436 225.78 275.431 225.756C275.328 224.571 272.583 212.733 269.656 200.338C267.85 192.686 265.975 184.819 264.613 179.119C263.59 174.83 266.842 170.71 271.25 170.71H299.273C300.169 170.71 301.052 170.789 301.915 170.94C307.755 171.963 312.576 176.329 314.064 182.233L323.956 221.414Z" fill="#292B2D"/>
<path d="M216.464 208.617L210.2 223.054L209.888 223.77L187.349 225.814C187.349 225.727 187.315 225.494 187.246 225.137C186.736 222.414 184.393 212.316 181.852 201.543C187.548 180.528 203.605 170.71 203.605 170.71L216.464 208.617Z" fill="#292B2D"/>
<path d="M303.916 208.617L297.652 223.054L297.34 223.771L275.431 225.756C275.328 224.572 272.583 212.734 269.656 200.338C273.81 187.035 286.187 176.451 294.273 170.71H299.273C300.169 170.71 301.052 170.79 301.915 170.941L303.916 208.617Z" fill="#292B2D"/>
<path d="M175.832 196.071C175.832 196.071 177.071 190.825 180.618 189.675C184.165 188.524 186.366 190.628 186.306 191.374C186.247 192.121 185.595 193.514 183.759 194.06C181.923 194.606 175.832 196.071 175.832 196.071Z" fill="#FFDBD9"/>
<path d="M139.001 140.987C137.425 140.091 135.536 139.994 134.215 140.072C134.555 139.721 135.224 139.593 135.224 139.593C134.405 139.471 132.576 140.283 132.576 140.283C121.182 135.893 119.39 152.671 119.63 156.568C119.868 160.466 119.897 164.953 114.208 168.449C103.016 175.327 112.46 187.336 112.46 187.336C112.548 187.387 117.667 196.07 117.667 196.07C117.379 192.92 131.913 176.297 139.496 171.319C141.342 168.602 141.998 163.801 142.047 163.423C141.728 167.23 141.077 169.365 140.496 170.567C146.916 164.658 143.178 143.361 139.001 140.987Z" fill="#163560"/>
<path d="M139.047 171.567C139.085 171.584 135.386 173.505 132.604 172.744C129.986 172.03 128.276 168.637 128.313 168.629C129.421 168.409 129.74 166.886 129.717 160.341L130.218 160.44L138.643 162.107C138.643 162.107 138.451 164.759 138.446 167.257C138.44 169.354 138.567 171.343 139.047 171.567Z" fill="#FFDBD9"/>
<path d="M138.643 162.107C138.643 162.107 138.451 164.759 138.446 167.256C133.731 167.124 131.239 162.823 130.218 160.439L138.643 162.107Z" fill="#FFDBD9"/>
<path d="M129.348 159.522C129.348 159.522 126.877 155.619 126.284 152.281C125.861 149.897 127.074 141.064 135.951 142.336C135.951 142.336 138.53 142.59 140.953 144.227C142.881 145.529 145.662 148.339 142.551 156.047L141.744 158.651L129.348 159.522Z" fill="#163560"/>
<path d="M140.217 164.473C140.217 164.473 129.063 164.657 129.055 157.708C129.048 150.76 127.603 146.105 134.724 145.693C141.846 145.282 143.233 147.932 143.799 150.251C144.366 152.569 143.119 164.246 140.217 164.473Z" fill="#FFDBD9"/>
<path d="M139.805 145.523C139.805 145.523 136.75 153.675 132.063 154.88C127.376 156.086 125.343 154.83 125.343 154.83C125.343 154.83 128.938 151.973 129.685 146.989C129.685 146.989 137.501 141.644 139.805 145.523Z" fill="#163560"/>
<path d="M139.047 146.185C139.047 146.185 141.328 148.005 141.884 149.774C142.44 151.544 142.691 155.185 143.753 155.062C143.753 155.062 146.054 149.522 143.467 146.387C140.725 143.063 139.047 146.185 139.047 146.185Z" fill="#163560"/>
<path d="M109.662 228.112C110.263 229.782 112.108 230.212 114.581 229.922C119.296 229.371 126.3 226.206 131.347 224.016C139.041 220.681 142.539 223.815 144.987 221.692C147.435 219.569 142.189 214.85 146.736 192.932C148.278 185.5 138.506 169.565 138.506 169.565C138.506 169.565 137.662 174.178 128.313 168.629C127.982 168.433 124.303 173.882 120.758 180.6C116.851 188.011 113.109 196.963 114.208 201.576C116.307 210.371 107.913 223.259 109.662 228.112Z" fill="#FFFAA8"/>
<path d="M138.506 169.564L144.27 193.208C144.27 193.208 144.987 194.484 146.112 196.301C148.751 200.569 153.635 207.817 156.762 208.553C158.304 208.917 161.585 207.633 165.215 205.799C172.079 202.331 180.196 196.896 180.196 196.896C180.72 193.748 177.982 191.183 177.982 191.183C177.982 191.183 161.543 197.361 159.91 197.478C156.351 197.732 152.729 180.555 149.403 174.832C146.998 170.692 138.506 169.564 138.506 169.564Z" fill="#FFFAA8"/>
<path d="M109.662 228.112C110.263 229.782 112.108 230.212 114.581 229.922C117.844 228.5 131.941 223.039 131.784 219.338C131.549 213.859 129.073 213.684 130.822 206.922C132.226 201.492 119.201 191.395 117.123 189.201C113.216 196.612 113.109 196.962 114.208 201.576C116.307 210.37 107.913 223.259 109.662 228.112Z" fill="#FFFAA8"/>
<path d="M146.111 196.302C148.75 200.569 153.635 207.818 156.761 208.554C158.304 208.917 161.584 207.634 165.215 205.799C162.566 206.483 159.992 206.464 157.491 206.223C154.78 205.96 153.993 202.638 149.708 197.654C146.93 194.422 146.248 195.235 146.111 196.302Z" fill="#FFFAA8"/>
<path d="M127.501 195.487C127.501 195.487 129.442 190.998 132.794 190.535C136.146 190.072 137.777 192.302 137.605 192.96C137.432 193.617 136.629 194.758 134.902 194.953C133.175 195.149 127.501 195.487 127.501 195.487Z" fill="#FFDBD9"/>
<path d="M127.274 178.847L116.732 194.523L128.93 192.001C128.93 192.001 129.893 192.02 130.396 193.468C130.89 194.888 130.218 196.071 130.218 196.071C130.218 196.071 109.363 212.286 107.559 204.252C105.759 196.218 111.854 178.765 113.931 174.332C116.011 169.898 128.314 168.628 128.314 168.628L127.274 178.847Z" fill="#FFFAA8"/>
<path d="M272.226 158.266C271.239 156.511 265.973 157.169 264.218 157.608C262.462 158.047 259.171 161.566 259.171 161.566C259.171 161.566 253.096 165.672 249.104 167.453C247.547 168.147 246.333 168.628 245.964 168.625C244.648 168.615 235.873 139.728 235.873 139.728L233.721 163.849C233.721 163.849 240.846 178.498 243.989 177.774C244.743 177.6 246.132 176.872 247.81 175.862C253.135 172.656 261.363 166.63 261.363 166.63L261.341 166.582C262.076 166.301 264.739 165.286 266.521 164.629C268.606 163.861 273.213 160.021 272.226 158.266Z" fill="#FFDBD9"/>
<path d="M233.271 148.337C232.991 145.872 227.365 135.11 227.365 135.11L228.01 128.482L226.348 128.051L225.358 127.794L216.195 127.133C216.248 127.988 216.228 128.742 216.149 129.443C215.945 131.335 215.333 132.866 214.695 135.117C214.651 135.435 210.53 140.33 212.285 144.827C214.04 149.325 220.952 153.165 225.011 152.178C229.07 151.19 233.632 151.519 233.271 148.337Z" fill="#FFDBD9"/>
<path d="M202.338 201.021C202.338 201.021 196.739 204.141 195.352 215.13C193.965 226.119 236.969 219.01 236.969 218.725C236.969 218.44 233.721 199.687 233.721 199.687L202.338 201.021Z" fill="#233862"/>
<path d="M214.754 146.199C214.754 146.199 222.652 151.464 231.045 146.199L233.721 203.465C233.721 203.465 215.248 208.007 209.57 200.799C203.892 193.592 214.754 146.199 214.754 146.199Z" fill="#483F3E"/>
<path d="M249.104 167.453C248.91 170.02 248.534 173.193 247.81 175.862C246.132 176.872 244.743 177.6 243.989 177.774C240.846 178.498 233.721 163.849 233.721 163.849L235.873 139.728C235.873 139.728 244.648 168.615 245.964 168.625C246.333 168.628 247.547 168.147 249.104 167.453Z" fill="#FFFAA8"/>
<path d="M353.721 207.389C353.721 207.389 357.412 205.692 358.499 206.055C359.587 206.417 362.339 208.602 362.366 209.587C362.393 210.572 361.995 212.195 360.982 212.248C359.97 212.301 355.969 211.943 354.981 211.712C353.992 211.48 351.802 210.165 353.721 207.389Z" fill="#FFDBD9"/>
<path d="M355.172 206.898C353.198 205.581 334.82 201.819 333.339 201.02C331.858 200.223 323.301 176.971 321.435 175.434C321.435 175.434 321.418 175.42 321.387 175.397C321.255 175.293 321.109 175.193 320.952 175.097C318.704 173.639 308.48 168.194 287.769 173.565C287.769 173.565 285.804 182.698 285.432 192.673C284.994 204.37 286.745 217.226 296.421 217.847C296.859 217.877 297.287 217.9 297.708 217.92C314.595 218.809 319.46 214.929 319.46 214.929L320.166 200.795C320.167 200.795 320.167 200.796 320.167 200.796C320.167 200.796 320.167 200.796 320.171 200.8C323.61 205.789 327.145 209.952 328.073 210.374C329.883 211.193 349.742 212.773 353.273 211.72C356.801 210.666 355.172 206.898 355.172 206.898Z" fill="#FFFAA8"/>
<path d="M310.011 172.479L309.828 173.696C309.828 173.696 309.611 177.555 304.838 177.434C300.066 177.316 296.806 174.759 297.357 171.837C298.108 169.621 298.798 168.125 299.101 166.245C299.213 165.547 299.273 164.797 299.263 163.94L308.381 165.07L310.996 165.894L310.011 172.479Z" fill="#FFDBD9"/>
<path d="M310.996 165.893L310.011 172.479C308.98 172.788 307.851 172.905 306.629 172.73C302.451 172.127 300.192 168.673 299.101 166.245C299.214 165.547 299.273 164.797 299.264 163.94L308.381 165.07L310.996 165.893Z" fill="#FFDBD9"/>
<path d="M311.065 169.173C311.065 169.173 299.081 169.845 298.777 162.376C298.473 154.907 296.722 149.963 304.36 149.218C311.998 148.473 313.602 151.262 314.31 153.731C315.018 156.199 314.174 168.806 311.065 169.173Z" fill="#FFDBD9"/>
<path d="M317.354 148.653C317.354 148.653 314.143 147.935 310.553 145.717C307.639 143.918 303.502 144.84 302.133 145.327C302.197 145.127 302.319 144.859 302.554 144.606C302.554 144.606 301.923 144.929 301.758 145.483C301.692 145.518 301.662 145.544 301.676 145.556C301.676 145.556 301.045 145.344 300.602 145.472C300.602 145.472 300.899 145.472 300.976 145.675C300.984 145.696 300.998 145.715 301.015 145.733C295.828 147.376 294.275 154.976 295.58 156.974C297.149 159.378 299.283 164.587 299.283 164.587C299.283 164.587 299.692 163.49 299.621 161.564C299.551 159.637 301.172 159.871 303.343 159.313C305.515 158.756 304.152 156.12 306.154 154.927C308.155 153.735 312.676 155.375 314.678 154.415C317.532 153.385 317.317 148.903 317.354 148.653Z" fill="#163560"/>
<path d="M297.708 217.92C297.287 217.9 296.859 217.877 296.421 217.847C286.745 217.226 284.994 204.37 285.432 192.673C286.505 193.411 301.019 203.676 297.708 217.92Z" fill="#FFFAA8"/>
<path d="M291.163 205.99C291.163 205.99 294.854 204.294 295.941 204.656C297.028 205.018 299.781 207.203 299.808 208.188C299.835 209.172 299.436 210.796 298.424 210.849C297.412 210.902 293.411 210.544 292.422 210.312C291.434 210.081 289.244 208.766 291.163 205.99Z" fill="#FFDBD9"/>
<path d="M292.06 172.812C292.06 172.812 284.792 173.361 280.678 176.894C276.939 180.105 265.043 196.711 261.547 202.799C260.991 203.768 261.809 206.174 262.641 206.921C264.723 208.792 269.308 210.598 281.337 210.374H292.06C292.06 210.374 293.514 205.769 291.375 204.453L274.407 201.737C274.407 201.737 285.615 193.078 287.919 190.455C290.223 187.832 292.06 172.812 292.06 172.812Z" fill="#FFFAA8"/>
<path d="M353.273 211.72C349.742 212.773 330.006 212.154 328.196 211.334C327.268 210.913 323.61 205.789 320.171 200.799C320.368 200.855 326.654 202.705 330.11 206.7C330.11 206.7 332.193 208.017 338.338 208.346C344.483 208.675 352.299 209.607 353.273 211.72Z" fill="#FFFAA8"/>
<path d="M227.481 170.688L226.901 176.458L225.052 194.855L223.146 213.832C207.128 217.291 193.746 206.74 193.746 206.74C193.746 206.74 199.67 181.141 200.545 175.856C201.424 170.573 196.816 150.767 200.766 144.938C204.715 139.106 214.029 136.157 214.029 136.157L227.481 170.688Z" fill="#FFFAA8"/>
<path d="M235.872 139.727C234.994 136.932 226.482 134.163 226.482 134.163C235.652 150.946 227.482 170.689 226.482 173.19C226.354 173.508 226.205 174.409 226.041 175.734C223.403 174.309 202.685 160.666 202.343 160.442C202.449 160.822 210.848 189.552 224.425 194.638C223.723 204.419 223.146 213.832 223.146 213.832C224.243 215.187 238.286 214.529 238.286 214.529C232.197 188.602 236.75 142.523 235.872 139.727Z" fill="#FFFAA8"/>
<path d="M263.628 161.174C262.64 159.418 257.375 160.077 255.619 160.515C254.062 160.905 251.296 163.718 250.693 164.347C248.896 164.845 239.936 167.313 233.066 168.961C228.981 169.938 225.509 170.688 224.462 170.688C223.301 170.688 220.687 166.739 217.913 161.888C217.913 161.885 217.913 161.885 217.913 161.885C213.489 154.147 208.665 144.112 208.665 144.112C200.384 144.579 200.986 156.128 202.339 160.44C202.879 162.161 205.814 165.805 209.412 169.563C214.823 175.224 221.737 181.142 224.242 181.142C225.555 181.142 228.843 179.996 232.74 178.423C241.215 175.001 252.986 169.397 252.986 169.397C253.952 169.029 256.302 168.134 257.923 167.537C260.007 166.769 264.615 162.929 263.628 161.174Z" fill="#FFDBD9"/>
<path d="M232.74 178.422C228.973 180.377 225.576 181.619 224.263 181.619C221.758 181.619 214.482 175.229 209.071 169.568C205.474 165.81 202.077 161.484 201.537 159.763C200.185 155.452 200.846 143.852 209.126 143.385C209.126 143.385 214.399 153.778 218.822 161.516C221.596 166.368 223.247 170.28 224.409 170.28C225.455 170.28 228.873 169.623 233.066 168.96C233.313 171.083 233.467 174.496 232.74 178.422Z" fill="#FFFAA8"/>
<path d="M215.106 133.73C215.106 133.73 209.503 135.039 209.372 138.109C209.372 138.109 212.672 147.211 214.124 149.05C214.124 149.05 216.047 149.63 216.47 149.724C216.47 149.724 215.686 150.806 215.741 151.3C215.796 151.793 225.593 165.844 225.593 165.844C225.593 165.844 220.73 141.996 215.106 133.73Z" fill="#FFFAA8"/>
<path d="M229.103 165.146C231.466 152.406 228.784 140.755 227.257 136.246L227.365 135.11L227.446 134.288C230.315 136.954 233.652 143.647 233.721 144.112C233.806 144.658 232.648 146.198 232.648 146.198C233.553 146.567 234.336 147.761 234.336 147.761C234.419 149.22 229.251 164.679 229.103 165.146Z" fill="#FFFAA8"/>
<path d="M228.01 128.482L227.365 135.111L227.247 136.325C223.604 135.005 216.373 127.729 216.373 127.729L226.349 128.051L228.01 128.482Z" fill="#FFDBD9"/>
<path d="M228.248 131.754C228.248 131.754 216.315 133.04 215.629 125.596C214.942 118.152 212.94 113.304 220.53 112.169C228.12 111.033 229.865 113.737 230.698 116.166C231.531 118.595 231.335 131.228 228.248 131.754Z" fill="#FFDBD9"/>
<path d="M233.477 110.939C233.477 110.939 230.233 110.386 226.535 108.356C223.533 106.707 219.449 107.841 218.106 108.397C218.159 108.194 218.268 107.92 218.49 107.655C218.49 107.655 217.877 108.01 217.739 108.573C217.676 108.611 217.647 108.638 217.662 108.65C217.662 108.65 217.02 108.47 216.584 108.62C216.584 108.62 216.881 108.605 216.969 108.803C216.978 108.824 216.993 108.843 217.011 108.86C211.915 110.767 210.753 118.436 212.158 120.364C213.849 122.685 216.221 127.728 216.221 127.728C216.221 127.728 216.599 126.662 216.43 124.741C216.261 122.821 217.892 122.971 220.032 122.303C222.172 121.634 220.676 119.072 222.614 117.778C224.551 116.485 229.429 118.326 231.1 116.83C232.759 115.243 233.454 111.191 233.477 110.939Z" fill="#163560"/>
<path d="M321.997 225.122C319.712 217.168 312.438 211.689 304.165 211.689H105.57C94.328 211.689 84.2908 218.731 80.4672 229.302L63.9729 274.908C63.0926 277.341 62.9473 279.811 63.3938 282.114C64.5759 288.232 69.9302 293.185 76.8 293.185H341.529L321.997 225.122Z" fill="#E9E049"/>
<path d="M181.069 282.114V293.185H76.8C69.9302 293.185 64.5759 288.232 63.3938 282.114H181.069Z" fill="#E9E049"/>
<path d="M384.581 266.037L372.838 225.122C370.556 217.168 363.283 211.689 355.009 211.689H158.567C144.075 211.689 132.544 223.836 133.297 238.308L135.05 272.066C135.241 275.725 136.309 279.141 138.041 282.114C141.912 288.755 149.109 293.184 157.298 293.184H364.128C378.275 293.185 388.484 279.636 384.581 266.037Z" fill="#E9E049"/>
<path d="M364.129 293.185H255.505C239.46 264.998 218.6 228.572 208.426 211.689H355.009C363.283 211.689 370.557 217.168 372.838 225.122L384.581 266.037C388.484 279.636 378.275 293.185 364.129 293.185Z" fill="#E9E049"/>
<path d="M155.726 211.65L154.631 211.625C154.634 211.49 154.814 198.002 144.423 190.863L145.044 189.96C150.74 193.874 153.342 199.564 154.521 203.647C155.794 208.059 155.729 211.506 155.726 211.65Z" fill="#466AA5"/>
<path d="M146.441 191.606C145.999 192.151 145.199 192.235 144.654 191.793L142.905 190.375C142.36 189.933 142.276 189.133 142.718 188.588C143.16 188.042 143.96 187.959 144.506 188.401L146.254 189.819C146.8 190.261 146.883 191.061 146.441 191.606Z" fill="#2E3552"/>
<path d="M158.733 211.69H151.473C151.277 211.69 151.118 211.531 151.118 211.335C151.118 211.138 151.277 210.979 151.473 210.979H158.733C158.929 210.979 159.088 211.139 159.088 211.335C159.088 211.531 158.929 211.69 158.733 211.69Z" fill="#2E3552"/>
<path d="M247.75 211.65L246.655 211.625C246.658 211.49 246.838 198.002 236.447 190.863L237.068 189.96C242.764 193.874 245.365 199.564 246.545 203.647C247.818 208.059 247.753 211.506 247.75 211.65Z" fill="#466AA5"/>
<path d="M238.465 191.606C238.023 192.151 237.223 192.235 236.678 191.793L234.929 190.375C234.384 189.933 234.3 189.133 234.742 188.588C235.184 188.042 235.984 187.959 236.53 188.401L238.278 189.819C238.824 190.261 238.907 191.061 238.465 191.606Z" fill="#2E3552"/>
<path d="M250.757 211.69H243.497C243.301 211.69 243.142 211.531 243.142 211.335C243.142 211.138 243.301 210.979 243.497 210.979H250.757C250.953 210.979 251.112 211.139 251.112 211.335C251.112 211.531 250.953 211.69 250.757 211.69Z" fill="#2E3552"/>
<path d="M328.819 211.65L327.723 211.625C327.727 211.49 327.907 198.002 317.516 190.863L318.136 189.96C323.833 193.874 326.434 199.564 327.613 203.647C328.887 208.059 328.822 211.506 328.819 211.65Z" fill="#466AA5"/>
<path d="M319.534 191.606C319.092 192.151 318.292 192.235 317.746 191.793L315.998 190.375C315.453 189.933 315.369 189.133 315.811 188.588C316.253 188.042 317.053 187.959 317.598 188.401L319.347 189.819C319.892 190.261 319.976 191.061 319.534 191.606Z" fill="#2E3552"/>
<path d="M331.826 211.69H324.566C324.37 211.69 324.211 211.531 324.211 211.335C324.211 211.138 324.37 210.979 324.566 210.979H331.826C332.022 210.979 332.181 211.139 332.181 211.335C332.181 211.531 332.022 211.69 331.826 211.69Z" fill="#2E3552"/>
<path opacity="0.5" d="M304.055 201.549L304.099 210.285C304.101 211.06 304.738 211.692 305.512 211.689L308.195 211.681C309.014 211.678 309.682 211.005 309.68 210.186L309.636 201.531C309.632 200.43 308.962 199.481 308.011 199.064C307.887 199.009 307.806 198.881 307.825 198.745C307.83 198.706 307.833 198.666 307.832 198.626L307.831 198.28L305.838 198.286L305.839 198.632C305.839 198.677 305.843 198.722 305.85 198.765C305.869 198.888 305.808 199.009 305.694 199.058C304.729 199.475 304.051 200.438 304.055 201.549Z" fill="#89BEF4"/>
<path opacity="0.3" d="M304.055 201.55L304.099 210.285C304.101 211.06 304.738 211.692 305.512 211.69L307.198 211.684C308.017 211.681 308.686 211.009 308.683 210.19L308.639 201.534C308.636 200.434 307.966 199.484 307.015 199.068C306.969 199.047 306.929 199.017 306.898 198.98C306.845 198.918 306.817 198.834 306.828 198.749C306.833 198.709 306.836 198.669 306.836 198.629L306.835 198.283L305.838 198.286L305.839 198.632C305.839 198.678 305.843 198.722 305.85 198.765C305.869 198.888 305.808 199.01 305.694 199.059C304.729 199.475 304.051 200.438 304.055 201.55Z" fill="#CED4EA"/>
<path opacity="0.3" d="M306.8 199.055C306.839 199.038 306.873 199.012 306.898 198.98C306.929 199.017 306.969 199.047 307.015 199.067C307.966 199.484 308.636 200.433 308.639 201.534L308.683 210.19C308.686 211.008 308.017 211.681 307.198 211.684L306.618 211.686C305.843 211.688 305.207 211.056 305.204 210.281L305.16 201.546C305.156 200.434 305.835 199.471 306.8 199.055Z" fill="#CED4EA"/>
<path d="M309.638 202.092L309.673 208.124L304.092 208.142L304.057 202.11L309.638 202.092Z" fill="#2C3A64"/>
<path d="M307.956 197.715L305.74 197.718L305.741 198.243L307.957 198.24L307.956 197.715Z" fill="#2C3A64"/>
<path opacity="0.5" d="M165.215 201.445L165.259 210.18C165.262 210.955 165.898 211.587 166.673 211.584L169.356 211.576C170.175 211.573 170.843 210.901 170.84 210.081L170.796 201.426C170.793 200.326 170.123 199.376 169.172 198.959C169.047 198.905 168.967 198.776 168.985 198.64C168.99 198.601 168.993 198.561 168.993 198.521L168.992 198.175L166.998 198.181L166.999 198.527C167 198.572 167.003 198.617 167.01 198.66C167.029 198.783 166.968 198.904 166.855 198.954C165.89 199.37 165.211 200.333 165.215 201.445Z" fill="#89BEF4"/>
<path opacity="0.3" d="M165.215 201.445L165.259 210.18C165.262 210.955 165.898 211.587 166.673 211.585L168.359 211.579C169.178 211.576 169.846 210.904 169.844 210.085L169.8 201.429C169.796 200.329 169.126 199.38 168.175 198.963C168.129 198.942 168.09 198.912 168.058 198.875C168.005 198.813 167.977 198.729 167.989 198.644C167.994 198.604 167.996 198.565 167.996 198.524L167.995 198.178L166.998 198.182L167 198.527C167 198.573 167.004 198.617 167.01 198.66C167.029 198.783 166.968 198.905 166.855 198.954C165.89 199.37 165.211 200.333 165.215 201.445Z" fill="#CED4EA"/>
<path opacity="0.3" d="M167.96 198.95C168 198.934 168.033 198.908 168.059 198.875C168.09 198.912 168.13 198.943 168.176 198.963C169.126 199.379 169.796 200.329 169.8 201.429L169.844 210.085C169.846 210.904 169.178 211.577 168.359 211.579L167.779 211.581C167.004 211.584 166.367 210.952 166.365 210.177L166.321 201.441C166.317 200.329 166.995 199.367 167.96 198.95Z" fill="#CED4EA"/>
<path d="M170.798 201.987L170.833 208.019L165.252 208.038L165.217 202.005L170.798 201.987Z" fill="#2C3A64"/>
<path d="M169.116 197.617L166.9 197.62L166.901 198.144L169.117 198.141L169.116 197.617Z" fill="#2C3A64"/>
<path opacity="0.5" d="M201.537 201.445L201.581 210.18C201.584 210.955 202.22 211.588 202.995 211.585L205.678 211.576C206.497 211.574 207.165 210.901 207.163 210.082L207.119 201.426C207.115 200.326 206.445 199.376 205.494 198.96C205.369 198.905 205.289 198.776 205.308 198.641C205.312 198.601 205.315 198.562 205.315 198.521L205.314 198.175L203.321 198.182L203.322 198.527C203.322 198.573 203.326 198.617 203.332 198.661C203.352 198.783 203.29 198.905 203.177 198.954C202.212 199.371 201.534 200.333 201.537 201.445Z" fill="#89BEF4"/>
<path opacity="0.3" d="M201.537 201.445L201.581 210.18C201.584 210.955 202.22 211.587 202.995 211.585L204.681 211.579C205.5 211.576 206.169 210.904 206.166 210.085L206.122 201.429C206.118 200.329 205.448 199.38 204.497 198.963C204.452 198.942 204.412 198.912 204.38 198.875C204.327 198.813 204.3 198.729 204.311 198.644C204.316 198.604 204.319 198.565 204.319 198.524L204.318 198.178L203.321 198.182L203.322 198.527C203.322 198.573 203.326 198.617 203.333 198.66C203.352 198.783 203.291 198.905 203.177 198.954C202.212 199.37 201.534 200.333 201.537 201.445Z" fill="#CED4EA"/>
<path opacity="0.3" d="M204.282 198.95C204.322 198.934 204.355 198.908 204.381 198.875C204.412 198.912 204.452 198.943 204.498 198.963C205.449 199.379 206.118 200.329 206.122 201.429L206.166 210.085C206.169 210.904 205.5 211.577 204.681 211.579L204.1 211.581C203.326 211.584 202.689 210.952 202.687 210.177L202.643 201.441C202.639 200.329 203.317 199.367 204.282 198.95Z" fill="#CED4EA"/>
<path d="M207.121 201.987L207.156 208.019L201.575 208.038L201.539 202.005L207.121 201.987Z" fill="#2C3A64"/>
<path d="M205.439 197.615L203.222 197.618L203.223 198.143L205.439 198.14L205.439 197.615Z" fill="#2C3A64"/>
<path d="M484.481 197.326C484.635 197.823 484.785 198.34 484.925 198.876C486.06 203.175 486.763 208.666 486.534 213.859C486.458 215.553 486.284 217.216 485.994 218.794C485.992 218.813 481.836 233.807 481.836 233.807C481.177 236.569 480.867 239.576 480.796 242.684H505.336C512.355 242.684 518.04 236.915 517.859 229.898C517.858 229.864 517.857 229.831 517.856 229.797C517.797 227.856 517.487 226.336 516.842 225.419C516.708 224.685 516.588 224.318 516.588 224.318C514.642 220.121 510.199 215.668 506.598 212.017C504.559 209.951 502.794 208.147 501.903 206.791C500.756 205.044 503.596 195.628 509.05 187.885C502.255 190.148 492.29 187.371 488.738 186.346C483.522 184.841 484.695 178.2 484.691 178.2C483.865 179.785 482.523 181.117 481.827 183.238C481.051 185.607 481.083 188.962 483.548 194.75C483.877 195.518 484.189 196.384 484.481 197.326Z" fill="#FFFAA8"/>
<path d="M508.22 168.93C508.22 168.93 522.893 191.796 523.628 195.971C524.362 200.145 509.051 217.151 509.051 217.151L504.951 216.288L515.026 196.324L501.149 177.738L508.22 168.93Z" fill="#E5B798"/>
<path d="M509.509 215.504C507.837 215.735 506.175 215.882 504.57 215.922C504.552 215.923 489.019 215.185 489.019 215.185C477.657 214.982 463.617 219.921 454.573 222.737C454.571 222.737 454.571 222.737 454.571 222.737C453.888 222.949 453.233 223.15 452.611 223.335C450.734 223.894 447.622 226.042 445.524 228.215V245.345C451.536 243.543 456.393 242.168 457.659 242.461C460.206 243.048 489.025 245.575 500.527 243.25C502.412 242.869 503.833 242.36 504.594 241.687C505.283 241.454 505.617 241.295 505.617 241.295C509.309 239.019 512.727 234.707 515.537 231.204L509.509 215.504Z" fill="#FFFAA8"/>
<path d="M508.692 237.381C508.129 238.507 507.202 240.373 506.08 242.683C512.522 242.683 517.759 237.509 517.863 231.068C517.865 230.965 517.866 230.863 517.867 230.762C517.867 230.762 517.867 230.762 517.868 230.762C517.869 230.672 517.868 230.583 517.867 230.494C517.867 230.257 517.864 230.024 517.857 229.797L517.847 229.804C517.68 226.579 516.589 224.318 516.589 224.318C514.642 220.122 510.199 215.667 506.598 212.017C504.559 209.951 502.795 208.146 501.904 206.791C500.756 205.044 503.595 195.628 509.051 187.884C502.256 190.148 493.213 184.272 493.213 184.272C493.033 184.177 492.857 184.08 492.682 183.98C491.035 189.511 487.063 204.541 490.956 209.246C495.769 215.061 517.253 215.368 508.692 237.381Z" fill="#FFFAA8"/>
<path d="M506.603 166.787C504.082 165.942 501.47 166.576 498.963 168.011V163.578C499.764 163.072 500.443 162.331 500.92 161.277C503.748 155.03 506.938 151.429 500.699 148.168C494.46 144.907 492.137 146.727 490.686 148.583C489.235 150.438 485.616 161.448 488.134 162.83C488.134 162.83 489.498 163.473 491.359 163.966C491.219 164.717 490.866 166.927 490.919 169.783C488.199 170.146 484.545 170.817 483.65 171.878C479.221 177.129 473.612 182.987 472.571 182.743C470.876 182.344 462.677 169.597 462.677 169.597C462.342 168.524 461.524 166.156 460.635 165.366C459.473 164.332 458.617 163.333 458.34 162.776C456.66 159.398 455.134 159.208 454.889 159.636C454.644 160.064 455.232 166.206 456.578 167.021C457.925 167.837 460.035 169.471 460.035 169.471C460.035 169.471 465.361 188.891 471.418 191.27C473.642 192.144 479.933 188.162 484.843 184.649C484.843 184.649 497.841 194.214 506.222 190.308C511.552 187.824 516.886 170.235 506.603 166.787Z" fill="#E5B798"/>
<path d="M524.325 181.32C523.478 184.477 520.176 185.802 517.464 186.97C517.5 185.474 517.102 183.374 514.898 182.15C514.898 182.15 516.242 185.283 515.785 187.739C514.54 193.948 506.534 202.387 499.092 198.611C498.63 198.376 498.166 198.114 497.705 197.836C500.328 195.96 503.708 192.54 502.586 187.588C502.586 187.588 500.442 194.22 494.747 195.685C489.282 191.087 485.442 184.142 488.539 181.292C492.415 177.727 497.116 176.254 495.22 170.426C493.325 164.599 495.538 161.534 496.882 157.994C498.228 154.457 497.199 153.657 495.961 154.804C494.722 155.951 494.009 156.231 493.569 155.287C493.569 155.287 494.754 152.566 493.291 151.404C491.826 150.244 488.596 145.267 492.218 141.768C495.838 138.269 500.065 139.019 501.155 141.245C502.246 143.47 507.569 141.237 511.06 144.01C514.297 146.58 519.333 148.606 515.296 159.125C514.978 159.951 514.604 160.831 514.17 161.767C510.709 169.22 515.182 172.728 519.259 175.45C521.247 176.778 523.143 177.919 523.975 179.239C524.075 179.4 524.16 179.563 524.228 179.729C524.431 180.224 524.478 180.749 524.325 181.32Z" fill="#2E3552"/>
<path d="M524.228 179.729C524.102 179.629 524.013 179.468 523.975 179.239C524.075 179.4 524.16 179.563 524.228 179.729Z" fill="#FF8278"/>
<path d="M484.481 197.326C484.189 196.384 483.877 195.518 483.549 194.75C481.083 188.962 480.63 189.383 481.407 187.014C482.48 186.297 484.843 184.649 484.843 184.649C484.843 184.649 483.122 191.534 484.481 197.326Z" fill="#FFFAA8"/>
<path d="M539.367 287.792H498.873V289.983H539.367V287.792Z" fill="#2E3552"/>
<path d="M450.423 224.357C450.423 224.357 438.803 230.151 436.721 241.435C434.64 252.719 444.719 292.646 424.89 292.646H498.4C498.4 292.646 482.242 267.289 484.843 253.486C487.444 239.682 495.661 242.64 495.661 242.64L450.423 224.357Z" fill="#FFFAA8"/>
<path d="M491.183 237.239C484.811 235.901 456.636 230.125 452.581 231.781C452.544 231.795 452.506 231.812 452.465 231.829C448.265 233.626 445.687 237.914 445.99 242.472L449.333 292.646C460.214 292.685 489.827 292.646 492.155 292.646C493.752 292.646 472.703 252.437 489.299 245.97C495.368 243.606 495.053 244.198 499.586 243.424C499.586 243.425 499.586 243.425 499.586 243.425C499.675 243.411 499.762 243.395 499.848 243.379C500.08 243.338 500.307 243.295 500.527 243.251L500.518 243.244C503.636 242.556 507.419 242.684 507.419 242.684L516.52 231.575L513.189 225.148C508.518 229.99 514.506 240.286 491.183 237.239Z" fill="#FFFAA8"/>
<path d="M500.94 294.304L476.349 246.417L452.151 294.298L450.196 293.309L476.333 241.59L502.889 293.303L500.94 294.304Z" fill="#2E3552"/>
<path d="M476.34 245.1C476.206 245.1 476.069 245.075 475.936 245.022C475.374 244.798 475.099 244.162 475.323 243.599L493.774 197.164C493.997 196.602 494.635 196.327 495.197 196.55C495.759 196.774 496.034 197.41 495.81 197.973L477.359 244.409C477.188 244.838 476.776 245.1 476.34 245.1Z" fill="#2E3552"/>
<path d="M540.917 294.304L516.326 246.417L492.129 294.298L490.173 293.309L516.311 241.59L542.866 293.303L540.917 294.304Z" fill="#2E3552"/>
<path d="M516.318 245.1C516.183 245.1 516.047 245.075 515.914 245.022C515.352 244.798 515.077 244.162 515.3 243.599L533.751 197.164C533.975 196.602 534.613 196.327 535.174 196.55C535.736 196.774 536.011 197.41 535.788 197.973L517.337 244.409C517.166 244.838 516.754 245.1 516.318 245.1Z" fill="#2E3552"/>
<path d="M515.579 245.971H453.93C452.977 245.971 452.205 245.198 452.205 244.245C452.205 243.292 452.977 242.52 453.93 242.52H515.579C516.532 242.52 517.305 243.292 517.305 244.245C517.305 245.198 516.532 245.971 515.579 245.971Z" fill="#2E3552"/>
<path d="M530.204 208.303H491.532L495.365 198.646H534.042L530.204 208.303Z" fill="#2E3552"/>
<path d="M491.532 208.303H530.181L534.018 198.646L491.532 208.303Z" fill="#2E3552"/>
<path d="M474.469 244.266C474.469 244.754 474.074 245.149 473.586 245.149C473.098 245.149 472.703 244.754 472.703 244.266C472.703 243.778 473.099 243.383 473.586 243.383C474.074 243.383 474.469 243.778 474.469 244.266Z" fill="#466AA5"/>
<path d="M437.716 237.937C437.716 237.937 440.815 219.333 484.196 215.375C484.196 215.375 448.79 222.827 437.716 237.937Z" fill="#FFFAA8"/>
<path d="M599.181 294.96H0.819671C0.368753 294.96 0 294.591 0 294.14V293.466C0 293.015 0.368972 292.646 0.819671 292.646H599.181C599.631 292.646 600 293.015 600 293.466V294.14C600 294.591 599.631 294.96 599.181 294.96Z" fill="#2E3552"/>
<g clip-path="url(#clip0_21_957)">
<mask id="mask0_21_957" style="mask-type:luminance" maskUnits="userSpaceOnUse" x="132" y="22" width="85" height="85">
<path d="M217 22H132V107H217V22Z" fill="white"/>
</mask>
<g mask="url(#mask0_21_957)">
<mask id="mask1_21_957" style="mask-type:luminance" maskUnits="userSpaceOnUse" x="132" y="22" width="85" height="85">
<path d="M217 22H132V107H217V22Z" fill="white"/>
</mask>
<g mask="url(#mask1_21_957)">
<path d="M167.114 60.7405C167.114 60.7405 169.597 57.5003 171.67 55.8586C173.575 54.3546 174.404 53.9845 174.527 53.9334C174.655 53.9845 175.479 54.3546 177.384 55.8586C179.457 57.5003 181.94 60.7405 181.94 60.7405C181.94 60.7405 187.717 58.3546 187.717 51.5279C187.717 44.701 182.615 41.1775 182.615 41.1775C188.629 50.1183 182.883 55.6657 182.883 55.6657C182.883 55.6657 181.744 55.5082 179.694 53.386C178.159 51.9038 176.428 50.5825 174.537 49.4492C172.64 50.5756 170.903 51.8903 169.361 53.3664C167.315 55.4885 166.171 55.6459 166.171 55.6459C166.171 55.6459 160.421 50.0987 166.435 41.1577C166.435 41.1577 161.337 44.6617 161.337 51.5081C161.337 58.3546 167.114 60.7405 167.114 60.7405Z" fill="#F8EC20"/>
<path d="M168.754 63.8706C168.353 66.6265 170.157 67.7485 170.157 67.7485C170.178 67.0995 170.277 66.4544 170.453 65.8233C170.69 65.2249 172.016 63.8547 173.387 63.8547H175.666C177.033 63.8547 178.363 65.2091 178.604 65.8233C178.778 66.4548 178.875 67.1 178.896 67.7485C178.896 67.7485 180.718 66.6265 180.304 63.8706C179.926 61.2761 175.105 57.7446 174.554 57.347V57.3076H174.526H174.499V57.347C173.948 57.7446 169.127 61.2761 168.754 63.8706Z" fill="#F8EC20"/>
<path d="M183.078 68.4562C182.195 70.0699 180.688 71.367 178.818 72.1257C178.818 72.1257 174.745 67.2437 174.545 67.0941C174.344 67.2437 170.275 72.1257 170.275 72.1257C168.39 71.3738 166.868 70.0759 165.974 68.4562C164.68 65.8735 165.974 62.5509 165.974 62.5509C164.844 63.4406 162.484 68.4562 165.063 72.3696C165.815 73.5167 166.854 74.5031 168.106 75.2566C169.357 76.0102 170.788 76.5117 172.294 76.7242C172.294 76.7242 171.424 75.606 172.153 73.7674C172.558 72.7032 173.403 71.8065 174.526 71.2476C175.65 71.8065 176.495 72.7032 176.9 73.7674C177.634 75.606 176.759 76.7242 176.759 76.7242C178.269 76.5129 179.705 76.011 180.96 75.2562C182.215 74.501 183.259 73.512 184.012 72.362C186.568 68.4248 184.208 63.4327 183.101 62.543C183.078 62.5509 184.395 65.8735 183.078 68.4562Z" fill="#F8EC20"/>
<path d="M154.083 52.7756C154.698 53.5905 162.48 62.4488 162.48 62.4488C162.48 62.4488 163.997 59.9331 162.603 58.4291C161.209 56.9253 157.441 52.7087 156.73 51.7126C156.142 50.831 155.802 49.8426 155.737 48.8267C155.65 47.996 154.52 36.8504 154.52 36.8504C155.488 33.7869 157.027 30.88 159.076 28.2441C160.738 26.0532 162.577 23.9666 164.58 22C164.58 22 159.199 25.2717 156.119 29.3583C154.292 31.7552 152.853 34.3567 151.841 37.0906C151.841 37.0906 152.556 46.9055 152.707 48.8346C152.754 50.2304 153.229 51.5902 154.083 52.7756Z" fill="#F8EC20"/>
<path d="M154.539 82.0749C154.539 82.0749 154.539 80.3503 155.756 77.4369C156.972 74.5235 161.223 67.9569 161.223 67.9569L161.547 63.2915L160.704 62.2835C160.704 62.2835 154.544 60.2363 152.047 59.0828C149.55 57.9292 148.894 57.6143 148.894 57.6143C147.951 56.0591 147.15 54.4426 146.498 52.7796C145.213 49.6813 144.702 48.2717 144.702 48.2717C144.421 45.244 144.349 42.2046 144.488 39.1694C144.702 33.9214 145.021 32.2363 145.021 32.2363C145.021 32.2363 143.486 34.1497 142.802 38.5985C142.119 43.0473 141.973 48.5749 141.973 48.5749L145.819 59.0512C145.819 59.0512 149.008 60.941 153.14 62.9017C154.458 63.5536 155.853 64.0815 157.3 64.4765L146.693 65.8901L136.62 73.3701C134.973 76.2456 133.749 79.2878 132.975 82.4251C131.672 87.6811 132.064 93.4212 132.064 93.4212C132.064 93.4212 133.649 87.6811 135.531 82.5318C137.413 77.3821 139.03 74.9881 139.03 74.9881L148.142 68.8859L155.359 68.2913L149.792 80.4961C149.792 80.4961 149.741 82.0707 150.539 85.6143C151.336 89.1576 154.744 98.5709 154.744 98.5709L163.437 107L164.276 106.87L157.715 97.5041L154.539 82.0749Z" fill="#F8EC20"/>
<path d="M194.479 36.8504C194.479 36.8504 193.35 47.9843 193.258 48.8267C193.193 49.8426 192.853 50.831 192.265 51.7126C191.559 52.7127 187.786 56.9213 186.392 58.4291C184.998 59.937 186.515 62.4488 186.515 62.4488C186.515 62.4488 194.302 53.5905 194.917 52.7756C195.768 51.5911 196.24 50.2324 196.284 48.8386C196.438 46.9095 197.154 37.0945 197.154 37.0945C196.14 34.3614 194.701 31.7602 192.876 29.3622C189.8 25.2717 184.419 22 184.419 22C186.429 23.9656 188.275 26.0522 189.942 28.2441C191.983 30.8817 193.516 33.7883 194.479 36.8504Z" fill="#F8EC20"/>
<path d="M216.034 82.4137C215.26 79.2755 214.036 76.2333 212.388 73.3582L202.31 65.8782L191.685 64.4686C193.132 64.0735 194.524 63.5455 195.84 62.8938C199.991 60.9253 203.167 59.0435 203.167 59.0435L207.007 48.567C207.007 48.567 206.862 43.0552 206.178 38.5945C205.495 34.134 203.987 32.2363 203.987 32.2363C203.987 32.2363 204.306 33.9174 204.52 39.1655C204.656 42.2006 204.584 45.24 204.306 48.2678C204.306 48.2678 203.786 49.6773 202.515 52.7757C201.863 54.4386 201.062 56.0551 200.119 57.6103C200.119 57.6103 199.462 57.9213 196.966 59.0789C194.469 60.2363 188.309 62.2796 188.309 62.2796L187.466 63.2875L187.785 67.9526C187.785 67.9526 192.05 74.5197 193.252 77.4331C194.455 80.3465 194.469 82.0707 194.469 82.0707L191.279 97.4999L184.714 106.87L185.553 107L194.25 98.579C194.25 98.579 197.654 89.1771 198.456 85.622C199.258 82.0673 199.203 80.5041 199.203 80.5041L193.635 68.2994L200.847 68.8936L209.96 74.9961C209.96 74.9961 211.582 77.3897 213.464 82.5395C215.345 87.6892 216.931 93.4292 216.931 93.4292C216.931 93.4292 217.341 87.6692 216.034 82.4137Z" fill="#F8EC20"/>
</g>
</g>
</g>
<defs>
<clipPath id="clip0_21_957">
<rect width="85" height="85" fill="white" transform="translate(132 22)"/>
</clipPath>
</defs>
</svg>
