<svg width="120" height="120" viewBox="0 0 120 120" fill="none" xmlns="http://www.w3.org/2000/svg">
<g clip-path="url(#clip0_19_557)">
<path d="M57.2578 0.328123C52.125 1.57031 48.2812 6.44531 48.2812 11.7187C48.2812 18.0469 53.6719 23.4375 60 23.4375C66.3281 23.4375 71.7188 18.0469 71.7188 11.7187C71.7188 5.29687 66.2578 -0.0703144 59.8125 0.0234356C59.0859 0.0234356 57.9375 0.164061 57.2578 0.328123Z" fill="#F8EC20"/>
<path d="M84.0938 23.9297C83.0859 24.4453 82.2656 25.8281 82.2656 26.9531C82.2656 28.1016 83.0156 29.2734 85.0547 31.2891L86.9531 33.1641V39.4219V45.7031H54.375C22.1719 45.7031 21.7734 45.7031 20.8594 46.1719C19.8047 46.7109 18.9844 48.0469 18.9844 49.2188C18.9844 51.0938 20.7188 52.7344 22.7109 52.7344H23.6719L23.7188 60.4922L23.7891 68.25L25.125 68.7891C29.6953 70.6406 33.9609 75.2109 35.4844 79.8984C36.9375 84.3047 36.8906 88.3359 35.3203 92.6719L34.7344 94.2656L35.5781 95.0156C36.6562 95.9297 37.1953 96.4688 38.1328 97.5703L38.9062 98.4609L39.6562 97.5703C40.6641 96.4219 40.9688 96.1406 42.1172 95.1562L43.1016 94.3125L42.4219 92.4609C39.3984 83.9062 42.5859 74.7891 50.25 70.0547C57.6094 65.5312 67.1953 66.6797 73.2422 72.8203C78.4219 78.0234 80.0391 85.4531 77.5781 92.4375L76.9219 94.2656L77.7656 95.0156C78.8438 95.9297 79.3828 96.4688 80.3438 97.5703L81.0938 98.4609L81.8672 97.5703C82.8516 96.4219 83.1562 96.1406 84.3047 95.1328L85.2891 94.3125L84.7031 92.6719C83.1094 88.3359 83.0625 84.3281 84.5156 79.8984C86.0391 75.2344 90.3281 70.6406 94.8516 68.7891L96.2109 68.25L96.2812 60.4922L96.3281 52.7344H97.2891C99.2812 52.7344 101.016 51.0938 101.016 49.2188C101.016 48.0469 100.195 46.7109 99.1406 46.1719C98.4141 45.7969 97.7578 45.7031 96.0938 45.7031H93.9844V38.3203C93.9844 31.4766 93.9609 30.8438 93.5391 30.0469C92.9766 28.9922 88.2891 24.3281 87.2578 23.8125C86.2734 23.3203 85.1484 23.3438 84.0938 23.9297Z" fill="#F8EC20"/>
<path d="M45.5625 26.4609C42.9141 28.1953 40.2656 31.4062 39.1172 34.2656C38.5312 35.6953 37.9688 37.6641 37.9688 38.25C37.9688 38.6484 39.1641 38.6719 60 38.6719C80.8359 38.6719 82.0312 38.6484 82.0312 38.25C82.0078 36.9141 80.7422 33.5859 79.4531 31.5469C78.3281 29.7656 75.3047 26.8359 73.8047 26.0391L72.7031 25.4531L71.7656 26.2734C69.5625 28.1484 66.5859 29.5078 63.3281 30.1406C60.0469 30.7734 56.6719 30.4453 53.2266 29.1562C51.5156 28.5234 48.4688 26.6953 47.8359 25.9453C47.3906 25.3828 47.1094 25.4297 45.5625 26.4609Z" fill="#F8EC20"/>
<path d="M15.0703 74.625C9.9375 75.8672 6.09375 80.7422 6.09375 86.0156C6.09375 92.3437 11.4844 97.7344 17.8125 97.7344C24.1406 97.7344 29.5313 92.3437 29.5313 86.0156C29.5313 79.5937 24.0703 74.2266 17.625 74.3203C16.8984 74.3203 15.75 74.4609 15.0703 74.625Z" fill="#F8EC20"/>
<path d="M57.2578 74.625C52.125 75.8672 48.2812 80.7422 48.2812 86.0156C48.2812 92.3437 53.6719 97.7344 60 97.7344C66.3281 97.7344 71.7188 92.3437 71.7188 86.0156C71.7188 79.5937 66.2578 74.2266 59.8125 74.3203C59.0859 74.3203 57.9375 74.4609 57.2578 74.625Z" fill="#F8EC20"/>
<path d="M99.4453 74.625C94.3125 75.8672 90.4688 80.7422 90.4688 86.0156C90.4688 92.3437 95.8594 97.7344 102.188 97.7344C108.516 97.7344 113.906 92.3437 113.906 86.0156C113.906 79.5937 108.445 74.2266 102 74.3203C101.273 74.3203 100.125 74.4609 99.4453 74.625Z" fill="#F8EC20"/>
<path d="M3.65625 101.273C2.03906 102.938 0.9375 104.977 0.492188 107.062C0.351562 107.742 0.234375 110.297 0.234375 112.758C0.234375 117.914 0.445312 118.688 2.10938 119.531C3 119.977 3.46875 120 17.8125 120C32.1562 120 32.625 119.977 33.5156 119.531C35.1797 118.688 35.3906 117.914 35.3906 112.758C35.3906 110.297 35.2734 107.742 35.1328 107.062C34.6875 104.977 33.5859 102.938 31.9688 101.297L30.4922 99.7734L29.5781 100.57C26.6016 103.102 21.9375 104.766 17.8125 104.766C13.6172 104.766 8.53125 102.891 5.78906 100.359L5.15625 99.75L3.65625 101.273Z" fill="#F8EC20"/>
<path d="M45.8438 101.273C44.2266 102.938 43.125 104.977 42.6797 107.062C42.5391 107.742 42.4219 110.297 42.4219 112.758C42.4219 117.914 42.6328 118.688 44.2969 119.531C45.1875 119.977 45.6562 120 60 120C74.3438 120 74.8125 119.977 75.7031 119.531C77.3672 118.688 77.5781 117.914 77.5781 112.758C77.5781 110.297 77.4609 107.742 77.3203 107.062C76.875 104.977 75.7734 102.938 74.1562 101.297L72.6797 99.7734L71.7656 100.57C68.7891 103.102 64.125 104.766 60 104.766C55.8047 104.766 50.7188 102.891 47.9766 100.359L47.3438 99.75L45.8438 101.273Z" fill="#F8EC20"/>
<path d="M88.0312 101.273C86.4141 102.938 85.3125 104.977 84.8672 107.062C84.7266 107.742 84.6094 110.297 84.6094 112.758C84.6094 117.914 84.8203 118.688 86.4844 119.531C87.375 119.977 87.8438 120 102.188 120C116.531 120 117 119.977 117.891 119.531C119.555 118.688 119.766 117.914 119.766 112.758C119.766 110.297 119.648 107.742 119.508 107.062C119.062 104.977 117.961 102.938 116.344 101.297L114.867 99.7734L113.953 100.57C110.977 103.102 106.312 104.766 102.188 104.766C97.9922 104.766 92.9062 102.891 90.1641 100.359L89.5312 99.75L88.0312 101.273Z" fill="#F8EC20"/>
</g>
<defs>
<clipPath id="clip0_19_557">
<rect width="120" height="120" fill="white"/>
</clipPath>
</defs>
</svg>
