<svg width="120" height="120" viewBox="0 0 120 120" fill="none" xmlns="http://www.w3.org/2000/svg">
<g clip-path="url(#clip0_19_554)">
<path d="M58.837 0.521098C57.0266 1.64514 56.2311 3.26266 56.2311 5.89456V7.67657H30.3922C14.2635 7.67657 4.16933 7.78623 3.56588 7.95073C1.81037 8.44421 0 10.9116 0 12.8033C0.0274298 13.9273 0.905184 15.6819 1.89266 16.5318C2.93499 17.3817 4.30648 17.8203 6.11685 17.8203H7.40605V51.9528V86.0852H5.62311C3.48359 86.0852 2.27667 86.5239 1.2892 87.7027C-0.795465 90.1976 -0.0548596 93.9809 2.82527 95.3791C4.00475 95.9548 4.30648 95.9548 22.7393 95.9548C40.1847 95.9548 41.4739 95.9822 41.3093 96.4209C41.1996 96.6676 39.1423 100.615 36.756 105.194C34.2324 109.964 32.3123 113.967 32.2026 114.597C31.846 116.873 33.6564 119.56 35.7959 119.971C36.3445 120.053 37.3594 120.081 38.0177 119.998C40.3493 119.752 40.651 119.313 47.0421 107.195L52.8573 96.0919H62.2931H71.7015L77.3247 106.811C80.4242 112.706 83.1946 117.86 83.4689 118.244C84.5113 119.834 87.4737 120.547 89.5035 119.697C91.3139 118.957 92.6305 116.599 92.3562 114.597C92.2739 114.022 90.299 109.909 87.6657 104.92C85.1696 100.177 83.1123 96.2016 83.1123 96.1193C83.1123 96.0371 90.5458 95.9548 99.6251 95.9548C115.562 95.9548 116.165 95.9274 117.262 95.4065C120.17 94.0083 120.938 90.1976 118.853 87.7027C117.866 86.5239 116.659 86.0852 114.519 86.0852H112.737V51.9528V17.8203H114.053C117.372 17.8203 119.457 16.2577 120.005 13.379C120.389 11.3228 118.634 8.52646 116.632 7.95073C115.973 7.78623 106.784 7.67657 91.0121 7.67657H66.3802V6.22354C66.3802 3.37232 65.4475 1.48064 63.6372 0.548514C62.2383 -0.164292 59.9616 -0.191707 58.837 0.521098ZM89.6406 33.7488C91.8899 34.8454 92.9597 37.5048 92.0545 39.8351C91.451 41.3978 71.729 67.3878 70.5221 68.1828C69.3974 68.9505 67.0659 69.0327 65.667 68.3747C65.091 68.1006 61.8817 64.7285 57.0266 59.3002C52.8024 54.5573 49.2914 50.7191 49.2365 50.7739C49.2091 50.8287 46.4113 54.8588 43.0648 59.7662C39.7184 64.6736 36.6462 69.0053 36.2622 69.4165C35.2747 70.5131 33.4644 71.1163 32.038 70.897C28.9933 70.4035 26.9087 67.0862 27.951 64.3172C28.2527 63.6044 44.1346 40.3286 45.0946 39.2319C45.8352 38.3821 47.6182 37.5596 48.7428 37.5596C50.9097 37.5596 51.4583 38.0256 59.3581 46.8535C63.4726 51.4867 67.0385 55.4071 67.2853 55.5991C67.6145 55.8732 68.9037 54.3379 75.624 45.4553C80.0128 39.6706 83.8255 34.7358 84.1272 34.489C85.6085 33.1457 87.7754 32.8441 89.6406 33.7488Z" fill="#F8EC20"/>
</g>
<defs>
<clipPath id="clip0_19_554">
<rect width="120" height="120" fill="white"/>
</clipPath>
</defs>
</svg>
