<svg width="120" height="120" viewBox="0 0 120 120" fill="none" xmlns="http://www.w3.org/2000/svg">
<g clip-path="url(#clip0_19_569)">
<path d="M26.4844 0.305161C23.3438 1.19579 21.3281 3.72704 21.1406 7.03172C20.9297 10.9223 23.2734 13.9458 27.1641 14.7895C29.8828 15.3755 33 14.0395 34.6172 11.6489C35.5547 10.2427 35.8594 9.21141 35.8594 7.2661C35.8594 4.50047 34.0781 1.80516 31.5 0.680161C30.1875 0.0942235 27.8438 -0.0932765 26.4844 0.305161Z" fill="#F8EC20"/>
<path d="M50.6719 4.28906C49.3125 5.0625 49.3359 4.80469 49.2656 16.2188C49.2422 22.0078 49.2656 26.7188 49.3359 26.7188C49.4063 26.7188 50.0859 26.3438 50.8125 25.8516C51.5391 25.3828 52.7109 24.75 53.3906 24.4688L54.6094 23.9062V16.5234V9.14062H80.7422H106.875V27.8906V46.6406H80.7422H54.6094V43.7109C54.6094 41.8828 54.5156 40.7812 54.375 40.7812C54.2344 40.7812 53.0156 41.4844 51.6563 42.3281L49.1719 43.8984L49.2656 46.9688C49.3359 50.2969 49.5703 50.9766 50.7656 51.5156C51.1875 51.7266 59.0625 51.7969 80.8828 51.7969H110.438L111.234 51L112.031 50.2031V27.8906V5.57812L111.234 4.78125L110.438 3.98438H80.8359C57.5391 4.00781 51.0938 4.05469 50.6719 4.28906Z" fill="#F8EC20"/>
<path d="M16.9688 17.5782C14.8125 18.0235 12.4922 19.7579 11.3438 21.7969C10.2656 23.6719 10.2422 24.0938 10.2188 39.2344C10.1953 53.4375 10.1953 53.6485 10.6875 54.2813C11.5781 55.4766 12.3516 55.8985 13.711 55.8985C15.0703 55.8985 15.8438 55.4766 16.7344 54.2813C17.2266 53.6485 17.2266 53.3204 17.3438 39.5391C17.4141 31.7813 17.5078 25.4063 17.5313 25.3594C17.7188 25.1485 18.7266 25.3829 18.8438 25.6875C18.9141 25.8985 18.9844 34.4766 18.9844 44.7891V63.5157H19.9922C22.0313 63.5157 24.75 64.5 26.5078 65.8829C26.9766 66.2579 27.4453 66.5625 27.5156 66.5625C27.586 66.5625 27.6563 63.2813 27.6563 59.2969V52.0313H28.5938H29.5313V60.4688C29.5313 68.9063 29.5313 68.9297 30.0938 70.0313C31.8281 73.4297 31.8516 77.6719 30.211 80.9297C29.9531 81.3985 29.836 81.7969 29.9297 81.7969C30.0469 81.7969 30.7735 81.9141 31.5703 82.0313C32.9766 82.2657 33.0703 82.2422 33.9375 81.6329C34.7578 81.0235 36.5391 80.1563 37.5703 79.8282C37.9453 79.711 37.9688 78.211 37.9688 52.6641C37.9688 25.6641 37.9922 25.0782 38.6953 25.0782C38.7891 25.0782 39.0469 25.2422 39.2344 25.4532C39.5625 25.7579 39.6094 26.7657 39.6094 32.8594C39.6094 39.586 39.6328 39.9375 40.1016 40.7813C40.711 41.8594 42.0703 42.6563 43.2891 42.6563C44.2969 42.6563 44.461 42.5625 53.086 37.1954C59.0391 33.4922 59.5313 33.0469 59.5313 31.1719C59.5313 29.1329 57.9141 27.586 55.8516 27.6094C54.9375 27.6329 54.2813 27.961 50.8594 30.0704L46.9453 32.5079L46.7344 28.0313C46.5235 24.0469 46.4531 23.4141 45.9375 22.3829C45.0938 20.625 43.3594 18.9141 41.6485 18.1407C40.336 17.5547 39.9375 17.4844 37.3828 17.4844L34.5938 17.461L32.4844 22.7813C31.336 25.7344 30.3516 28.0782 30.3047 28.0313C30.2578 28.0079 30.4453 27.0235 30.7266 25.8985L31.1953 23.836L30.3516 22.1954L29.4844 20.5782L30.211 19.2422C30.75 18.211 30.8672 17.836 30.6563 17.625C30.2813 17.25 26.5781 17.25 26.3438 17.6016C26.2735 17.7422 26.4844 18.4922 26.8594 19.2657L27.5156 20.6485L26.7656 22.0079C25.9219 23.5547 25.875 24.1172 26.3672 26.5079C26.5781 27.4454 26.6953 28.2188 26.6719 28.2657C26.625 28.2891 25.6641 25.8516 24.5156 22.8282L22.4063 17.3438L20.1797 17.3672C18.9375 17.3907 17.4844 17.4844 16.9688 17.5782Z" fill="#F8EC20"/>
<path d="M68.9062 18.0938C68.4375 18.4219 66.2578 20.1094 64.0312 21.8906L59.9766 25.1016L60.6562 25.6641C61.0312 25.9688 61.6172 26.6484 61.9688 27.1641L62.625 28.0781L66.9375 24.7031C69.3047 22.8281 71.4609 21.0234 71.7188 20.6953C72.3281 19.9219 72.3047 19.1484 71.6719 18.4219C70.875 17.5313 69.9141 17.4141 68.9062 18.0938Z" fill="#F8EC20"/>
<path d="M16.7109 68.1565C13.3359 69.5393 11.25 72.7971 11.5547 76.1721C12.1406 82.7815 19.9687 85.8049 24.75 81.2815C26.4375 79.6877 27.2109 77.9065 27.2109 75.5627C27.2109 74.0861 27.0937 73.5471 26.5312 72.3518C25.1484 69.4221 22.8281 67.8986 19.5703 67.8049C18.2109 67.758 17.4141 67.8518 16.7109 68.1565Z" fill="#F8EC20"/>
<path d="M59.4141 68.0859C57.9375 68.625 56.2031 70.1016 55.3828 71.4609C52.9219 75.5625 54.4922 80.6719 58.8047 82.7109C59.9062 83.2266 60.4453 83.3203 62.1094 83.3203C63.7734 83.3203 64.3125 83.2266 65.3906 82.7109C71.3906 79.8516 71.3906 71.2969 65.3906 68.4609C63.8203 67.7344 60.9141 67.5469 59.4141 68.0859Z" fill="#F8EC20"/>
<path d="M98.836 67.9692C92.7657 69.516 90.6797 76.8754 95.1094 81.2817C99.3985 85.5707 106.898 83.3676 108.281 77.3676C109.102 73.8754 107.203 70.0317 103.898 68.5082C102.539 67.8754 100.195 67.641 98.836 67.9692Z" fill="#F8EC20"/>
<path d="M38.3672 84C36.586 84.75 35.4844 85.6172 34.6641 86.9062C31.9688 91.1719 33.4453 96.5391 37.9453 98.6484C39.0469 99.1641 39.586 99.2578 41.25 99.2578C43.6641 99.2578 45.2344 98.625 46.8516 97.0078C48.4688 95.3906 49.1016 93.8203 49.1016 91.4062C49.1016 89.0156 48.4453 87.3516 46.875 85.7812C44.6719 83.5781 41.1094 82.8281 38.3672 84Z" fill="#F8EC20"/>
<path d="M77.8125 83.93C76.5 84.305 74.5078 85.805 73.6641 87.0472C70.4297 91.7815 72.8906 98.0862 78.4922 99.3753C82.0313 100.196 85.8047 98.2972 87.3985 94.9222C87.9141 93.844 88.0078 93.305 88.0078 91.5237C88.0078 89.0159 87.4922 87.7034 85.7813 86.0159C84.1875 84.4222 82.7813 83.8128 80.5078 83.7425C79.4766 83.719 78.2578 83.8128 77.8125 83.93Z" fill="#F8EC20"/>
<path d="M7.3125 86.2734C4.78125 86.7656 2.32031 88.6875 1.14844 91.0781C0.492188 92.4141 0.351563 92.9766 0.1875 95.4141C0.0703125 96.9609 0.0234375 99.4922 0.046875 101.086L0.117188 103.945L3.91406 104.016L7.73438 104.062L7.78125 99.3516C7.85156 95.2266 7.89844 94.5938 8.25 94.3828C8.53125 94.1953 8.74219 94.2188 9 94.4297C9.32813 94.6875 9.375 95.4375 9.375 99.3984V104.062H14.7422H20.1094L20.625 103.266C21.8906 101.18 25.9922 98.4844 28.4766 98.1094C28.9922 98.0156 29.7188 97.8984 30.0703 97.8281L30.7266 97.6875L30.2578 96.9609C28.9219 94.7578 28.5469 90.4219 29.4844 87.7266C29.7656 86.9297 30 86.2031 30 86.1328C30 85.9219 8.39063 86.0625 7.3125 86.2734Z" fill="#F8EC20"/>
<path d="M52.4297 87.6562C53.3906 90.5156 53.1328 94.1953 51.7734 96.8437L51.3281 97.7344H52.0781C54.2812 97.7578 57.5156 99.0234 59.6953 100.734L60.8672 101.672L61.9219 100.805C63.4219 99.5859 65.9297 98.4844 68.0156 98.1797L69.8203 97.8984L69.375 97.0547C67.8281 93.9844 67.7812 89.9766 69.2578 86.4141C69.4219 86.0391 68.9062 86.0156 60.6562 86.0156H51.8906L52.4297 87.6562Z" fill="#F8EC20"/>
<path d="M91.1719 86.3203C91.1719 86.5078 91.3125 87.0234 91.5 87.4688C92.5547 89.9766 92.4609 93.7266 91.2891 96.2812C90.9609 96.9844 90.7031 97.6406 90.7031 97.7344C90.7031 97.8281 91.1953 97.9688 91.8281 98.0625C94.9219 98.4844 97.8047 100.055 100.008 102.562L101.344 104.062H105.984H110.625V99.6328C110.625 97.1953 110.695 95.0391 110.766 94.8281C110.836 94.6172 111.094 94.4531 111.305 94.4531C112.195 94.4531 112.266 94.875 112.266 99.5391V104.062L116.086 104.016L119.883 103.945L119.859 98.9766C119.836 95.9766 119.695 93.5156 119.531 92.8125C118.922 90.2812 116.602 87.75 113.836 86.6484C112.664 86.1562 112.172 86.1328 101.906 86.0625C92.6484 85.9922 91.1719 86.0391 91.1719 86.3203Z" fill="#F8EC20"/>
<path d="M30.4688 101.953C27.9375 102.328 26.0859 103.266 24.5156 105C22.5938 107.133 22.3359 108.234 22.1719 114.68L22.0547 120H25.9219H29.7656V115.336C29.7656 111.492 29.8359 110.625 30.1172 110.391C30.3984 110.156 30.5391 110.156 30.8203 110.391C31.1016 110.625 31.1719 111.492 31.1719 115.336V120H41.3672H51.5625V115.195C51.5625 111.117 51.6094 110.344 51.9141 110.25C52.1016 110.156 52.4297 110.227 52.6172 110.391C52.8984 110.625 52.9688 111.492 52.9688 115.336V120H60.5859H68.2031V115.594C68.2031 110.953 68.3438 110.203 69.2109 110.531C69.5625 110.648 69.6094 111.141 69.6094 115.336V120H79.8047H90V115.313C90 111.328 90.0469 110.578 90.3516 110.484C90.5391 110.391 90.8672 110.461 91.0547 110.625C91.3359 110.859 91.4062 111.727 91.4062 115.453V120H95.2969H99.2109L99.0938 114.68C98.9531 108.75 98.8359 108.164 97.3359 105.984C96.3047 104.461 94.8516 103.313 93.0938 102.609C91.7812 102.094 91.5 102.094 81.3516 102C70.1484 101.906 67.9922 102.047 66 102.984C63.4688 104.133 61.5234 106.57 60.8438 109.359C60.6094 110.367 60.4922 110.555 60.4922 110.039C60.4453 108.984 59.8828 107.273 59.1797 106.195C57.6797 103.805 55.3594 102.328 52.5 101.953C50.4375 101.695 32.3438 101.695 30.4688 101.953Z" fill="#F8EC20"/>
</g>
<defs>
<clipPath id="clip0_19_569">
<rect width="120" height="120" fill="white"/>
</clipPath>
</defs>
</svg>
