<svg width="120" height="121" viewBox="0 0 120 121" fill="none" xmlns="http://www.w3.org/2000/svg">
<path d="M63.0638 0.132172C62.1702 0.441103 62.0426 1.03322 62.0426 4.5087V7.93268H61.0213C59.6936 7.93268 58.3915 8.47331 57.8553 9.24564C57.5234 9.70904 57.4468 10.5071 57.4468 12.8756V15.9134H51.2681H45.0638L44.6808 15.0638C44.3745 14.4202 44.1191 14.2143 43.5064 14.1628C42.6128 14.0856 41.8723 14.6262 41.8723 15.4243C41.8723 15.9134 41.5149 15.9134 26.6298 15.9134C17.3362 15.9134 10.7234 16.0164 9.70213 16.1966C5.33617 16.8917 1.78723 19.9553 0.485106 24.1773C0.0255319 25.6705 0 27.0607 0 57.8766C0 89.1558 0.0255319 90.0569 0.510638 91.653C1.73617 95.6949 5.20851 98.7842 9.42128 99.5823C10.2638 99.7367 17.6426 99.8397 28.8766 99.8397H46.9787V103.676V107.512L43.2255 107.614C39.9574 107.692 39.3191 107.769 38.4255 108.258C37.8638 108.567 35.4128 110.833 33.0128 113.304C28.417 117.964 28.1362 118.401 28.9532 119.56C29.3106 120.049 29.8979 120.049 52.0596 120.126C64.5702 120.152 74.8085 120.152 74.8085 120.126C74.8085 120.075 74.6298 119.586 74.4255 119.019C74.1702 118.247 74.0681 116.651 74.0426 112.763V107.563H72.5106H70.9787V103.701V99.8397H72.5106H74.0426V93.5324V87.225H38.5532H3.06383V56.5893C3.06383 26.4428 3.06383 25.9537 3.57447 24.5635C4.31489 22.6069 5.82128 20.985 7.86383 19.981L9.57447 19.1314H25.6596H41.7447L41.8213 20.9593L41.8979 22.8129L40.3149 22.9158C38.9362 23.0188 38.6298 23.1218 38.017 23.8426L37.2766 24.6665V36.0969C37.2766 47.1927 37.3021 47.5274 37.7872 48.171C38.3489 48.8918 39.6766 49.381 41.0553 49.381H41.8723V57.6964C41.8723 64.2097 41.9489 66.1147 42.2043 66.4751C42.6894 67.1445 43.9149 67.093 44.4766 66.3722C44.9106 65.8573 44.9362 65.1364 44.9362 57.6191V49.4582L46.2383 49.3295C47.617 49.175 48.7149 48.5571 49.2 47.5531C49.4553 47.0897 49.5319 44.1806 49.5319 36.0454C49.5319 24.1001 49.5319 24.0486 48 23.2505C47.5915 23.0446 46.7489 22.8644 46.0851 22.8644H44.9362V20.9335V19.0027L51.1404 19.0542L57.3191 19.1314L57.4468 31.6432C57.5745 45.3648 57.4979 44.7212 59.1574 45.4421C59.617 45.6223 60.4596 45.7768 61.0213 45.7768H62.0426V51.0286C62.0426 56.1774 62.0426 56.3062 62.6043 56.6923C63.3702 57.233 63.983 57.2072 64.5957 56.5893C65.0808 56.1002 65.1064 55.7398 65.1064 50.9514V45.8282L66.5362 45.7253C67.7106 45.6223 68.0936 45.4678 68.7574 44.7727L69.5745 43.9747L69.6511 31.4887L69.7277 19.0027L75.9064 19.0542L82.0851 19.1314V23.6367V28.1419L80.6808 28.2707C79.9149 28.3479 79.0468 28.5538 78.766 28.7083C77.617 29.3519 77.5915 29.5321 77.6681 42.3528L77.7447 54.5041L58.8766 64.6216C48.5106 70.1823 39.9064 74.7648 39.7277 74.8163C39.5745 74.842 38.9362 73.7608 38.3234 72.3706C36.9957 69.41 36.6383 68.9466 35.7957 68.9466C35.183 68.9466 11.5404 79.1156 10.2638 79.9137C9.16596 80.6345 9.80426 82.5911 11.1574 82.5911C11.566 82.5911 26.7574 76.0778 33.166 73.1687C33.9064 72.834 34.6468 72.5508 34.7745 72.5508C34.9021 72.5508 35.617 73.8895 36.383 75.5114C37.4808 77.8799 37.8638 78.472 38.3745 78.6007C38.8851 78.7294 43.2511 76.4897 60.4085 67.299C72.1532 60.9916 81.8808 55.817 81.983 55.817C82.1106 55.817 82.2128 57.3102 82.2128 59.1123C82.2128 61.9956 82.2638 62.4848 82.6723 62.8452C83.3106 63.4373 84.1532 63.3858 84.766 62.768C85.2255 62.3046 85.2766 61.9184 85.2766 59.0351V55.817H86.4255C88.6213 55.817 89.8723 54.607 89.8723 52.5218V51.492L94.417 49.0463C105.217 43.2281 104.528 43.5628 104.323 44.2578C104.221 44.5925 104.094 45.4678 103.991 46.2144C103.864 47.4759 103.889 47.5789 104.502 47.862C105.421 48.274 106.34 47.965 106.672 47.1412C106.826 46.7293 107.311 45.0559 107.745 43.4083C108.664 39.8813 108.613 39.5724 106.8 39.006C104.4 38.2337 101.591 37.5386 100.851 37.5386C100.111 37.5386 99.3191 38.3109 99.3191 39.0318C99.3191 39.6754 100.519 40.5764 101.591 40.7566C102.204 40.8596 102.587 41.0398 102.46 41.1428C102.204 41.4002 90.2298 47.8363 90.0255 47.8363C89.9489 47.8363 89.8723 43.9489 89.8723 39.212C89.8723 32.0293 89.7957 30.4332 89.4894 29.8153C88.9021 28.6826 88.1362 28.2707 86.6298 28.2707H85.2766V23.6109V18.977L96.8426 19.0542C107.209 19.1314 108.511 19.2087 109.583 19.6206C111.191 20.2127 113.209 22.092 114.077 23.7397L114.766 25.0526L114.843 49.9731L114.894 74.9193L115.685 75.5629C116.63 76.3609 117.191 77.4422 117.191 78.4205C117.191 78.8839 117.345 79.2443 117.574 79.3473C117.932 79.476 117.957 76.4897 117.906 52.0069L117.83 24.512L116.885 22.5812C115.2 19.1314 112.034 16.7887 108.255 16.1966C107.311 16.0421 102.051 15.9134 95.9489 15.9134H85.2766V12.0775C85.2766 8.7565 85.2255 8.16438 84.817 7.67524C84.2553 6.9544 83.0298 6.90291 82.5447 7.57227C82.3149 7.90694 82.2128 9.09118 82.2128 11.9745V15.9134H75.9574H69.7021V13.0558C69.7021 10.816 69.6 10.0437 69.2681 9.4516C68.7319 8.5248 67.5064 7.93268 66.1532 7.93268H65.1064V4.58593C65.1064 1.34215 65.0808 1.18769 64.4681 0.595569C63.8298 -0.0737821 63.7277 -0.0995264 63.0638 0.132172Z" fill="#F8EC20"/>
<path d="M22.2128 28.7857C21.8043 29.1976 21.7021 29.6353 21.7021 30.974V32.6473H20.8851C19.5064 32.6473 18.1787 33.1365 17.617 33.8573C17.1319 34.5009 17.1064 34.8356 17.1064 45.9314V57.3618L17.8468 58.1856C18.4596 58.8807 18.766 59.0095 20.1447 59.1124L21.7021 59.2154V64.0811C21.7021 68.6121 21.7277 68.9725 22.2128 69.4616C22.8766 70.131 23.3872 70.1052 24.1277 69.3329C24.766 68.715 24.766 68.6636 24.766 63.9266V59.1639H25.9149C26.5787 59.1639 27.4213 58.9837 27.8298 58.7778C29.3617 57.9797 29.3617 57.9539 29.3617 45.8284C29.3617 34.8871 29.3617 34.7584 28.8 34.0633C28.1362 33.2137 26.8851 32.6473 25.6596 32.6473H24.766V31.1027C24.766 29.7897 24.6638 29.4293 24.1277 28.9144C23.3872 28.1421 22.8766 28.1163 22.2128 28.7857Z" fill="#F8EC20"/>
<path d="M83.1575 78.1116C83.0553 78.2145 82.9787 79.4245 82.9787 80.8147C82.9787 82.8743 83.0553 83.3377 83.3872 83.4664C84.2809 83.8268 84.5362 83.1574 84.4596 80.5573C84.383 78.2918 84.3319 78.0858 83.8723 78.0086C83.566 77.9571 83.2596 78.0086 83.1575 78.1116Z" fill="#F8EC20"/>
<path d="M92.834 78.3435C92.7574 78.5752 92.6808 79.6565 92.6808 80.7635C92.6808 83.029 93.0894 83.9558 93.8808 83.4666C94.2638 83.2092 94.3404 82.823 94.3404 80.6347V78.0861L93.6766 78.0088C93.2425 77.9573 92.9362 78.0861 92.834 78.3435Z" fill="#F8EC20"/>
<path d="M102.817 78.1379C102.511 78.4468 102.613 82.9778 102.945 83.3125C103.353 83.7244 103.532 83.6986 104.017 83.2095C104.323 82.9263 104.426 82.2827 104.426 80.7895C104.426 79.6825 104.349 78.6013 104.272 78.3696C104.119 77.9576 103.123 77.8032 102.817 78.1379Z" fill="#F8EC20"/>
<path d="M112.774 78.1116C112.672 78.2145 112.596 79.4245 112.596 80.8147C112.596 82.8743 112.672 83.3377 113.004 83.4664C113.898 83.8268 114.153 83.1574 114.077 80.5573C114 78.2918 113.949 78.0858 113.489 78.0086C113.183 77.9571 112.877 78.0086 112.774 78.1116Z" fill="#F8EC20"/>
<path d="M87.5745 83.0807C87.5745 84.5481 85.8638 86.3502 84.2043 86.6076C82.3149 86.9166 79.9149 85.063 79.9149 83.2609C79.9149 82.437 79.6851 82.4113 78.766 83.1579C77.7957 83.9302 77.1064 85.5521 77.1064 87.1482V88.5127H98.5532H120V87.1482C120 85.5006 119.285 83.8787 118.264 83.1579C117.319 82.4628 117.191 82.4628 117.191 83.1321C117.191 84.1619 116.119 85.6551 115.021 86.1957C113.694 86.8393 113.03 86.8393 111.677 86.17C110.426 85.5778 109.532 84.3164 109.532 83.1321C109.532 82.3856 109.481 82.3341 108.536 82.3341C107.566 82.3341 107.54 82.3598 107.26 83.5183C106.698 85.7581 104.477 87.1225 102.409 86.4789C101.106 86.0927 99.8809 84.6768 99.6766 83.3638C99.5234 82.3856 99.4723 82.3341 98.5532 82.3341C97.634 82.3341 97.583 82.3598 97.4298 83.4153C97.2 84.857 95.7447 86.3244 94.2894 86.5561C92.1702 86.9166 90.1277 85.3976 89.7191 83.1579C89.566 82.3856 89.4894 82.3341 88.5702 82.3341C87.6511 82.3341 87.5745 82.3856 87.5745 83.0807Z" fill="#F8EC20"/>
<path d="M77.1064 104.551C77.1064 117.475 77.1064 117.5 77.6936 118.633C78 119.277 78.6383 120.049 79.1234 120.358L79.9915 120.95H98.5532H117.115L117.983 120.358C118.468 120.049 119.106 119.277 119.438 118.633C120 117.5 120 117.475 120 104.551V91.6017H98.5532H77.1064V104.551ZM101.106 95.7208C101.591 96.21 101.617 96.5704 101.617 106.327C101.617 117.423 101.617 117.346 100.06 117.346C98.6043 117.346 98.5532 117.063 98.5532 107.872V99.531L97.1489 100.329C96.383 100.767 95.4894 101.127 95.183 101.127C94.0596 101.127 93.3191 99.8142 93.9319 98.8359C94.2383 98.3467 99.6 95.2317 100.162 95.2317C100.391 95.2059 100.826 95.4376 101.106 95.7208Z" fill="#F8EC20"/>
</svg>
