<svg width="120" height="121" viewBox="0 0 120 121" fill="none" xmlns="http://www.w3.org/2000/svg">
<path d="M21.1838 10.1686C21.1838 19.7138 21.1589 20.3867 20.7352 20.7605C20.3115 21.1343 19.215 21.1842 10.1433 21.1842H0V70.2309C0 117.458 0.0249221 119.327 0.448598 119.701C0.872274 120.1 4.5109 120.125 47.5514 120.125H94.1807L94.5545 119.577C94.9034 119.078 94.9533 117.035 94.9533 102.505C94.9533 93.4085 94.8785 85.9817 94.7788 85.9817C94.6542 86.0066 92.2368 87.7262 89.3707 89.8446C84.1869 93.6826 84.162 93.7076 82.8411 93.7076C81.7196 93.7076 81.3707 93.5829 80.648 92.935C80.1495 92.5113 79.6511 91.7886 79.5265 91.34C79.3022 90.4677 80.2741 76.2621 80.6978 74.5175C80.7975 74.044 84.0623 68.1624 87.9252 61.4833L94.9533 49.3213V25.2216C94.9533 3.78856 94.9034 1.04712 94.5545 0.54868L94.1807 0.000393212H57.6698H21.1838V10.1686ZM50.4922 8.72313C54.9782 10.9163 55.9502 16.9225 52.3115 20.3119C51.6386 20.935 50.7414 21.5829 50.2928 21.7325C49.5452 22.0066 49.5452 22.0066 51.4891 22.6546C57.0467 24.5238 60.81 29.5082 60.81 35.016C60.81 36.5611 60.7103 36.9599 60.1121 37.8571C58.4922 40.2496 54.9533 41.6203 49.1963 42.0191C44.5857 42.3181 39.2274 41.3213 36.5857 39.6515C34.243 38.1562 33.5701 36.1624 34.243 32.8976C35.2897 27.9879 38.8785 24.0004 43.514 22.6297L45.2835 22.1063L44.0125 21.4583C42.5919 20.7107 41.0966 18.9163 40.648 17.4459C40.2741 16.1499 40.2991 13.9568 40.7477 12.7107C42.0935 8.87267 46.8037 6.95366 50.4922 8.72313ZM19.5389 46.3805L20.1869 46.8789V51.2901C20.1869 57.1717 20.5358 56.8228 14.8037 56.8228C9.04673 56.8228 9.37072 57.097 9.27103 52.0627C9.17134 47.8758 9.39564 46.5798 10.2679 46.1562C10.6168 46.0066 12.5109 45.882 14.8536 45.882C18.567 45.8571 18.9159 45.9069 19.5389 46.3805ZM77.0343 51.2901C77.8069 51.9381 77.8069 53.234 77.0343 53.882C76.486 54.3057 75.3645 54.3306 51.3146 54.3306C26.4922 54.3306 26.1682 54.3306 25.6698 53.8322C25.3956 53.558 25.1713 53.0097 25.1713 52.5861C25.1713 52.1624 25.3956 51.6141 25.6698 51.34C26.1682 50.8415 26.4922 50.8415 51.3146 50.8415C75.3645 50.8415 76.486 50.8664 77.0343 51.2901ZM19.7134 65.2714C20.1371 65.7948 20.1869 66.2932 20.1869 70.1811C20.1869 75.9132 20.5857 75.5144 14.8536 75.5144C8.99688 75.5144 9.37072 75.8384 9.27103 70.4801C9.17134 64.4739 9.14642 64.4988 15.1526 64.5985C19.1153 64.6733 19.2399 64.6982 19.7134 65.2714ZM77.0841 69.9568C77.8816 70.854 77.6075 72.3991 76.6106 72.773C76.2118 72.9225 66.5421 73.0222 51.3146 73.0222C26.4673 73.0222 25.919 72.9973 25.3707 72.1748C25.0467 71.6764 25.1713 70.4552 25.595 69.9817C25.9688 69.558 27.1153 69.5331 51.3396 69.5331C75.1651 69.5331 76.7103 69.558 77.0841 69.9568ZM19.7882 84.0378C20.1121 84.4864 20.1869 85.4085 20.1869 88.8976C20.1869 94.6048 20.5857 94.206 14.7539 94.206C8.94704 94.206 9.34579 94.6048 9.34579 88.8477C9.34579 83.0658 8.92212 83.4895 14.8536 83.4895C19.2897 83.4895 19.4143 83.5144 19.7882 84.0378ZM77.0841 88.6484C77.8567 89.5456 77.6324 90.9661 76.6355 91.4147C76.162 91.639 69.6324 91.7138 51.2399 91.7138C26.567 91.7138 26.4922 91.7138 25.8193 91.1904C25.0467 90.5923 24.947 89.396 25.595 88.6733C25.9688 88.2496 27.1153 88.2247 51.3396 88.2247C75.1651 88.2247 76.7103 88.2496 77.0841 88.6484ZM76.6106 104.175C77.6075 104.549 77.8816 106.094 77.0841 106.966C76.7103 107.39 75.9377 107.415 67.838 107.415C58.0187 107.415 58.0685 107.415 58.0685 105.82C58.0935 103.975 58.243 103.951 67.7134 103.926C72.4486 103.926 76.2617 104.025 76.6106 104.175Z" fill="#F8EC20"/>
<path d="M46.4798 11.6391C44.9595 12.0379 43.8629 13.5332 43.8629 15.2528C43.8629 16.6983 44.6106 17.8447 45.9315 18.4429C47.2523 19.0659 47.7009 19.0659 48.972 18.4429C50.1682 17.8697 51.0903 16.4491 51.0903 15.203C51.0903 12.9351 48.6978 11.0908 46.4798 11.6391Z" fill="#F8EC20"/>
<path d="M45.2336 25.7697C41.2959 26.7417 38.3551 29.8819 37.6324 33.8694C37.2835 35.7635 37.6075 36.4364 39.2274 37.1591C41.4206 38.1062 43.5888 38.4551 47.352 38.4551C51.4891 38.4551 53.8816 38.0314 55.9003 36.9598L57.1963 36.2619L57.1713 34.5174C57.1215 30.3554 53.6324 26.5174 49.1215 25.67C47.4766 25.371 46.8287 25.371 45.2336 25.7697Z" fill="#F8EC20"/>
<path d="M12.9595 51.3402V53.334H14.8287H16.6978V51.3402V49.3464H14.8287H12.9595V51.3402Z" fill="#F8EC20"/>
<path d="M12.9595 70.0316V72.0254H14.8287H16.6978V70.0316V68.0379H14.8287H12.9595V70.0316Z" fill="#F8EC20"/>
<path d="M12.9595 88.8476V90.7168H14.8287H16.6978V88.8476V86.9785H14.8287H12.9595V88.8476Z" fill="#F8EC20"/>
<path d="M9.71962 9.84485L1.86916 17.6953H9.79439H17.6947V9.84485C17.6947 5.53332 17.6698 1.99438 17.6199 1.99438C17.595 1.99438 14.0312 5.53332 9.71962 9.84485Z" fill="#F8EC20"/>
<path d="M111.402 30.3053C110.156 30.8536 109.009 32.0249 107.863 33.9688C107.315 34.9159 106.916 35.7134 106.966 35.7632C107.14 35.9626 117.458 41.8691 117.607 41.8691C117.682 41.8691 118.255 40.947 118.878 39.8006C119.9 37.9314 120 37.6075 120 36.0124C119.975 34.7165 119.85 34.0187 119.452 33.2461C118.829 32.0747 117.408 30.729 116.237 30.2554C115.14 29.8068 112.498 29.8318 111.402 30.3053Z" fill="#F8EC20"/>
<path d="M95.0779 56.1002C89.595 65.5706 85.0841 73.3961 85.0592 73.4958C84.9844 73.6703 95.676 79.851 95.8256 79.7014C96.0249 79.5021 115.888 45.0348 115.838 44.96C115.688 44.8354 105.67 39.1033 105.371 39.0036C105.146 38.9039 101.907 44.2871 95.0779 56.1002Z" fill="#F8EC20"/>
<path d="M83.8879 77.5583C83.838 77.7328 83.6636 79.7266 83.514 81.9945C83.3396 84.2624 83.1651 86.5303 83.0904 87.0287C82.9907 87.7266 83.0654 88.0505 83.4642 88.4493C83.7632 88.7484 84.1371 88.9727 84.3365 88.9727C84.7103 88.9727 93.2087 82.792 93.2087 82.5427C93.2087 82.3683 84.4361 77.2593 84.1371 77.2593C84.0374 77.2593 83.9377 77.4088 83.8879 77.5583Z" fill="#F8EC20"/>
</svg>
