<svg width="120" height="120" viewBox="0 0 120 120" fill="none" xmlns="http://www.w3.org/2000/svg">
<g clip-path="url(#clip0_19_628)">
<path d="M92.2969 0.258003C87.0469 1.03144 82.2656 3.49238 78.5625 7.35957C76.5469 9.4455 75.1406 11.4143 74.2734 13.383C73.9687 14.0158 73.6406 14.5314 73.5 14.5314C73.3828 14.5314 71.9297 13.9689 70.2656 13.2893L67.2656 12.0705V10.383C67.2422 2.76582 59.5078 -2.01543 52.7109 1.40644C48.5625 3.51582 46.4297 8.57832 47.7891 13.0783C48.9844 17.0627 52.4062 19.8049 56.5078 20.0861C59.1797 20.2736 61.4531 19.6174 63.4922 18.0705C64.2656 17.4846 65.9531 15.5158 66.1406 15.0002C66.1875 14.8361 72.2578 17.1096 72.6094 17.4611C72.6328 17.4846 72.5156 18.1877 72.3281 19.008C71.5547 22.4064 71.6484 26.4611 72.5625 29.883C72.7734 30.6564 72.9609 31.4299 72.9844 31.6174C72.9844 31.8049 69.1406 33.6096 62.1094 36.7033C56.1094 39.3049 51.1406 41.4611 51.0703 41.4846C51 41.4846 50.4141 40.6643 49.7812 39.6564C48.4219 37.5002 45.4453 34.3127 43.4766 32.9299C38.8594 29.6486 32.625 27.9846 27.2578 28.5939C25.3828 28.8049 22.3594 29.4611 21.2578 29.883C20.9062 30.0236 20.4375 29.2268 18.1406 24.5158L15.4453 18.9611L16.875 17.6721C22.2422 12.7033 20.8359 4.07832 14.1562 1.008C11.4141 -0.257622 7.35937 0.0470657 4.73437 1.73457C2.4375 3.18769 0.70312 5.83613 0.187495 8.62519C-0.375005 11.6486 0.726558 15.0705 3.02343 17.3674C5.17968 19.5236 8.20312 20.6018 11.2266 20.2971L12.7734 20.133L15.4219 25.5939C16.875 28.5939 18.0469 31.1252 18.0469 31.1955C18.0469 31.2893 17.3437 31.8049 16.4531 32.3674C14.4844 33.6564 11.1797 36.9143 9.84375 38.883C8.41406 41.0393 7.07812 43.9689 6.39843 46.5939C5.90625 48.5158 5.78906 49.383 5.78906 52.1486C5.78906 55.7814 6.09375 57.4924 7.26562 60.7033C9.67968 67.3361 15.5859 72.9611 22.3828 75.0705C29.8125 77.3908 38.25 75.9143 43.9922 71.3205L44.9531 70.5471L45.9844 71.7658C50.6953 77.3908 52.3359 79.5236 52.125 79.8283C52.0078 79.9924 51.4687 80.6955 50.9062 81.3986C48.6094 84.3283 46.7812 88.4768 46.1484 92.2033C45.9844 93.1408 45.9141 95.1799 45.9844 97.1721C46.0781 100.078 46.0312 100.571 45.7266 100.664C45.0703 100.852 37.7109 102.422 37.4297 102.422C37.2656 102.422 36.8437 101.836 36.4922 101.156C34.6172 97.5705 30.0937 95.3205 26.2031 96.0471C22.8984 96.6564 20.1562 98.6955 18.7031 101.649C17.9531 103.172 17.9297 103.336 17.9297 105.938C17.9297 108.539 17.9531 108.703 18.7266 110.25C20.6953 114.235 25.0078 116.555 29.1562 115.852C33.9609 115.031 37.2422 111.539 37.7109 106.781L37.8516 105.399L42.3984 104.414L46.9219 103.43L47.2734 104.274C50.5781 112.594 57.3047 118.149 65.8359 119.625C77.7422 121.664 89.1797 114.399 92.7187 102.539C93.2344 100.805 93.3516 99.7971 93.4453 97.008C93.5859 93.0002 93.2578 90.8674 91.9453 87.5393C91.5 86.3674 91.125 85.2424 91.1016 85.0314C91.0781 84.7736 92.8359 83.4377 96.7031 80.8127L102.352 76.9689L103.266 77.7424C106.383 80.3908 110.695 80.9533 114.375 79.1721C118.219 77.2971 120.586 72.7268 119.812 68.6252C118.289 60.4689 108.328 57.4221 102.68 63.3986C101.32 64.8283 100.664 66.0236 100.172 68.0158C99.7266 69.6799 99.8672 72.1408 100.43 73.5236C100.617 73.9689 100.781 74.3908 100.781 74.4377C100.781 74.4611 98.1797 76.2658 95.0156 78.4221L89.2266 82.3127L88.6172 81.5393C86.6719 79.008 83.8594 76.5939 81.2109 75.2111C80.4375 74.7893 79.7812 74.4377 79.7578 74.4143C79.7109 74.3908 81.8437 68.2268 84.4922 60.7268C87.1406 53.2268 89.2969 47.0393 89.2969 47.0158C89.2969 46.9689 89.9062 47.0861 90.6562 47.2502C92.7422 47.7658 96.4219 47.9064 98.7656 47.6018C106.852 46.5236 113.672 41.5314 117.211 34.1018C118.992 30.3518 119.391 28.5002 119.391 23.9064C119.391 20.6252 119.32 19.7346 118.852 18.0471C117.047 11.2736 112.477 5.62519 106.289 2.53144C102.094 0.398628 96.9375 -0.421684 92.2969 0.258003ZM100.031 3.42207C103.57 4.12519 107.086 5.97675 109.852 8.53144C116.836 15.0236 118.594 25.0783 114.234 33.5158C112.992 35.9299 110.648 38.9064 110.391 38.4143C110.297 38.2268 110.133 37.7111 110.039 37.2658C109.758 35.9768 108.586 33.8205 107.508 32.6486C106.453 31.5002 104.719 30.3049 103.359 29.7658C102.914 29.6018 102.492 29.4143 102.445 29.3908C102.422 29.3674 102.703 28.9221 103.102 28.4299C105.094 25.9221 105.75 22.383 104.766 19.4768C103.875 16.8049 102.187 14.9064 99.6094 13.6408C98.4375 13.0783 98.0859 13.008 95.7422 13.008C93.3047 13.008 93.0703 13.0549 91.6406 13.758C86.0391 16.5002 84.375 23.9064 88.3359 28.4299L89.1094 29.2971L87.75 29.883C84.6562 31.2424 82.6641 33.4689 81.5391 36.8205L80.9297 38.6721L79.9922 37.6877C77.9531 35.4377 76.3125 32.4143 75.4219 29.1799C75.0234 27.6564 74.9062 26.6721 74.9062 23.9064C74.9062 21.1408 75.0234 20.1564 75.4219 18.633C77.5312 10.9221 83.6719 5.06269 91.2891 3.4455C93.4922 2.97675 97.7812 2.95332 100.031 3.42207ZM33.8672 31.8518C42.9844 33.7268 49.7344 41.4377 50.5078 50.8596C50.9297 55.9924 48.8906 62.1564 45.5625 65.8127L44.3672 67.1486L43.9687 65.7424C42.9844 62.4143 41.0859 60.0705 38.0391 58.5705C37.1719 58.1252 36.3984 57.7502 36.3516 57.7033C36.2812 57.6799 36.5156 57.3518 36.8437 57.0002C39.2344 54.3986 39.8203 50.1564 38.25 46.8049C35.3437 40.5705 27.1875 39.3518 22.5 44.4377C19.3828 47.8361 19.3125 53.3674 22.3359 57.0471L22.8984 57.7502L21.2812 58.5236C18.3516 59.9299 16.1953 62.4846 15.3281 65.5549C15.1172 66.3752 14.8594 67.0314 14.7656 67.0314C14.6719 67.0314 14.0625 66.3518 13.4062 65.5314C11.8125 63.5627 10.2656 60.6096 9.46875 58.008C8.88281 56.1096 8.83593 55.5471 8.83593 52.383C8.83593 48.4924 9.1875 46.6877 10.5 43.758C13.3594 37.4768 19.4297 32.7893 26.1797 31.6408C28.2422 31.3127 31.6641 31.383 33.8672 31.8518ZM74.5312 34.8986C74.5312 35.0158 75.1641 36.0705 75.9375 37.2189C78.1172 40.5002 81.3984 43.383 85.0312 45.2346C85.8281 45.633 86.4844 46.0314 86.4844 46.0783C86.4844 46.1955 77.6016 71.4611 77.1328 72.7268L76.9219 73.2893L75.1875 72.8439C68.9297 71.2502 61.6406 72.6799 56.0391 76.5705L54.5156 77.6252L54.1172 77.0627C53.8828 76.7814 52.2422 74.7424 50.4375 72.5393L47.1797 68.5783L48.4453 66.9377C50.9062 63.7736 52.4297 60.3283 53.1094 56.4143C53.6484 53.3674 53.4609 48.8674 52.6641 46.2189L52.1016 44.2502L52.5937 44.0393C65.9297 38.2033 74.0156 34.7111 74.25 34.7111C74.3906 34.6877 74.5312 34.7814 74.5312 34.8986ZM74.8359 75.7971C78.8203 76.8049 82.1016 78.7971 85.1016 81.9846C89.6016 86.7658 91.4766 93.1643 90.3516 99.7268C89.7187 103.36 87.9375 107.11 85.6406 109.688L84.5156 110.93L84 109.266C83.0156 106.031 81.0937 103.735 78.1406 102.281L76.4531 101.438L77.2734 100.336C78.7969 98.3439 79.0781 97.4533 79.1016 94.5705C79.1016 92.2502 79.0312 91.8518 78.4687 90.633C77.1328 87.7736 74.1094 85.5002 71.1328 85.1252C66.8906 84.5861 62.9766 86.6721 61.1016 90.4455C60.3984 91.8986 60.3516 92.1096 60.3516 94.5705C60.375 97.4533 60.6562 98.3439 62.1797 100.36L63.0234 101.461L61.3125 102.305C59.5312 103.172 57.6328 104.883 56.6719 106.406C56.3906 106.852 55.875 108.047 55.5469 109.055L54.9141 110.906L53.9297 109.758C51.3516 106.852 49.5234 102.68 48.9609 98.5549C48.3516 93.9611 49.5703 88.6643 52.1484 84.7033C53.3437 82.8752 56.9766 79.2893 58.6406 78.3283C60.6328 77.1564 63.4219 76.008 65.2734 75.6096C67.9687 75.0471 72.1875 75.1408 74.8359 75.7971Z" fill="#F8EC20"/>
</g>
<defs>
<clipPath id="clip0_19_628">
<rect width="120" height="120" fill="white"/>
</clipPath>
</defs>
</svg>
